%TF.GenerationSoftware,KiCad,Pcbnew,7.0.10*%
%TF.CreationDate,2024-03-07T14:58:12-05:00*%
%TF.ProjectId,ECE477_PCBDesign,45434534-3737-45f5-9043-424465736967,1*%
%TF.SameCoordinates,Original*%
%TF.FileFunction,Drillmap*%
%TF.FilePolarity,Positive*%
%FSLAX45Y45*%
G04 Gerber Fmt 4.5, Leading zero omitted, Abs format (unit mm)*
G04 Created by KiCad (PCBNEW 7.0.10) date 2024-03-07 14:58:12*
%MOMM*%
%LPD*%
G01*
G04 APERTURE LIST*
%ADD10C,0.100000*%
%ADD11C,0.200000*%
%ADD12C,0.320000*%
G04 APERTURE END LIST*
D10*
X14737500Y-10295000D02*
X28737500Y-10295000D01*
X28737500Y-17295000D01*
X14737500Y-17295000D01*
X14737500Y-10295000D01*
D11*
D12*
X15077500Y-10635000D02*
X15397500Y-10955000D01*
X15397500Y-10635000D02*
X15077500Y-10955000D01*
X15077500Y-16635000D02*
X15397500Y-16955000D01*
X15397500Y-16635000D02*
X15077500Y-16955000D01*
X28067500Y-16635000D02*
X28387500Y-16955000D01*
X28387500Y-16635000D02*
X28067500Y-16955000D01*
X28077500Y-10640000D02*
X28397500Y-10960000D01*
X28397500Y-10640000D02*
X28077500Y-10960000D01*
D11*
X14993277Y-17611484D02*
X14993277Y-17411484D01*
X14993277Y-17411484D02*
X15040896Y-17411484D01*
X15040896Y-17411484D02*
X15069467Y-17421008D01*
X15069467Y-17421008D02*
X15088515Y-17440055D01*
X15088515Y-17440055D02*
X15098039Y-17459103D01*
X15098039Y-17459103D02*
X15107562Y-17497198D01*
X15107562Y-17497198D02*
X15107562Y-17525770D01*
X15107562Y-17525770D02*
X15098039Y-17563865D01*
X15098039Y-17563865D02*
X15088515Y-17582912D01*
X15088515Y-17582912D02*
X15069467Y-17601960D01*
X15069467Y-17601960D02*
X15040896Y-17611484D01*
X15040896Y-17611484D02*
X14993277Y-17611484D01*
X15193277Y-17611484D02*
X15193277Y-17478150D01*
X15193277Y-17516246D02*
X15202801Y-17497198D01*
X15202801Y-17497198D02*
X15212324Y-17487674D01*
X15212324Y-17487674D02*
X15231372Y-17478150D01*
X15231372Y-17478150D02*
X15250420Y-17478150D01*
X15317086Y-17611484D02*
X15317086Y-17478150D01*
X15317086Y-17411484D02*
X15307562Y-17421008D01*
X15307562Y-17421008D02*
X15317086Y-17430531D01*
X15317086Y-17430531D02*
X15326610Y-17421008D01*
X15326610Y-17421008D02*
X15317086Y-17411484D01*
X15317086Y-17411484D02*
X15317086Y-17430531D01*
X15440896Y-17611484D02*
X15421848Y-17601960D01*
X15421848Y-17601960D02*
X15412324Y-17582912D01*
X15412324Y-17582912D02*
X15412324Y-17411484D01*
X15545658Y-17611484D02*
X15526610Y-17601960D01*
X15526610Y-17601960D02*
X15517086Y-17582912D01*
X15517086Y-17582912D02*
X15517086Y-17411484D01*
X15774229Y-17611484D02*
X15774229Y-17411484D01*
X15774229Y-17411484D02*
X15840896Y-17554341D01*
X15840896Y-17554341D02*
X15907562Y-17411484D01*
X15907562Y-17411484D02*
X15907562Y-17611484D01*
X16088515Y-17611484D02*
X16088515Y-17506722D01*
X16088515Y-17506722D02*
X16078991Y-17487674D01*
X16078991Y-17487674D02*
X16059943Y-17478150D01*
X16059943Y-17478150D02*
X16021848Y-17478150D01*
X16021848Y-17478150D02*
X16002801Y-17487674D01*
X16088515Y-17601960D02*
X16069467Y-17611484D01*
X16069467Y-17611484D02*
X16021848Y-17611484D01*
X16021848Y-17611484D02*
X16002801Y-17601960D01*
X16002801Y-17601960D02*
X15993277Y-17582912D01*
X15993277Y-17582912D02*
X15993277Y-17563865D01*
X15993277Y-17563865D02*
X16002801Y-17544817D01*
X16002801Y-17544817D02*
X16021848Y-17535293D01*
X16021848Y-17535293D02*
X16069467Y-17535293D01*
X16069467Y-17535293D02*
X16088515Y-17525770D01*
X16183753Y-17478150D02*
X16183753Y-17678150D01*
X16183753Y-17487674D02*
X16202801Y-17478150D01*
X16202801Y-17478150D02*
X16240896Y-17478150D01*
X16240896Y-17478150D02*
X16259943Y-17487674D01*
X16259943Y-17487674D02*
X16269467Y-17497198D01*
X16269467Y-17497198D02*
X16278991Y-17516246D01*
X16278991Y-17516246D02*
X16278991Y-17573389D01*
X16278991Y-17573389D02*
X16269467Y-17592436D01*
X16269467Y-17592436D02*
X16259943Y-17601960D01*
X16259943Y-17601960D02*
X16240896Y-17611484D01*
X16240896Y-17611484D02*
X16202801Y-17611484D01*
X16202801Y-17611484D02*
X16183753Y-17601960D01*
X16364705Y-17592436D02*
X16374229Y-17601960D01*
X16374229Y-17601960D02*
X16364705Y-17611484D01*
X16364705Y-17611484D02*
X16355182Y-17601960D01*
X16355182Y-17601960D02*
X16364705Y-17592436D01*
X16364705Y-17592436D02*
X16364705Y-17611484D01*
X16364705Y-17487674D02*
X16374229Y-17497198D01*
X16374229Y-17497198D02*
X16364705Y-17506722D01*
X16364705Y-17506722D02*
X16355182Y-17497198D01*
X16355182Y-17497198D02*
X16364705Y-17487674D01*
X16364705Y-17487674D02*
X16364705Y-17506722D01*
X14532500Y-17840000D02*
X14732500Y-18040000D01*
X14732500Y-17840000D02*
X14532500Y-18040000D01*
X14974229Y-17831484D02*
X15098039Y-17831484D01*
X15098039Y-17831484D02*
X15031372Y-17907674D01*
X15031372Y-17907674D02*
X15059943Y-17907674D01*
X15059943Y-17907674D02*
X15078991Y-17917198D01*
X15078991Y-17917198D02*
X15088515Y-17926722D01*
X15088515Y-17926722D02*
X15098039Y-17945770D01*
X15098039Y-17945770D02*
X15098039Y-17993389D01*
X15098039Y-17993389D02*
X15088515Y-18012436D01*
X15088515Y-18012436D02*
X15078991Y-18021960D01*
X15078991Y-18021960D02*
X15059943Y-18031484D01*
X15059943Y-18031484D02*
X15002801Y-18031484D01*
X15002801Y-18031484D02*
X14983753Y-18021960D01*
X14983753Y-18021960D02*
X14974229Y-18012436D01*
X15183753Y-18012436D02*
X15193277Y-18021960D01*
X15193277Y-18021960D02*
X15183753Y-18031484D01*
X15183753Y-18031484D02*
X15174229Y-18021960D01*
X15174229Y-18021960D02*
X15183753Y-18012436D01*
X15183753Y-18012436D02*
X15183753Y-18031484D01*
X15269467Y-17850531D02*
X15278991Y-17841008D01*
X15278991Y-17841008D02*
X15298039Y-17831484D01*
X15298039Y-17831484D02*
X15345658Y-17831484D01*
X15345658Y-17831484D02*
X15364705Y-17841008D01*
X15364705Y-17841008D02*
X15374229Y-17850531D01*
X15374229Y-17850531D02*
X15383753Y-17869579D01*
X15383753Y-17869579D02*
X15383753Y-17888627D01*
X15383753Y-17888627D02*
X15374229Y-17917198D01*
X15374229Y-17917198D02*
X15259943Y-18031484D01*
X15259943Y-18031484D02*
X15383753Y-18031484D01*
X15507562Y-17831484D02*
X15526610Y-17831484D01*
X15526610Y-17831484D02*
X15545658Y-17841008D01*
X15545658Y-17841008D02*
X15555182Y-17850531D01*
X15555182Y-17850531D02*
X15564705Y-17869579D01*
X15564705Y-17869579D02*
X15574229Y-17907674D01*
X15574229Y-17907674D02*
X15574229Y-17955293D01*
X15574229Y-17955293D02*
X15564705Y-17993389D01*
X15564705Y-17993389D02*
X15555182Y-18012436D01*
X15555182Y-18012436D02*
X15545658Y-18021960D01*
X15545658Y-18021960D02*
X15526610Y-18031484D01*
X15526610Y-18031484D02*
X15507562Y-18031484D01*
X15507562Y-18031484D02*
X15488515Y-18021960D01*
X15488515Y-18021960D02*
X15478991Y-18012436D01*
X15478991Y-18012436D02*
X15469467Y-17993389D01*
X15469467Y-17993389D02*
X15459943Y-17955293D01*
X15459943Y-17955293D02*
X15459943Y-17907674D01*
X15459943Y-17907674D02*
X15469467Y-17869579D01*
X15469467Y-17869579D02*
X15478991Y-17850531D01*
X15478991Y-17850531D02*
X15488515Y-17841008D01*
X15488515Y-17841008D02*
X15507562Y-17831484D01*
X15698039Y-17831484D02*
X15717086Y-17831484D01*
X15717086Y-17831484D02*
X15736134Y-17841008D01*
X15736134Y-17841008D02*
X15745658Y-17850531D01*
X15745658Y-17850531D02*
X15755182Y-17869579D01*
X15755182Y-17869579D02*
X15764705Y-17907674D01*
X15764705Y-17907674D02*
X15764705Y-17955293D01*
X15764705Y-17955293D02*
X15755182Y-17993389D01*
X15755182Y-17993389D02*
X15745658Y-18012436D01*
X15745658Y-18012436D02*
X15736134Y-18021960D01*
X15736134Y-18021960D02*
X15717086Y-18031484D01*
X15717086Y-18031484D02*
X15698039Y-18031484D01*
X15698039Y-18031484D02*
X15678991Y-18021960D01*
X15678991Y-18021960D02*
X15669467Y-18012436D01*
X15669467Y-18012436D02*
X15659943Y-17993389D01*
X15659943Y-17993389D02*
X15650420Y-17955293D01*
X15650420Y-17955293D02*
X15650420Y-17907674D01*
X15650420Y-17907674D02*
X15659943Y-17869579D01*
X15659943Y-17869579D02*
X15669467Y-17850531D01*
X15669467Y-17850531D02*
X15678991Y-17841008D01*
X15678991Y-17841008D02*
X15698039Y-17831484D01*
X15850420Y-18031484D02*
X15850420Y-17898150D01*
X15850420Y-17917198D02*
X15859943Y-17907674D01*
X15859943Y-17907674D02*
X15878991Y-17898150D01*
X15878991Y-17898150D02*
X15907563Y-17898150D01*
X15907563Y-17898150D02*
X15926610Y-17907674D01*
X15926610Y-17907674D02*
X15936134Y-17926722D01*
X15936134Y-17926722D02*
X15936134Y-18031484D01*
X15936134Y-17926722D02*
X15945658Y-17907674D01*
X15945658Y-17907674D02*
X15964705Y-17898150D01*
X15964705Y-17898150D02*
X15993277Y-17898150D01*
X15993277Y-17898150D02*
X16012324Y-17907674D01*
X16012324Y-17907674D02*
X16021848Y-17926722D01*
X16021848Y-17926722D02*
X16021848Y-18031484D01*
X16117086Y-18031484D02*
X16117086Y-17898150D01*
X16117086Y-17917198D02*
X16126610Y-17907674D01*
X16126610Y-17907674D02*
X16145658Y-17898150D01*
X16145658Y-17898150D02*
X16174229Y-17898150D01*
X16174229Y-17898150D02*
X16193277Y-17907674D01*
X16193277Y-17907674D02*
X16202801Y-17926722D01*
X16202801Y-17926722D02*
X16202801Y-18031484D01*
X16202801Y-17926722D02*
X16212324Y-17907674D01*
X16212324Y-17907674D02*
X16231372Y-17898150D01*
X16231372Y-17898150D02*
X16259943Y-17898150D01*
X16259943Y-17898150D02*
X16278991Y-17907674D01*
X16278991Y-17907674D02*
X16288515Y-17926722D01*
X16288515Y-17926722D02*
X16288515Y-18031484D01*
X16678991Y-17821960D02*
X16507563Y-18079103D01*
X16936134Y-17831484D02*
X16955182Y-17831484D01*
X16955182Y-17831484D02*
X16974229Y-17841008D01*
X16974229Y-17841008D02*
X16983753Y-17850531D01*
X16983753Y-17850531D02*
X16993277Y-17869579D01*
X16993277Y-17869579D02*
X17002801Y-17907674D01*
X17002801Y-17907674D02*
X17002801Y-17955293D01*
X17002801Y-17955293D02*
X16993277Y-17993389D01*
X16993277Y-17993389D02*
X16983753Y-18012436D01*
X16983753Y-18012436D02*
X16974229Y-18021960D01*
X16974229Y-18021960D02*
X16955182Y-18031484D01*
X16955182Y-18031484D02*
X16936134Y-18031484D01*
X16936134Y-18031484D02*
X16917087Y-18021960D01*
X16917087Y-18021960D02*
X16907563Y-18012436D01*
X16907563Y-18012436D02*
X16898039Y-17993389D01*
X16898039Y-17993389D02*
X16888515Y-17955293D01*
X16888515Y-17955293D02*
X16888515Y-17907674D01*
X16888515Y-17907674D02*
X16898039Y-17869579D01*
X16898039Y-17869579D02*
X16907563Y-17850531D01*
X16907563Y-17850531D02*
X16917087Y-17841008D01*
X16917087Y-17841008D02*
X16936134Y-17831484D01*
X17088515Y-18012436D02*
X17098039Y-18021960D01*
X17098039Y-18021960D02*
X17088515Y-18031484D01*
X17088515Y-18031484D02*
X17078991Y-18021960D01*
X17078991Y-18021960D02*
X17088515Y-18012436D01*
X17088515Y-18012436D02*
X17088515Y-18031484D01*
X17288515Y-18031484D02*
X17174229Y-18031484D01*
X17231372Y-18031484D02*
X17231372Y-17831484D01*
X17231372Y-17831484D02*
X17212325Y-17860055D01*
X17212325Y-17860055D02*
X17193277Y-17879103D01*
X17193277Y-17879103D02*
X17174229Y-17888627D01*
X17364706Y-17850531D02*
X17374229Y-17841008D01*
X17374229Y-17841008D02*
X17393277Y-17831484D01*
X17393277Y-17831484D02*
X17440896Y-17831484D01*
X17440896Y-17831484D02*
X17459944Y-17841008D01*
X17459944Y-17841008D02*
X17469468Y-17850531D01*
X17469468Y-17850531D02*
X17478991Y-17869579D01*
X17478991Y-17869579D02*
X17478991Y-17888627D01*
X17478991Y-17888627D02*
X17469468Y-17917198D01*
X17469468Y-17917198D02*
X17355182Y-18031484D01*
X17355182Y-18031484D02*
X17478991Y-18031484D01*
X17650420Y-17831484D02*
X17612325Y-17831484D01*
X17612325Y-17831484D02*
X17593277Y-17841008D01*
X17593277Y-17841008D02*
X17583753Y-17850531D01*
X17583753Y-17850531D02*
X17564706Y-17879103D01*
X17564706Y-17879103D02*
X17555182Y-17917198D01*
X17555182Y-17917198D02*
X17555182Y-17993389D01*
X17555182Y-17993389D02*
X17564706Y-18012436D01*
X17564706Y-18012436D02*
X17574229Y-18021960D01*
X17574229Y-18021960D02*
X17593277Y-18031484D01*
X17593277Y-18031484D02*
X17631372Y-18031484D01*
X17631372Y-18031484D02*
X17650420Y-18021960D01*
X17650420Y-18021960D02*
X17659944Y-18012436D01*
X17659944Y-18012436D02*
X17669468Y-17993389D01*
X17669468Y-17993389D02*
X17669468Y-17945770D01*
X17669468Y-17945770D02*
X17659944Y-17926722D01*
X17659944Y-17926722D02*
X17650420Y-17917198D01*
X17650420Y-17917198D02*
X17631372Y-17907674D01*
X17631372Y-17907674D02*
X17593277Y-17907674D01*
X17593277Y-17907674D02*
X17574229Y-17917198D01*
X17574229Y-17917198D02*
X17564706Y-17926722D01*
X17564706Y-17926722D02*
X17555182Y-17945770D01*
X17793277Y-17831484D02*
X17812325Y-17831484D01*
X17812325Y-17831484D02*
X17831372Y-17841008D01*
X17831372Y-17841008D02*
X17840896Y-17850531D01*
X17840896Y-17850531D02*
X17850420Y-17869579D01*
X17850420Y-17869579D02*
X17859944Y-17907674D01*
X17859944Y-17907674D02*
X17859944Y-17955293D01*
X17859944Y-17955293D02*
X17850420Y-17993389D01*
X17850420Y-17993389D02*
X17840896Y-18012436D01*
X17840896Y-18012436D02*
X17831372Y-18021960D01*
X17831372Y-18021960D02*
X17812325Y-18031484D01*
X17812325Y-18031484D02*
X17793277Y-18031484D01*
X17793277Y-18031484D02*
X17774229Y-18021960D01*
X17774229Y-18021960D02*
X17764706Y-18012436D01*
X17764706Y-18012436D02*
X17755182Y-17993389D01*
X17755182Y-17993389D02*
X17745658Y-17955293D01*
X17745658Y-17955293D02*
X17745658Y-17907674D01*
X17745658Y-17907674D02*
X17755182Y-17869579D01*
X17755182Y-17869579D02*
X17764706Y-17850531D01*
X17764706Y-17850531D02*
X17774229Y-17841008D01*
X17774229Y-17841008D02*
X17793277Y-17831484D01*
X17936134Y-17831484D02*
X17936134Y-17869579D01*
X18012325Y-17831484D02*
X18012325Y-17869579D01*
X18307563Y-18107674D02*
X18298039Y-18098150D01*
X18298039Y-18098150D02*
X18278991Y-18069579D01*
X18278991Y-18069579D02*
X18269468Y-18050531D01*
X18269468Y-18050531D02*
X18259944Y-18021960D01*
X18259944Y-18021960D02*
X18250420Y-17974341D01*
X18250420Y-17974341D02*
X18250420Y-17936246D01*
X18250420Y-17936246D02*
X18259944Y-17888627D01*
X18259944Y-17888627D02*
X18269468Y-17860055D01*
X18269468Y-17860055D02*
X18278991Y-17841008D01*
X18278991Y-17841008D02*
X18298039Y-17812436D01*
X18298039Y-17812436D02*
X18307563Y-17802912D01*
X18469468Y-17898150D02*
X18469468Y-18031484D01*
X18421849Y-17821960D02*
X18374230Y-17964817D01*
X18374230Y-17964817D02*
X18498039Y-17964817D01*
X18726611Y-18031484D02*
X18726611Y-17831484D01*
X18812325Y-18031484D02*
X18812325Y-17926722D01*
X18812325Y-17926722D02*
X18802801Y-17907674D01*
X18802801Y-17907674D02*
X18783753Y-17898150D01*
X18783753Y-17898150D02*
X18755182Y-17898150D01*
X18755182Y-17898150D02*
X18736134Y-17907674D01*
X18736134Y-17907674D02*
X18726611Y-17917198D01*
X18936134Y-18031484D02*
X18917087Y-18021960D01*
X18917087Y-18021960D02*
X18907563Y-18012436D01*
X18907563Y-18012436D02*
X18898039Y-17993389D01*
X18898039Y-17993389D02*
X18898039Y-17936246D01*
X18898039Y-17936246D02*
X18907563Y-17917198D01*
X18907563Y-17917198D02*
X18917087Y-17907674D01*
X18917087Y-17907674D02*
X18936134Y-17898150D01*
X18936134Y-17898150D02*
X18964706Y-17898150D01*
X18964706Y-17898150D02*
X18983753Y-17907674D01*
X18983753Y-17907674D02*
X18993277Y-17917198D01*
X18993277Y-17917198D02*
X19002801Y-17936246D01*
X19002801Y-17936246D02*
X19002801Y-17993389D01*
X19002801Y-17993389D02*
X18993277Y-18012436D01*
X18993277Y-18012436D02*
X18983753Y-18021960D01*
X18983753Y-18021960D02*
X18964706Y-18031484D01*
X18964706Y-18031484D02*
X18936134Y-18031484D01*
X19117087Y-18031484D02*
X19098039Y-18021960D01*
X19098039Y-18021960D02*
X19088515Y-18002912D01*
X19088515Y-18002912D02*
X19088515Y-17831484D01*
X19269468Y-18021960D02*
X19250420Y-18031484D01*
X19250420Y-18031484D02*
X19212325Y-18031484D01*
X19212325Y-18031484D02*
X19193277Y-18021960D01*
X19193277Y-18021960D02*
X19183753Y-18002912D01*
X19183753Y-18002912D02*
X19183753Y-17926722D01*
X19183753Y-17926722D02*
X19193277Y-17907674D01*
X19193277Y-17907674D02*
X19212325Y-17898150D01*
X19212325Y-17898150D02*
X19250420Y-17898150D01*
X19250420Y-17898150D02*
X19269468Y-17907674D01*
X19269468Y-17907674D02*
X19278992Y-17926722D01*
X19278992Y-17926722D02*
X19278992Y-17945770D01*
X19278992Y-17945770D02*
X19183753Y-17964817D01*
X19355182Y-18021960D02*
X19374230Y-18031484D01*
X19374230Y-18031484D02*
X19412325Y-18031484D01*
X19412325Y-18031484D02*
X19431373Y-18021960D01*
X19431373Y-18021960D02*
X19440896Y-18002912D01*
X19440896Y-18002912D02*
X19440896Y-17993389D01*
X19440896Y-17993389D02*
X19431373Y-17974341D01*
X19431373Y-17974341D02*
X19412325Y-17964817D01*
X19412325Y-17964817D02*
X19383753Y-17964817D01*
X19383753Y-17964817D02*
X19364706Y-17955293D01*
X19364706Y-17955293D02*
X19355182Y-17936246D01*
X19355182Y-17936246D02*
X19355182Y-17926722D01*
X19355182Y-17926722D02*
X19364706Y-17907674D01*
X19364706Y-17907674D02*
X19383753Y-17898150D01*
X19383753Y-17898150D02*
X19412325Y-17898150D01*
X19412325Y-17898150D02*
X19431373Y-17907674D01*
X19507563Y-18107674D02*
X19517087Y-18098150D01*
X19517087Y-18098150D02*
X19536134Y-18069579D01*
X19536134Y-18069579D02*
X19545658Y-18050531D01*
X19545658Y-18050531D02*
X19555182Y-18021960D01*
X19555182Y-18021960D02*
X19564706Y-17974341D01*
X19564706Y-17974341D02*
X19564706Y-17936246D01*
X19564706Y-17936246D02*
X19555182Y-17888627D01*
X19555182Y-17888627D02*
X19545658Y-17860055D01*
X19545658Y-17860055D02*
X19536134Y-17841008D01*
X19536134Y-17841008D02*
X19517087Y-17812436D01*
X19517087Y-17812436D02*
X19507563Y-17802912D01*
X19869468Y-18107674D02*
X19859944Y-18098150D01*
X19859944Y-18098150D02*
X19840896Y-18069579D01*
X19840896Y-18069579D02*
X19831373Y-18050531D01*
X19831373Y-18050531D02*
X19821849Y-18021960D01*
X19821849Y-18021960D02*
X19812325Y-17974341D01*
X19812325Y-17974341D02*
X19812325Y-17936246D01*
X19812325Y-17936246D02*
X19821849Y-17888627D01*
X19821849Y-17888627D02*
X19831373Y-17860055D01*
X19831373Y-17860055D02*
X19840896Y-17841008D01*
X19840896Y-17841008D02*
X19859944Y-17812436D01*
X19859944Y-17812436D02*
X19869468Y-17802912D01*
X19945658Y-17898150D02*
X19945658Y-18031484D01*
X19945658Y-17917198D02*
X19955182Y-17907674D01*
X19955182Y-17907674D02*
X19974230Y-17898150D01*
X19974230Y-17898150D02*
X20002801Y-17898150D01*
X20002801Y-17898150D02*
X20021849Y-17907674D01*
X20021849Y-17907674D02*
X20031373Y-17926722D01*
X20031373Y-17926722D02*
X20031373Y-18031484D01*
X20155182Y-18031484D02*
X20136134Y-18021960D01*
X20136134Y-18021960D02*
X20126611Y-18012436D01*
X20126611Y-18012436D02*
X20117087Y-17993389D01*
X20117087Y-17993389D02*
X20117087Y-17936246D01*
X20117087Y-17936246D02*
X20126611Y-17917198D01*
X20126611Y-17917198D02*
X20136134Y-17907674D01*
X20136134Y-17907674D02*
X20155182Y-17898150D01*
X20155182Y-17898150D02*
X20183754Y-17898150D01*
X20183754Y-17898150D02*
X20202801Y-17907674D01*
X20202801Y-17907674D02*
X20212325Y-17917198D01*
X20212325Y-17917198D02*
X20221849Y-17936246D01*
X20221849Y-17936246D02*
X20221849Y-17993389D01*
X20221849Y-17993389D02*
X20212325Y-18012436D01*
X20212325Y-18012436D02*
X20202801Y-18021960D01*
X20202801Y-18021960D02*
X20183754Y-18031484D01*
X20183754Y-18031484D02*
X20155182Y-18031484D01*
X20278992Y-17898150D02*
X20355182Y-17898150D01*
X20307563Y-17831484D02*
X20307563Y-18002912D01*
X20307563Y-18002912D02*
X20317087Y-18021960D01*
X20317087Y-18021960D02*
X20336134Y-18031484D01*
X20336134Y-18031484D02*
X20355182Y-18031484D01*
X20574230Y-17898150D02*
X20574230Y-18098150D01*
X20574230Y-17907674D02*
X20593277Y-17898150D01*
X20593277Y-17898150D02*
X20631373Y-17898150D01*
X20631373Y-17898150D02*
X20650420Y-17907674D01*
X20650420Y-17907674D02*
X20659944Y-17917198D01*
X20659944Y-17917198D02*
X20669468Y-17936246D01*
X20669468Y-17936246D02*
X20669468Y-17993389D01*
X20669468Y-17993389D02*
X20659944Y-18012436D01*
X20659944Y-18012436D02*
X20650420Y-18021960D01*
X20650420Y-18021960D02*
X20631373Y-18031484D01*
X20631373Y-18031484D02*
X20593277Y-18031484D01*
X20593277Y-18031484D02*
X20574230Y-18021960D01*
X20783754Y-18031484D02*
X20764706Y-18021960D01*
X20764706Y-18021960D02*
X20755182Y-18002912D01*
X20755182Y-18002912D02*
X20755182Y-17831484D01*
X20945658Y-18031484D02*
X20945658Y-17926722D01*
X20945658Y-17926722D02*
X20936135Y-17907674D01*
X20936135Y-17907674D02*
X20917087Y-17898150D01*
X20917087Y-17898150D02*
X20878992Y-17898150D01*
X20878992Y-17898150D02*
X20859944Y-17907674D01*
X20945658Y-18021960D02*
X20926611Y-18031484D01*
X20926611Y-18031484D02*
X20878992Y-18031484D01*
X20878992Y-18031484D02*
X20859944Y-18021960D01*
X20859944Y-18021960D02*
X20850420Y-18002912D01*
X20850420Y-18002912D02*
X20850420Y-17983865D01*
X20850420Y-17983865D02*
X20859944Y-17964817D01*
X20859944Y-17964817D02*
X20878992Y-17955293D01*
X20878992Y-17955293D02*
X20926611Y-17955293D01*
X20926611Y-17955293D02*
X20945658Y-17945770D01*
X21012325Y-17898150D02*
X21088515Y-17898150D01*
X21040896Y-17831484D02*
X21040896Y-18002912D01*
X21040896Y-18002912D02*
X21050420Y-18021960D01*
X21050420Y-18021960D02*
X21069468Y-18031484D01*
X21069468Y-18031484D02*
X21088515Y-18031484D01*
X21231373Y-18021960D02*
X21212325Y-18031484D01*
X21212325Y-18031484D02*
X21174230Y-18031484D01*
X21174230Y-18031484D02*
X21155182Y-18021960D01*
X21155182Y-18021960D02*
X21145658Y-18002912D01*
X21145658Y-18002912D02*
X21145658Y-17926722D01*
X21145658Y-17926722D02*
X21155182Y-17907674D01*
X21155182Y-17907674D02*
X21174230Y-17898150D01*
X21174230Y-17898150D02*
X21212325Y-17898150D01*
X21212325Y-17898150D02*
X21231373Y-17907674D01*
X21231373Y-17907674D02*
X21240896Y-17926722D01*
X21240896Y-17926722D02*
X21240896Y-17945770D01*
X21240896Y-17945770D02*
X21145658Y-17964817D01*
X21412325Y-18031484D02*
X21412325Y-17831484D01*
X21412325Y-18021960D02*
X21393277Y-18031484D01*
X21393277Y-18031484D02*
X21355182Y-18031484D01*
X21355182Y-18031484D02*
X21336135Y-18021960D01*
X21336135Y-18021960D02*
X21326611Y-18012436D01*
X21326611Y-18012436D02*
X21317087Y-17993389D01*
X21317087Y-17993389D02*
X21317087Y-17936246D01*
X21317087Y-17936246D02*
X21326611Y-17917198D01*
X21326611Y-17917198D02*
X21336135Y-17907674D01*
X21336135Y-17907674D02*
X21355182Y-17898150D01*
X21355182Y-17898150D02*
X21393277Y-17898150D01*
X21393277Y-17898150D02*
X21412325Y-17907674D01*
X21488516Y-18107674D02*
X21498039Y-18098150D01*
X21498039Y-18098150D02*
X21517087Y-18069579D01*
X21517087Y-18069579D02*
X21526611Y-18050531D01*
X21526611Y-18050531D02*
X21536135Y-18021960D01*
X21536135Y-18021960D02*
X21545658Y-17974341D01*
X21545658Y-17974341D02*
X21545658Y-17936246D01*
X21545658Y-17936246D02*
X21536135Y-17888627D01*
X21536135Y-17888627D02*
X21526611Y-17860055D01*
X21526611Y-17860055D02*
X21517087Y-17841008D01*
X21517087Y-17841008D02*
X21498039Y-17812436D01*
X21498039Y-17812436D02*
X21488516Y-17802912D01*
M02*
