G04 #@! TF.GenerationSoftware,KiCad,Pcbnew,7.0.10*
G04 #@! TF.CreationDate,2024-03-07T14:57:28-05:00*
G04 #@! TF.ProjectId,ECE477_PCBDesign,45434534-3737-45f5-9043-424465736967,1*
G04 #@! TF.SameCoordinates,Original*
G04 #@! TF.FileFunction,Soldermask,Bot*
G04 #@! TF.FilePolarity,Negative*
%FSLAX46Y46*%
G04 Gerber Fmt 4.6, Leading zero omitted, Abs format (unit mm)*
G04 Created by KiCad (PCBNEW 7.0.10) date 2024-03-07 14:57:28*
%MOMM*%
%LPD*%
G01*
G04 APERTURE LIST*
G04 Aperture macros list*
%AMRoundRect*
0 Rectangle with rounded corners*
0 $1 Rounding radius*
0 $2 $3 $4 $5 $6 $7 $8 $9 X,Y pos of 4 corners*
0 Add a 4 corners polygon primitive as box body*
4,1,4,$2,$3,$4,$5,$6,$7,$8,$9,$2,$3,0*
0 Add four circle primitives for the rounded corners*
1,1,$1+$1,$2,$3*
1,1,$1+$1,$4,$5*
1,1,$1+$1,$6,$7*
1,1,$1+$1,$8,$9*
0 Add four rect primitives between the rounded corners*
20,1,$1+$1,$2,$3,$4,$5,0*
20,1,$1+$1,$4,$5,$6,$7,0*
20,1,$1+$1,$6,$7,$8,$9,0*
20,1,$1+$1,$8,$9,$2,$3,0*%
G04 Aperture macros list end*
%ADD10R,1.700000X1.700000*%
%ADD11O,1.700000X1.700000*%
%ADD12RoundRect,0.250000X-0.750000X0.600000X-0.750000X-0.600000X0.750000X-0.600000X0.750000X0.600000X0*%
%ADD13O,2.000000X1.700000*%
%ADD14RoundRect,0.250000X-0.600000X-0.750000X0.600000X-0.750000X0.600000X0.750000X-0.600000X0.750000X0*%
%ADD15O,1.700000X2.000000*%
%ADD16RoundRect,0.250000X0.600000X0.750000X-0.600000X0.750000X-0.600000X-0.750000X0.600000X-0.750000X0*%
%ADD17C,1.700000*%
%ADD18C,1.320800*%
%ADD19C,3.200000*%
%ADD20O,5.000000X5.000000*%
%ADD21C,1.600000*%
%ADD22C,2.000000*%
%ADD23RoundRect,0.250000X-0.337500X-0.475000X0.337500X-0.475000X0.337500X0.475000X-0.337500X0.475000X0*%
%ADD24RoundRect,0.250000X1.000000X0.650000X-1.000000X0.650000X-1.000000X-0.650000X1.000000X-0.650000X0*%
%ADD25RoundRect,0.250000X-0.350000X-0.450000X0.350000X-0.450000X0.350000X0.450000X-0.350000X0.450000X0*%
%ADD26RoundRect,0.250000X0.350000X0.450000X-0.350000X0.450000X-0.350000X-0.450000X0.350000X-0.450000X0*%
%ADD27RoundRect,0.250000X-0.450000X0.350000X-0.450000X-0.350000X0.450000X-0.350000X0.450000X0.350000X0*%
%ADD28RoundRect,0.218750X0.218750X0.256250X-0.218750X0.256250X-0.218750X-0.256250X0.218750X-0.256250X0*%
%ADD29RoundRect,0.250000X0.475000X-0.337500X0.475000X0.337500X-0.475000X0.337500X-0.475000X-0.337500X0*%
%ADD30RoundRect,0.250000X0.450000X-0.350000X0.450000X0.350000X-0.450000X0.350000X-0.450000X-0.350000X0*%
%ADD31RoundRect,0.250000X0.337500X0.475000X-0.337500X0.475000X-0.337500X-0.475000X0.337500X-0.475000X0*%
%ADD32R,0.700000X0.640000*%
%ADD33RoundRect,0.250000X0.250000X-0.250000X0.250000X0.250000X-0.250000X0.250000X-0.250000X-0.250000X0*%
%ADD34RoundRect,0.250000X0.250000X0.250000X-0.250000X0.250000X-0.250000X-0.250000X0.250000X-0.250000X0*%
%ADD35RoundRect,0.250000X-0.475000X0.337500X-0.475000X-0.337500X0.475000X-0.337500X0.475000X0.337500X0*%
%ADD36RoundRect,0.250000X-0.250000X0.250000X-0.250000X-0.250000X0.250000X-0.250000X0.250000X0.250000X0*%
%ADD37RoundRect,0.250000X0.650000X-1.000000X0.650000X1.000000X-0.650000X1.000000X-0.650000X-1.000000X0*%
%ADD38R,1.000000X1.500000*%
%ADD39RoundRect,0.150000X0.150000X-0.512500X0.150000X0.512500X-0.150000X0.512500X-0.150000X-0.512500X0*%
%ADD40RoundRect,0.250000X-0.250000X-0.250000X0.250000X-0.250000X0.250000X0.250000X-0.250000X0.250000X0*%
%ADD41R,1.117600X3.302000*%
%ADD42C,4.000000*%
%ADD43R,5.689600X6.400800*%
%ADD44RoundRect,0.250000X-0.650000X1.000000X-0.650000X-1.000000X0.650000X-1.000000X0.650000X1.000000X0*%
%ADD45RoundRect,0.250000X-1.000000X-0.650000X1.000000X-0.650000X1.000000X0.650000X-1.000000X0.650000X0*%
%ADD46C,0.600000*%
%ADD47C,0.700000*%
%ADD48C,0.500000*%
%ADD49C,0.800000*%
G04 APERTURE END LIST*
D10*
X284720000Y-128700000D03*
D11*
X284720000Y-126160000D03*
X284720000Y-123620000D03*
X284720000Y-121080000D03*
X284720000Y-118540000D03*
X284720000Y-116000000D03*
X284720000Y-113460000D03*
D12*
X152380000Y-115410000D03*
D13*
X152380000Y-117910000D03*
D14*
X196550000Y-155950000D03*
D15*
X199050000Y-155950000D03*
D16*
X162740000Y-107485000D03*
D15*
X160240000Y-107485000D03*
D10*
X163754701Y-170300000D03*
D11*
X161214701Y-170300000D03*
X158674701Y-170300000D03*
D14*
X259575000Y-164925000D03*
D15*
X262075000Y-164925000D03*
D14*
X223575000Y-155925000D03*
D15*
X226075000Y-155925000D03*
D17*
X258460000Y-109840000D03*
X258460000Y-107300000D03*
X261000000Y-109840000D03*
X261000000Y-107300000D03*
X263540000Y-109840000D03*
X263540000Y-107300000D03*
X266080000Y-109840000D03*
X266080000Y-107300000D03*
X268620000Y-109840000D03*
X268620000Y-107300000D03*
D14*
X250575000Y-164925000D03*
D15*
X253075000Y-164925000D03*
D14*
X187550000Y-155950000D03*
D15*
X190050000Y-155950000D03*
D10*
X219867184Y-105600000D03*
D11*
X222407184Y-105600000D03*
X224947184Y-105600000D03*
X227487184Y-105600000D03*
D18*
X164967400Y-115479999D03*
X164967400Y-117480001D03*
D10*
X150025000Y-152025000D03*
D11*
X150025000Y-149485000D03*
X150025000Y-146945000D03*
X150025000Y-144405000D03*
D10*
X234670000Y-105620000D03*
D11*
X237210000Y-105620000D03*
X239750000Y-105620000D03*
X242290000Y-105620000D03*
X244830000Y-105620000D03*
X247370000Y-105620000D03*
X249910000Y-105620000D03*
D19*
X152375000Y-167950000D03*
D16*
X201890000Y-107355000D03*
D15*
X199390000Y-107355000D03*
D14*
X232575000Y-155925000D03*
D15*
X235075000Y-155925000D03*
D14*
X214550000Y-155950000D03*
D15*
X217050000Y-155950000D03*
D14*
X187550000Y-164950000D03*
D15*
X190050000Y-164950000D03*
D10*
X170400000Y-115885000D03*
D11*
X170400000Y-118425000D03*
X170400000Y-120965000D03*
X170400000Y-123505000D03*
X170400000Y-126045000D03*
X170400000Y-128585000D03*
X170400000Y-131125000D03*
X170400000Y-133665000D03*
X200880000Y-118425000D03*
D10*
X200880000Y-115885000D03*
X150025000Y-156255000D03*
D11*
X150025000Y-158795000D03*
X150025000Y-161335000D03*
D14*
X241575000Y-155925000D03*
D15*
X244075000Y-155925000D03*
D16*
X282790000Y-160945000D03*
D15*
X280290000Y-160945000D03*
D14*
X205550000Y-155950000D03*
D15*
X208050000Y-155950000D03*
D20*
X277325000Y-144250000D03*
D16*
X254680000Y-124985000D03*
D15*
X252180000Y-124985000D03*
D21*
X184787500Y-119537500D03*
D14*
X250575000Y-155925000D03*
D15*
X253075000Y-155925000D03*
D10*
X232135000Y-143550000D03*
D11*
X234675000Y-143550000D03*
X237215000Y-143550000D03*
D14*
X259575000Y-155925000D03*
D15*
X262075000Y-155925000D03*
D19*
X282275000Y-167950000D03*
D14*
X205550000Y-164950000D03*
D15*
X208050000Y-164950000D03*
D10*
X177775000Y-170300000D03*
D11*
X175235000Y-170300000D03*
X172695000Y-170300000D03*
D14*
X223575000Y-164925000D03*
D15*
X226075000Y-164925000D03*
D19*
X282375000Y-108000000D03*
D10*
X260815000Y-142010000D03*
D11*
X263355000Y-142010000D03*
X260815000Y-144550000D03*
X263355000Y-144550000D03*
X260815000Y-147090000D03*
X263355000Y-147090000D03*
X260815000Y-149630000D03*
X263355000Y-149630000D03*
D14*
X214550000Y-164950000D03*
D15*
X217050000Y-164950000D03*
D14*
X196550000Y-164950000D03*
D15*
X199050000Y-164950000D03*
D22*
X170875000Y-110100000D03*
D10*
X160010000Y-158654299D03*
D11*
X162550000Y-158654299D03*
X165090000Y-158654299D03*
X167630000Y-158654299D03*
X170170000Y-158654299D03*
X172710000Y-158654299D03*
X175250000Y-158654299D03*
X177790000Y-158654299D03*
X180330000Y-158654299D03*
D19*
X152375000Y-107950000D03*
D14*
X241575000Y-164925000D03*
D15*
X244075000Y-164925000D03*
D14*
X232575000Y-164925000D03*
D15*
X235075000Y-164925000D03*
D10*
X269755000Y-170300000D03*
D11*
X272295000Y-170300000D03*
X274835000Y-170300000D03*
D23*
X252782500Y-134365000D03*
X254857500Y-134365000D03*
D24*
X254575000Y-159825000D03*
X250575000Y-159825000D03*
D25*
X175675000Y-117400000D03*
X177675000Y-117400000D03*
D24*
X191550000Y-168850000D03*
X187550000Y-168850000D03*
D26*
X203802500Y-109840000D03*
X201802500Y-109840000D03*
D24*
X200550000Y-159850000D03*
X196550000Y-159850000D03*
D27*
X259627500Y-133400000D03*
X259627500Y-135400000D03*
D28*
X269087500Y-112050000D03*
X267512500Y-112050000D03*
D29*
X219025000Y-140712500D03*
X219025000Y-138637500D03*
D30*
X234040000Y-133280000D03*
X234040000Y-131280000D03*
D31*
X278662500Y-136975000D03*
X276587500Y-136975000D03*
X234757500Y-137220000D03*
X232682500Y-137220000D03*
D29*
X236600000Y-120462500D03*
X236600000Y-118387500D03*
D32*
X216950000Y-136405000D03*
X216950000Y-137345000D03*
X215550000Y-137345000D03*
X215550000Y-136405000D03*
D31*
X241250000Y-118020000D03*
X239175000Y-118020000D03*
D29*
X229750000Y-140687500D03*
X229750000Y-138612500D03*
D23*
X170290000Y-105700000D03*
X172365000Y-105700000D03*
D30*
X261847500Y-135390000D03*
X261847500Y-133390000D03*
D33*
X263330000Y-114200000D03*
X263330000Y-111700000D03*
D27*
X234325000Y-117120000D03*
X234325000Y-119120000D03*
D24*
X227575000Y-168825000D03*
X223575000Y-168825000D03*
X245575000Y-159825000D03*
X241575000Y-159825000D03*
D23*
X226962500Y-131025000D03*
X229037500Y-131025000D03*
D34*
X167600000Y-155800000D03*
X165100000Y-155800000D03*
D35*
X283775000Y-136812500D03*
X283775000Y-138887500D03*
D29*
X236270000Y-133287500D03*
X236270000Y-131212500D03*
D26*
X263975000Y-168825000D03*
X261975000Y-168825000D03*
D36*
X205860000Y-109370000D03*
X205860000Y-111870000D03*
D24*
X209550000Y-159850000D03*
X205550000Y-159850000D03*
D29*
X207950000Y-111787500D03*
X207950000Y-109712500D03*
X239400000Y-113212500D03*
X239400000Y-111137500D03*
D37*
X271940000Y-112137500D03*
X271940000Y-108137500D03*
D35*
X156850000Y-127237500D03*
X156850000Y-129312500D03*
X210200000Y-109742500D03*
X210200000Y-111817500D03*
D24*
X209550000Y-168850000D03*
X205550000Y-168850000D03*
D35*
X180150000Y-142937500D03*
X180150000Y-145012500D03*
D26*
X177675000Y-115300000D03*
X175675000Y-115300000D03*
D24*
X227575000Y-159825000D03*
X223575000Y-159825000D03*
D25*
X230050000Y-116030000D03*
X232050000Y-116030000D03*
D30*
X193840000Y-118410000D03*
X193840000Y-116410000D03*
D26*
X229730000Y-144830000D03*
X227730000Y-144830000D03*
D24*
X218550000Y-168825000D03*
X214550000Y-168825000D03*
D23*
X229762500Y-113250000D03*
X231837500Y-113250000D03*
D24*
X191550000Y-159850000D03*
X187550000Y-159850000D03*
D29*
X236600000Y-116512500D03*
X236600000Y-114437500D03*
D24*
X200550000Y-168850000D03*
X196550000Y-168850000D03*
D38*
X167175000Y-143100000D03*
X168475000Y-143100000D03*
D39*
X197675000Y-118325000D03*
X195775000Y-118325000D03*
X196725000Y-116050000D03*
D38*
X182750000Y-143125000D03*
X184050000Y-143125000D03*
D40*
X207030000Y-106350000D03*
X209530000Y-106350000D03*
D31*
X160192201Y-160854299D03*
X158117201Y-160854299D03*
D27*
X178300000Y-120437500D03*
X178300000Y-122437500D03*
D23*
X252834701Y-141895000D03*
X254909701Y-141895000D03*
D25*
X238975000Y-121575000D03*
X240975000Y-121575000D03*
D24*
X254575000Y-168825000D03*
X250575000Y-168825000D03*
D35*
X265450000Y-111872500D03*
X265450000Y-113947500D03*
D24*
X218550000Y-159850000D03*
X214550000Y-159850000D03*
D41*
X173134000Y-143306800D03*
D42*
X175420000Y-149860000D03*
D43*
X175420000Y-149860000D03*
D41*
X177706000Y-143306800D03*
D26*
X169170000Y-112000000D03*
X167170000Y-112000000D03*
D30*
X219475000Y-117425000D03*
X219475000Y-115425000D03*
D26*
X190000000Y-118775000D03*
X188000000Y-118775000D03*
D30*
X222475000Y-117425000D03*
X222475000Y-115425000D03*
D44*
X197675000Y-121050000D03*
X197675000Y-125050000D03*
D27*
X186055000Y-114316000D03*
X186055000Y-116316000D03*
D24*
X236575000Y-159825000D03*
X232575000Y-159825000D03*
D30*
X175750000Y-122425000D03*
X175750000Y-120425000D03*
D25*
X252745000Y-131365000D03*
X254745000Y-131365000D03*
D24*
X236575000Y-168825000D03*
X232575000Y-168825000D03*
D26*
X264000000Y-159825000D03*
X262000000Y-159825000D03*
D35*
X275370000Y-108122500D03*
X275370000Y-110197500D03*
X170695000Y-142912500D03*
X170695000Y-144987500D03*
D34*
X215750000Y-106340000D03*
X213250000Y-106340000D03*
D35*
X229725000Y-134337500D03*
X229725000Y-136412500D03*
D26*
X232070000Y-118090000D03*
X230070000Y-118090000D03*
D45*
X209142184Y-114550000D03*
X213142184Y-114550000D03*
D26*
X169529701Y-162379299D03*
X167529701Y-162379299D03*
D30*
X186200000Y-124160000D03*
X186200000Y-122160000D03*
D24*
X245575000Y-168825000D03*
X241575000Y-168825000D03*
D31*
X228197500Y-142670000D03*
X226122500Y-142670000D03*
D30*
X241350000Y-113225000D03*
X241350000Y-111225000D03*
D46*
X167150000Y-117500000D03*
X161650000Y-117500000D03*
X161400000Y-112500000D03*
X205890000Y-142240000D03*
X208430000Y-142240000D03*
X208430000Y-137160000D03*
X205890000Y-137160000D03*
X205890000Y-139700000D03*
X208430000Y-139700000D03*
X210970000Y-139700000D03*
X170273219Y-113200171D03*
X254150000Y-147320000D03*
X193190000Y-104140000D03*
X274470000Y-127000000D03*
X186500000Y-129450000D03*
X157630000Y-147320000D03*
X172870000Y-165100000D03*
X162710000Y-147320000D03*
X266850000Y-119380000D03*
X212840000Y-162870000D03*
X246530000Y-114300000D03*
X152550000Y-122040000D03*
X205890000Y-119380000D03*
X271930000Y-165100000D03*
X151150000Y-125250000D03*
X165250000Y-152400000D03*
D47*
X234580000Y-135870000D03*
D46*
X254650000Y-162840000D03*
D48*
X192688311Y-143112060D03*
D46*
X282090000Y-132080000D03*
X226210000Y-109220000D03*
X238910000Y-170180000D03*
X284630000Y-142240000D03*
X173680000Y-133900000D03*
X205420000Y-107410000D03*
X274470000Y-139700000D03*
X203350000Y-129540000D03*
X282090000Y-149860000D03*
X271930000Y-142240000D03*
X264310000Y-127000000D03*
X271930000Y-139700000D03*
X177950000Y-104140000D03*
X198270000Y-148590000D03*
X157630000Y-165100000D03*
X229510000Y-170180000D03*
X256810000Y-142250000D03*
X157630000Y-144780000D03*
X227250000Y-136650000D03*
X195730000Y-106680000D03*
X269390000Y-139700000D03*
X220540000Y-170180000D03*
X269390000Y-132080000D03*
X241450000Y-149860000D03*
X271930000Y-149860000D03*
X170330000Y-152400000D03*
X221900000Y-162840000D03*
X178000000Y-139100000D03*
X203350000Y-124460000D03*
X199540000Y-147320000D03*
X197800000Y-162880000D03*
X203180000Y-105090000D03*
X256690000Y-149860000D03*
X254150000Y-106680000D03*
X239560000Y-132750000D03*
X155090000Y-122040000D03*
X165250000Y-124460000D03*
X224450000Y-137350000D03*
X165250000Y-132080000D03*
X242810000Y-162840000D03*
X211310000Y-155240000D03*
X162710000Y-165100000D03*
X152550000Y-154940000D03*
X256690000Y-119380000D03*
X216050000Y-116840000D03*
X216400000Y-129000000D03*
X254150000Y-114300000D03*
X228151500Y-162850000D03*
X277010000Y-149860000D03*
X233830000Y-109220000D03*
X162710000Y-129540000D03*
X238910000Y-149860000D03*
X246530000Y-111760000D03*
X221600000Y-138250000D03*
X282090000Y-147320000D03*
X230870000Y-162840000D03*
X264310000Y-124460000D03*
X279550000Y-134620000D03*
X167790000Y-149860000D03*
X254150000Y-116840000D03*
X180490000Y-149860000D03*
X181800000Y-108430000D03*
X200620000Y-162870000D03*
X254150000Y-119380000D03*
X235380000Y-118010000D03*
X224509750Y-119429500D03*
X238910000Y-142240000D03*
X156930000Y-104030000D03*
X185880000Y-162870000D03*
X208430000Y-116840000D03*
X211510000Y-170180000D03*
X162710000Y-162560000D03*
X195730000Y-104140000D03*
X221130000Y-111760000D03*
X262400000Y-129000000D03*
X226800000Y-138900000D03*
X248850000Y-162840000D03*
X274470000Y-134620000D03*
X242650000Y-112830000D03*
X229310000Y-165050000D03*
X238350000Y-115250000D03*
X155090000Y-162560000D03*
X284630000Y-144780000D03*
X209640000Y-162870000D03*
X162710000Y-124460000D03*
X239810000Y-162850000D03*
X189310000Y-104140000D03*
X170330000Y-167640000D03*
D48*
X193440000Y-143120000D03*
D46*
X284120000Y-163020000D03*
X277010000Y-127000000D03*
X160170000Y-144780000D03*
X208430000Y-129540000D03*
X271930000Y-134620000D03*
X284010000Y-156550000D03*
X177950000Y-165100000D03*
X264310000Y-137160000D03*
X227250000Y-135100000D03*
X248620000Y-104750000D03*
X224820000Y-162850000D03*
X277010000Y-119380000D03*
X269390000Y-116840000D03*
X167790000Y-127000000D03*
X264310000Y-132080000D03*
X274470000Y-104140000D03*
X274470000Y-106680000D03*
X243990000Y-149860000D03*
X188820000Y-162880000D03*
X259230000Y-121920000D03*
X213510000Y-116840000D03*
X271930000Y-104580000D03*
X175410000Y-144780000D03*
X251610000Y-147320000D03*
X256690000Y-116840000D03*
X167790000Y-147320000D03*
X284630000Y-152400000D03*
X242450000Y-121400000D03*
X167790000Y-167640000D03*
X256690000Y-114300000D03*
X232330000Y-127830000D03*
X251610000Y-119380000D03*
X251610000Y-116840000D03*
X188110000Y-146830000D03*
X282090000Y-142240000D03*
X263610000Y-153840000D03*
X271930000Y-114300000D03*
X238910000Y-144780000D03*
X179270000Y-117179000D03*
X165250000Y-121920000D03*
X277010000Y-114300000D03*
X246530000Y-116840000D03*
X251610000Y-111760000D03*
X183030000Y-165100000D03*
X191060000Y-135510000D03*
X237800000Y-139430000D03*
X217070000Y-107670000D03*
X205890000Y-129540000D03*
X228752000Y-135350000D03*
X165250000Y-149860000D03*
X162710000Y-149860000D03*
X243990000Y-124460000D03*
X236670000Y-162840000D03*
X228910000Y-127830000D03*
X203350000Y-170180000D03*
X271930000Y-124460000D03*
X266850000Y-170180000D03*
X244090000Y-128630000D03*
X246530000Y-147320000D03*
X189380000Y-148910000D03*
X177160000Y-123940000D03*
D47*
X242680000Y-118630000D03*
D46*
X277010000Y-165100000D03*
X251800000Y-153850000D03*
X183030000Y-170180000D03*
X231290000Y-109220000D03*
X247520000Y-170180000D03*
X269390000Y-124460000D03*
X274470000Y-116840000D03*
X261770000Y-170180000D03*
X157630000Y-111760000D03*
X246530000Y-149860000D03*
X157630000Y-162560000D03*
X249070000Y-149860000D03*
X195730000Y-109220000D03*
X254610000Y-153840000D03*
X282090000Y-152400000D03*
X230830000Y-153850000D03*
X254150000Y-149860000D03*
X261770000Y-104580000D03*
X203350000Y-116840000D03*
X213510000Y-111760000D03*
X203350000Y-121920000D03*
X241450000Y-144780000D03*
X224100000Y-124200000D03*
X188110000Y-114300000D03*
X284070000Y-159170000D03*
X152550000Y-157480000D03*
X249070000Y-119380000D03*
X256690000Y-137160000D03*
X183030000Y-144780000D03*
X266850000Y-104580000D03*
X165840000Y-104140000D03*
X170330000Y-149860000D03*
X190650000Y-104140000D03*
X249070000Y-111760000D03*
X277010000Y-132080000D03*
X266850000Y-167640000D03*
X161000000Y-121920000D03*
X152550000Y-160020000D03*
X258426500Y-153850000D03*
X180490000Y-147320000D03*
X266850000Y-158060000D03*
X266850000Y-127000000D03*
X269390000Y-104580000D03*
X177950000Y-127000000D03*
X271930000Y-144780000D03*
X217050000Y-153930000D03*
X279550000Y-132080000D03*
X162710000Y-134620000D03*
X271930000Y-132080000D03*
X167790000Y-104140000D03*
X193190000Y-121920000D03*
X199850000Y-122750000D03*
X277010000Y-116840000D03*
X157630000Y-157480000D03*
X199540000Y-144780000D03*
X246920000Y-137140000D03*
X193680000Y-170170000D03*
X195150000Y-128250000D03*
X259230000Y-116840000D03*
X269390000Y-165100000D03*
X235970000Y-127830000D03*
X264310000Y-104580000D03*
X205890000Y-121920000D03*
X249070000Y-116840000D03*
X251610000Y-114300000D03*
X242420000Y-116060000D03*
X282090000Y-134620000D03*
X274470000Y-165100000D03*
X256690000Y-147320000D03*
X227550000Y-129410000D03*
X190830000Y-121920000D03*
X233860000Y-162850000D03*
X195730000Y-114300000D03*
X246920000Y-134600000D03*
D48*
X194163311Y-143112060D03*
D46*
X215830000Y-162880000D03*
X216050000Y-114300000D03*
X224450000Y-135150000D03*
X259230000Y-124460000D03*
X183030000Y-162560000D03*
X228750000Y-109220000D03*
X245580000Y-153840000D03*
X277010000Y-124460000D03*
X218640000Y-162870000D03*
X157630000Y-154750000D03*
X203350000Y-114300000D03*
X259230000Y-119380000D03*
X277010000Y-104140000D03*
X193190000Y-114300000D03*
X203350000Y-119380000D03*
D47*
X241080000Y-116690000D03*
D46*
X188110000Y-148910000D03*
X206830000Y-162880000D03*
X241430000Y-133450000D03*
X160170000Y-165100000D03*
X190650000Y-114300000D03*
X180490000Y-152400000D03*
X259230000Y-170180000D03*
X246530000Y-121920000D03*
X218590000Y-111760000D03*
X165250000Y-144780000D03*
X187000000Y-135200000D03*
X224830000Y-153850000D03*
X160170000Y-104360000D03*
X180490000Y-104140000D03*
X232400000Y-119300000D03*
X284630000Y-149860000D03*
X249170000Y-128630000D03*
X190650000Y-124460000D03*
X203840000Y-162880000D03*
X189366640Y-146830000D03*
X266850000Y-165100000D03*
X264310000Y-170180000D03*
X205410000Y-105100000D03*
X279550000Y-149860000D03*
X238910000Y-147320000D03*
X202310000Y-155030000D03*
X216650000Y-141500000D03*
X264310000Y-119380000D03*
X205890000Y-124460000D03*
X256690000Y-139700000D03*
X188800000Y-153870000D03*
X194400000Y-135490000D03*
X271930000Y-116840000D03*
X266850000Y-159620000D03*
X277010000Y-111760000D03*
X282090000Y-139700000D03*
X266850000Y-116840000D03*
X200640000Y-105090000D03*
X155090000Y-124460000D03*
D48*
X191213311Y-143112060D03*
D46*
X157630000Y-152400000D03*
X231290000Y-104140000D03*
X181920000Y-115080000D03*
X198270000Y-144780000D03*
X259230000Y-104580000D03*
X260800000Y-153850000D03*
X165250000Y-134620000D03*
X155090000Y-160020000D03*
X277010000Y-167640000D03*
X277010000Y-106680000D03*
X183030000Y-147320000D03*
X157630000Y-134620000D03*
X246530000Y-124460000D03*
X266850000Y-162560000D03*
X241450000Y-124460000D03*
X181970000Y-117510000D03*
X175300000Y-139050000D03*
X152550000Y-162560000D03*
X246530000Y-144780000D03*
X246530000Y-119380000D03*
X264310000Y-116840000D03*
X216340000Y-104740000D03*
X205890000Y-144780000D03*
X183030000Y-104140000D03*
X175410000Y-127000000D03*
X162710000Y-104360000D03*
X216770000Y-123350000D03*
X241450000Y-147320000D03*
X269800000Y-122100000D03*
X194820000Y-162870000D03*
X256690000Y-104580000D03*
X282090000Y-144780000D03*
X279550000Y-139700000D03*
X243540000Y-104750000D03*
X249070000Y-121920000D03*
X157620000Y-119770000D03*
X157630000Y-122040000D03*
X167790000Y-152400000D03*
X246920000Y-139680000D03*
X181900000Y-121000000D03*
X251610000Y-104140000D03*
X227248500Y-153840000D03*
X199200000Y-135250000D03*
X233830000Y-104140000D03*
X175410000Y-142240000D03*
X175410000Y-104140000D03*
X277010000Y-170180000D03*
X263650000Y-162840000D03*
X239780000Y-153840000D03*
X238460000Y-104750000D03*
X198100000Y-105090000D03*
X277010000Y-134620000D03*
X222850000Y-120200000D03*
X236370000Y-134620000D03*
X284630000Y-147320000D03*
X236630000Y-153850000D03*
X183030000Y-167640000D03*
X233820000Y-153860000D03*
D47*
X236350000Y-137850000D03*
D46*
X242770000Y-153850000D03*
X251840000Y-162840000D03*
X246630000Y-128630000D03*
X167790000Y-170180000D03*
X271930000Y-147320000D03*
X216050000Y-111760000D03*
X157630000Y-124460000D03*
X241000000Y-104750000D03*
X251610000Y-149860000D03*
X221073500Y-129728500D03*
X237800000Y-112950000D03*
X193280000Y-155140000D03*
X245620000Y-162850000D03*
X246080000Y-104750000D03*
X191680000Y-162880000D03*
X238910000Y-124460000D03*
X177950000Y-136430000D03*
X256690000Y-132080000D03*
X172870000Y-104140000D03*
X185570000Y-160020000D03*
X173660000Y-132250000D03*
X185570000Y-170180000D03*
X190650000Y-127000000D03*
X210970000Y-142240000D03*
X274470000Y-114300000D03*
X238970000Y-127830000D03*
X254150000Y-104580000D03*
X248810000Y-153840000D03*
X274470000Y-132080000D03*
X228050000Y-121700000D03*
X256690000Y-170180000D03*
X186060000Y-104140000D03*
X249070000Y-114300000D03*
X165250000Y-129540000D03*
X216650000Y-143500000D03*
X160170000Y-162560000D03*
X249070000Y-147320000D03*
D48*
X191913311Y-143112060D03*
D49*
X190413311Y-142087060D03*
D46*
X190413311Y-144712060D03*
X170275000Y-107075000D03*
X195440000Y-148010000D03*
X195438311Y-141960000D03*
D49*
X204410000Y-111960000D03*
X261490000Y-111726500D03*
X230950000Y-127000000D03*
X200880000Y-125030000D03*
X194450000Y-111900000D03*
X261500000Y-127000000D03*
X223125000Y-127000000D03*
X212390000Y-110034771D03*
X244445000Y-107350000D03*
D46*
X233260000Y-115046997D03*
X228900000Y-137500000D03*
X237767500Y-131212500D03*
D47*
X234325000Y-120325000D03*
X227150000Y-132250000D03*
X283770000Y-135360000D03*
X184050000Y-149540000D03*
X201313311Y-143787060D03*
X238233818Y-117858248D03*
X228150000Y-140525000D03*
X244025000Y-140690000D03*
X232730000Y-133290000D03*
X217440000Y-140500000D03*
X238250000Y-116213500D03*
X188170000Y-113300000D03*
X155425000Y-127425000D03*
X215590000Y-127807000D03*
D46*
X224375000Y-121400000D03*
D47*
X222473600Y-112200000D03*
X244025000Y-148925000D03*
D46*
X215600000Y-126243000D03*
X236600000Y-121700000D03*
D47*
X228150000Y-134500000D03*
X229400000Y-112200000D03*
X232731500Y-135840000D03*
X215550000Y-140500000D03*
X230750000Y-120300000D03*
X215590000Y-135290000D03*
D46*
X242450000Y-111312500D03*
X256090000Y-131360000D03*
X254674701Y-132830000D03*
X266729000Y-131360000D03*
X262137500Y-131360000D03*
X167620299Y-160982000D03*
X211017184Y-108610000D03*
X210734593Y-106300674D03*
X211624000Y-109214500D03*
X211975254Y-106292438D03*
D49*
X168850000Y-140175000D03*
X182863311Y-140212060D03*
X178140000Y-111110000D03*
X180275000Y-122350000D03*
X180275000Y-116475000D03*
D46*
X268810000Y-144550000D03*
X216975000Y-118846628D03*
X208617184Y-118825000D03*
X217675000Y-118220500D03*
X214123084Y-118220500D03*
X254734701Y-140370000D03*
X262137500Y-138700000D03*
X221825000Y-151775000D03*
X224825000Y-151800000D03*
X227825000Y-152454500D03*
X230825000Y-151850000D03*
X213725000Y-143368000D03*
X213725000Y-137275000D03*
X214475000Y-143972500D03*
X214475000Y-137895500D03*
X268880000Y-142010000D03*
X265526500Y-142010000D03*
X234450000Y-112175000D03*
X220639880Y-139804500D03*
X227220000Y-115220500D03*
X226049720Y-115840000D03*
X221175000Y-139200000D03*
X229145612Y-121726672D03*
X229950000Y-119340000D03*
X235450000Y-108107000D03*
X235450000Y-112200000D03*
X236860000Y-113160000D03*
X236860000Y-108783500D03*
X282505000Y-156865000D03*
X268810000Y-147090000D03*
X268810000Y-149630000D03*
X259857500Y-132050000D03*
X263370000Y-133490000D03*
X266124500Y-135310000D03*
X263370000Y-135310000D03*
X259857500Y-136760000D03*
D48*
X175250946Y-155470500D03*
D46*
X183050946Y-156645500D03*
X150300000Y-126300000D03*
X163250000Y-136775000D03*
X219900000Y-133500000D03*
X153967500Y-136775000D03*
X161190000Y-137387000D03*
X153363000Y-137325000D03*
X150325000Y-128500000D03*
X217425000Y-134500000D03*
X150300000Y-124100000D03*
X154638532Y-136170500D03*
X165300000Y-136170500D03*
X220583500Y-134274424D03*
X157080000Y-138596000D03*
X150300000Y-129600000D03*
X217400000Y-133350000D03*
X152745500Y-138550000D03*
X224150000Y-133100000D03*
X173834000Y-127275000D03*
X173862500Y-115500000D03*
X168093000Y-139270500D03*
X217425000Y-135525000D03*
X174500000Y-128585000D03*
X174500000Y-117400000D03*
X178325000Y-119275000D03*
X181500000Y-119274118D03*
X182100000Y-118675000D03*
X175775000Y-119250000D03*
X175690000Y-107450000D03*
X179100000Y-108525000D03*
X194833811Y-147050000D03*
X194833811Y-144790000D03*
X171200000Y-113190000D03*
X172003003Y-113250000D03*
X220644157Y-135344157D03*
X172000000Y-126050000D03*
X185250000Y-111900000D03*
X183280000Y-121100000D03*
X182100000Y-111900000D03*
X182075000Y-119950000D03*
X186055000Y-117221000D03*
X187150000Y-118683000D03*
X186180000Y-120980000D03*
X226254500Y-144830000D03*
X235500000Y-119120000D03*
X233260000Y-115850000D03*
X218350000Y-117325000D03*
X223700000Y-117325000D03*
X223901768Y-141172395D03*
X223545500Y-145950000D03*
X222861834Y-146450000D03*
X222907478Y-141170726D03*
X221925000Y-146814500D03*
X221910980Y-141169739D03*
X173120000Y-107314947D03*
X220325000Y-136500000D03*
X172625000Y-120967497D03*
X220800000Y-137350000D03*
X173229500Y-123505000D03*
X174502947Y-106722947D03*
X216505838Y-133345500D03*
X159140000Y-137991500D03*
D48*
X170170000Y-156000000D03*
D46*
X237975000Y-121575000D03*
X223700000Y-115525000D03*
X218350000Y-115525000D03*
X209129684Y-113037500D03*
M02*
