G04 #@! TF.GenerationSoftware,KiCad,Pcbnew,7.0.10*
G04 #@! TF.CreationDate,2024-03-07T14:57:28-05:00*
G04 #@! TF.ProjectId,ECE477_PCBDesign,45434534-3737-45f5-9043-424465736967,1*
G04 #@! TF.SameCoordinates,Original*
G04 #@! TF.FileFunction,Soldermask,Top*
G04 #@! TF.FilePolarity,Negative*
%FSLAX46Y46*%
G04 Gerber Fmt 4.6, Leading zero omitted, Abs format (unit mm)*
G04 Created by KiCad (PCBNEW 7.0.10) date 2024-03-07 14:57:28*
%MOMM*%
%LPD*%
G01*
G04 APERTURE LIST*
G04 Aperture macros list*
%AMRoundRect*
0 Rectangle with rounded corners*
0 $1 Rounding radius*
0 $2 $3 $4 $5 $6 $7 $8 $9 X,Y pos of 4 corners*
0 Add a 4 corners polygon primitive as box body*
4,1,4,$2,$3,$4,$5,$6,$7,$8,$9,$2,$3,0*
0 Add four circle primitives for the rounded corners*
1,1,$1+$1,$2,$3*
1,1,$1+$1,$4,$5*
1,1,$1+$1,$6,$7*
1,1,$1+$1,$8,$9*
0 Add four rect primitives between the rounded corners*
20,1,$1+$1,$2,$3,$4,$5,0*
20,1,$1+$1,$4,$5,$6,$7,0*
20,1,$1+$1,$6,$7,$8,$9,0*
20,1,$1+$1,$8,$9,$2,$3,0*%
G04 Aperture macros list end*
%ADD10C,0.100000*%
%ADD11C,0.010000*%
%ADD12R,1.700000X1.700000*%
%ADD13O,1.700000X1.700000*%
%ADD14R,2.489200X1.193800*%
%ADD15RoundRect,0.250000X-0.250000X-0.250000X0.250000X-0.250000X0.250000X0.250000X-0.250000X0.250000X0*%
%ADD16RoundRect,0.250000X-0.750000X0.600000X-0.750000X-0.600000X0.750000X-0.600000X0.750000X0.600000X0*%
%ADD17O,2.000000X1.700000*%
%ADD18RoundRect,0.250000X-0.600000X-0.750000X0.600000X-0.750000X0.600000X0.750000X-0.600000X0.750000X0*%
%ADD19O,1.700000X2.000000*%
%ADD20RoundRect,0.250000X0.450000X-0.350000X0.450000X0.350000X-0.450000X0.350000X-0.450000X-0.350000X0*%
%ADD21RoundRect,0.250000X0.600000X0.750000X-0.600000X0.750000X-0.600000X-0.750000X0.600000X-0.750000X0*%
%ADD22R,0.812800X0.838200*%
%ADD23R,1.701800X0.762000*%
%ADD24RoundRect,0.250000X0.450000X-0.325000X0.450000X0.325000X-0.450000X0.325000X-0.450000X-0.325000X0*%
%ADD25RoundRect,0.250000X-0.350000X-0.450000X0.350000X-0.450000X0.350000X0.450000X-0.350000X0.450000X0*%
%ADD26RoundRect,0.250000X-0.450000X0.350000X-0.450000X-0.350000X0.450000X-0.350000X0.450000X0.350000X0*%
%ADD27RoundRect,0.075000X0.662500X0.075000X-0.662500X0.075000X-0.662500X-0.075000X0.662500X-0.075000X0*%
%ADD28RoundRect,0.075000X0.075000X0.662500X-0.075000X0.662500X-0.075000X-0.662500X0.075000X-0.662500X0*%
%ADD29RoundRect,0.250000X-0.475000X0.337500X-0.475000X-0.337500X0.475000X-0.337500X0.475000X0.337500X0*%
%ADD30RoundRect,0.250000X0.350000X0.450000X-0.350000X0.450000X-0.350000X-0.450000X0.350000X-0.450000X0*%
%ADD31C,1.700000*%
%ADD32RoundRect,0.250000X-0.450000X0.325000X-0.450000X-0.325000X0.450000X-0.325000X0.450000X0.325000X0*%
%ADD33C,2.000000*%
%ADD34C,1.320800*%
%ADD35R,2.209800X0.711200*%
%ADD36RoundRect,0.150000X-0.512500X-0.150000X0.512500X-0.150000X0.512500X0.150000X-0.512500X0.150000X0*%
%ADD37C,3.200000*%
%ADD38RoundRect,0.250000X0.250000X-0.250000X0.250000X0.250000X-0.250000X0.250000X-0.250000X-0.250000X0*%
%ADD39RoundRect,0.250000X-0.325000X-0.450000X0.325000X-0.450000X0.325000X0.450000X-0.325000X0.450000X0*%
%ADD40RoundRect,0.250000X-0.337500X-0.475000X0.337500X-0.475000X0.337500X0.475000X-0.337500X0.475000X0*%
%ADD41RoundRect,0.102000X-0.450000X1.000000X-0.450000X-1.000000X0.450000X-1.000000X0.450000X1.000000X0*%
%ADD42RoundRect,0.102000X-1.000000X0.450000X-1.000000X-0.450000X1.000000X-0.450000X1.000000X0.450000X0*%
%ADD43O,5.000000X5.000000*%
%ADD44R,0.700000X0.450000*%
%ADD45RoundRect,0.218750X0.256250X-0.218750X0.256250X0.218750X-0.256250X0.218750X-0.256250X-0.218750X0*%
%ADD46RoundRect,0.062500X-0.062500X0.453500X-0.062500X-0.453500X0.062500X-0.453500X0.062500X0.453500X0*%
%ADD47RoundRect,0.062500X-0.453500X0.062500X-0.453500X-0.062500X0.453500X-0.062500X0.453500X0.062500X0*%
%ADD48C,1.600000*%
%ADD49R,1.600000X1.600000*%
%ADD50RoundRect,0.250000X0.475000X-0.337500X0.475000X0.337500X-0.475000X0.337500X-0.475000X-0.337500X0*%
%ADD51RoundRect,0.075000X0.700000X0.075000X-0.700000X0.075000X-0.700000X-0.075000X0.700000X-0.075000X0*%
%ADD52RoundRect,0.075000X0.075000X0.700000X-0.075000X0.700000X-0.075000X-0.700000X0.075000X-0.700000X0*%
%ADD53R,1.000000X1.500000*%
%ADD54RoundRect,0.076200X-0.550000X0.425000X-0.550000X-0.425000X0.550000X-0.425000X0.550000X0.425000X0*%
%ADD55RoundRect,0.076200X-0.550000X0.375000X-0.550000X-0.375000X0.550000X-0.375000X0.550000X0.375000X0*%
%ADD56RoundRect,0.076200X-0.500000X0.600000X-0.500000X-0.600000X0.500000X-0.600000X0.500000X0.600000X0*%
%ADD57RoundRect,0.076200X-0.675000X0.775000X-0.675000X-0.775000X0.675000X-0.775000X0.675000X0.775000X0*%
%ADD58RoundRect,0.076200X-0.900000X0.585000X-0.900000X-0.585000X0.900000X-0.585000X0.900000X0.585000X0*%
%ADD59RoundRect,0.076200X-0.675000X0.950000X-0.675000X-0.950000X0.675000X-0.950000X0.675000X0.950000X0*%
%ADD60RoundRect,0.102000X0.550000X-0.750000X0.550000X0.750000X-0.550000X0.750000X-0.550000X-0.750000X0*%
%ADD61RoundRect,0.102000X-0.550000X0.750000X-0.550000X-0.750000X0.550000X-0.750000X0.550000X0.750000X0*%
%ADD62R,2.158600X2.794000*%
%ADD63RoundRect,0.030200X-0.271800X0.666800X-0.271800X-0.666800X0.271800X-0.666800X0.271800X0.666800X0*%
%ADD64RoundRect,0.050000X-0.100000X0.100000X-0.100000X-0.100000X0.100000X-0.100000X0.100000X0.100000X0*%
%ADD65O,0.300000X0.950000*%
%ADD66R,0.675000X0.400000*%
%ADD67R,1.950000X2.600000*%
%ADD68RoundRect,0.102000X0.200000X0.675000X-0.200000X0.675000X-0.200000X-0.675000X0.200000X-0.675000X0*%
%ADD69RoundRect,0.102000X0.900000X0.950000X-0.900000X0.950000X-0.900000X-0.950000X0.900000X-0.950000X0*%
%ADD70RoundRect,0.102000X1.050000X0.800000X-1.050000X0.800000X-1.050000X-0.800000X1.050000X-0.800000X0*%
%ADD71RoundRect,0.102000X0.950000X0.950000X-0.950000X0.950000X-0.950000X-0.950000X0.950000X-0.950000X0*%
%ADD72RoundRect,0.250000X0.337500X0.475000X-0.337500X0.475000X-0.337500X-0.475000X0.337500X-0.475000X0*%
%ADD73C,4.000000*%
%ADD74C,0.600000*%
%ADD75C,0.700000*%
%ADD76C,0.500000*%
%ADD77C,0.800000*%
G04 APERTURE END LIST*
D10*
X191539311Y-144409560D02*
X191838311Y-144409560D01*
X191838311Y-144409560D02*
X191838311Y-143564560D01*
X191838311Y-143564560D02*
X191539311Y-143564560D01*
X191539311Y-143564560D02*
X191539311Y-144409560D01*
G36*
X191539311Y-144409560D02*
G01*
X191838311Y-144409560D01*
X191838311Y-143564560D01*
X191539311Y-143564560D01*
X191539311Y-144409560D01*
G37*
X192039311Y-144409560D02*
X192338311Y-144409560D01*
X192338311Y-144409560D02*
X192338311Y-143564560D01*
X192338311Y-143564560D02*
X192039311Y-143564560D01*
X192039311Y-143564560D02*
X192039311Y-144409560D01*
G36*
X192039311Y-144409560D02*
G01*
X192338311Y-144409560D01*
X192338311Y-143564560D01*
X192039311Y-143564560D01*
X192039311Y-144409560D01*
G37*
X192539311Y-144409560D02*
X192838311Y-144409560D01*
X192838311Y-144409560D02*
X192838311Y-143564560D01*
X192838311Y-143564560D02*
X192539311Y-143564560D01*
X192539311Y-143564560D02*
X192539311Y-144409560D01*
G36*
X192539311Y-144409560D02*
G01*
X192838311Y-144409560D01*
X192838311Y-143564560D01*
X192539311Y-143564560D01*
X192539311Y-144409560D01*
G37*
X193039311Y-144409560D02*
X193338311Y-144409560D01*
X193338311Y-144409560D02*
X193338311Y-143564560D01*
X193338311Y-143564560D02*
X193039311Y-143564560D01*
X193039311Y-143564560D02*
X193039311Y-144409560D01*
G36*
X193039311Y-144409560D02*
G01*
X193338311Y-144409560D01*
X193338311Y-143564560D01*
X193039311Y-143564560D01*
X193039311Y-144409560D01*
G37*
X193539311Y-144409560D02*
X193838311Y-144409560D01*
X193838311Y-144409560D02*
X193838311Y-143564560D01*
X193838311Y-143564560D02*
X193539311Y-143564560D01*
X193539311Y-143564560D02*
X193539311Y-144409560D01*
G36*
X193539311Y-144409560D02*
G01*
X193838311Y-144409560D01*
X193838311Y-143564560D01*
X193539311Y-143564560D01*
X193539311Y-144409560D01*
G37*
X192539311Y-143112060D02*
X192838311Y-143112060D01*
X192838311Y-143112060D02*
X192838311Y-141567060D01*
X192838311Y-141567060D02*
X192539311Y-141567060D01*
X192539311Y-141567060D02*
X192539311Y-143112060D01*
G36*
X192539311Y-143112060D02*
G01*
X192838311Y-143112060D01*
X192838311Y-141567060D01*
X192539311Y-141567060D01*
X192539311Y-143112060D01*
G37*
X192039311Y-142712060D02*
X192338311Y-142712060D01*
X192338311Y-142712060D02*
X192338311Y-141567060D01*
X192338311Y-141567060D02*
X192039311Y-141567060D01*
X192039311Y-141567060D02*
X192039311Y-142712060D01*
G36*
X192039311Y-142712060D02*
G01*
X192338311Y-142712060D01*
X192338311Y-141567060D01*
X192039311Y-141567060D01*
X192039311Y-142712060D01*
G37*
X193039311Y-142712060D02*
X193338311Y-142712060D01*
X193338311Y-142712060D02*
X193338311Y-141567060D01*
X193338311Y-141567060D02*
X193039311Y-141567060D01*
X193039311Y-141567060D02*
X193039311Y-142712060D01*
G36*
X193039311Y-142712060D02*
G01*
X193338311Y-142712060D01*
X193338311Y-141567060D01*
X193039311Y-141567060D01*
X193039311Y-142712060D01*
G37*
X193539311Y-142712060D02*
X193838311Y-142712060D01*
X193838311Y-142712060D02*
X193838311Y-141567060D01*
X193838311Y-141567060D02*
X193539311Y-141567060D01*
X193539311Y-141567060D02*
X193539311Y-142712060D01*
G36*
X193539311Y-142712060D02*
G01*
X193838311Y-142712060D01*
X193838311Y-141567060D01*
X193539311Y-141567060D01*
X193539311Y-142712060D01*
G37*
X191539311Y-142709560D02*
X191838311Y-142709560D01*
X191838311Y-142709560D02*
X191838311Y-141564560D01*
X191838311Y-141564560D02*
X191539311Y-141564560D01*
X191539311Y-141564560D02*
X191539311Y-142709560D01*
G36*
X191539311Y-142709560D02*
G01*
X191838311Y-142709560D01*
X191838311Y-141564560D01*
X191539311Y-141564560D01*
X191539311Y-142709560D01*
G37*
D11*
X191776311Y-143518060D02*
X191782311Y-143518060D01*
X191788311Y-143520060D01*
X191794311Y-143521060D01*
X191800311Y-143523060D01*
X191806311Y-143525060D01*
X191812311Y-143527060D01*
X191817311Y-143530060D01*
X191823311Y-143533060D01*
X191828311Y-143536060D01*
X191834311Y-143540060D01*
X191839311Y-143544060D01*
X191843311Y-143548060D01*
X191848311Y-143552060D01*
X191852311Y-143557060D01*
X191856311Y-143561060D01*
X191860311Y-143566060D01*
X191864311Y-143572060D01*
X191867311Y-143577060D01*
X191870311Y-143583060D01*
X191873311Y-143588060D01*
X191875311Y-143594060D01*
X191877311Y-143600060D01*
X191879311Y-143606060D01*
X191880311Y-143612060D01*
X191882311Y-143618060D01*
X191882311Y-143624060D01*
X191883311Y-143631060D01*
X191883311Y-143637060D01*
X191883311Y-144137060D01*
X191883311Y-144143060D01*
X191882311Y-144150060D01*
X191882311Y-144156060D01*
X191880311Y-144162060D01*
X191879311Y-144168060D01*
X191877311Y-144174060D01*
X191875311Y-144180060D01*
X191873311Y-144186060D01*
X191870311Y-144191060D01*
X191867311Y-144197060D01*
X191864311Y-144202060D01*
X191860311Y-144208060D01*
X191856311Y-144213060D01*
X191852311Y-144217060D01*
X191848311Y-144222060D01*
X191843311Y-144226060D01*
X191839311Y-144230060D01*
X191834311Y-144234060D01*
X191828311Y-144238060D01*
X191823311Y-144241060D01*
X191817311Y-144244060D01*
X191812311Y-144247060D01*
X191806311Y-144249060D01*
X191800311Y-144251060D01*
X191794311Y-144253060D01*
X191788311Y-144254060D01*
X191782311Y-144256060D01*
X191776311Y-144256060D01*
X191769311Y-144257060D01*
X191763311Y-144257060D01*
X191613311Y-144257060D01*
X191607311Y-144257060D01*
X191600311Y-144256060D01*
X191594311Y-144256060D01*
X191588311Y-144254060D01*
X191582311Y-144253060D01*
X191576311Y-144251060D01*
X191570311Y-144249060D01*
X191564311Y-144247060D01*
X191559311Y-144244060D01*
X191553311Y-144241060D01*
X191548311Y-144238060D01*
X191542311Y-144234060D01*
X191537311Y-144230060D01*
X191533311Y-144226060D01*
X191528311Y-144222060D01*
X191524311Y-144217060D01*
X191520311Y-144213060D01*
X191516311Y-144208060D01*
X191512311Y-144202060D01*
X191509311Y-144197060D01*
X191506311Y-144191060D01*
X191503311Y-144186060D01*
X191501311Y-144180060D01*
X191499311Y-144174060D01*
X191497311Y-144168060D01*
X191496311Y-144162060D01*
X191494311Y-144156060D01*
X191494311Y-144150060D01*
X191493311Y-144143060D01*
X191493311Y-144137060D01*
X191493311Y-143637060D01*
X191493311Y-143631060D01*
X191494311Y-143624060D01*
X191494311Y-143618060D01*
X191496311Y-143612060D01*
X191497311Y-143606060D01*
X191499311Y-143600060D01*
X191501311Y-143594060D01*
X191503311Y-143588060D01*
X191506311Y-143583060D01*
X191509311Y-143577060D01*
X191512311Y-143572060D01*
X191516311Y-143566060D01*
X191520311Y-143561060D01*
X191524311Y-143557060D01*
X191528311Y-143552060D01*
X191533311Y-143548060D01*
X191537311Y-143544060D01*
X191542311Y-143540060D01*
X191548311Y-143536060D01*
X191553311Y-143533060D01*
X191559311Y-143530060D01*
X191564311Y-143527060D01*
X191570311Y-143525060D01*
X191576311Y-143523060D01*
X191582311Y-143521060D01*
X191588311Y-143520060D01*
X191594311Y-143518060D01*
X191600311Y-143518060D01*
X191607311Y-143517060D01*
X191613311Y-143517060D01*
X191763311Y-143517060D01*
X191769311Y-143517060D01*
X191776311Y-143518060D01*
G36*
X191776311Y-143518060D02*
G01*
X191782311Y-143518060D01*
X191788311Y-143520060D01*
X191794311Y-143521060D01*
X191800311Y-143523060D01*
X191806311Y-143525060D01*
X191812311Y-143527060D01*
X191817311Y-143530060D01*
X191823311Y-143533060D01*
X191828311Y-143536060D01*
X191834311Y-143540060D01*
X191839311Y-143544060D01*
X191843311Y-143548060D01*
X191848311Y-143552060D01*
X191852311Y-143557060D01*
X191856311Y-143561060D01*
X191860311Y-143566060D01*
X191864311Y-143572060D01*
X191867311Y-143577060D01*
X191870311Y-143583060D01*
X191873311Y-143588060D01*
X191875311Y-143594060D01*
X191877311Y-143600060D01*
X191879311Y-143606060D01*
X191880311Y-143612060D01*
X191882311Y-143618060D01*
X191882311Y-143624060D01*
X191883311Y-143631060D01*
X191883311Y-143637060D01*
X191883311Y-144137060D01*
X191883311Y-144143060D01*
X191882311Y-144150060D01*
X191882311Y-144156060D01*
X191880311Y-144162060D01*
X191879311Y-144168060D01*
X191877311Y-144174060D01*
X191875311Y-144180060D01*
X191873311Y-144186060D01*
X191870311Y-144191060D01*
X191867311Y-144197060D01*
X191864311Y-144202060D01*
X191860311Y-144208060D01*
X191856311Y-144213060D01*
X191852311Y-144217060D01*
X191848311Y-144222060D01*
X191843311Y-144226060D01*
X191839311Y-144230060D01*
X191834311Y-144234060D01*
X191828311Y-144238060D01*
X191823311Y-144241060D01*
X191817311Y-144244060D01*
X191812311Y-144247060D01*
X191806311Y-144249060D01*
X191800311Y-144251060D01*
X191794311Y-144253060D01*
X191788311Y-144254060D01*
X191782311Y-144256060D01*
X191776311Y-144256060D01*
X191769311Y-144257060D01*
X191763311Y-144257060D01*
X191613311Y-144257060D01*
X191607311Y-144257060D01*
X191600311Y-144256060D01*
X191594311Y-144256060D01*
X191588311Y-144254060D01*
X191582311Y-144253060D01*
X191576311Y-144251060D01*
X191570311Y-144249060D01*
X191564311Y-144247060D01*
X191559311Y-144244060D01*
X191553311Y-144241060D01*
X191548311Y-144238060D01*
X191542311Y-144234060D01*
X191537311Y-144230060D01*
X191533311Y-144226060D01*
X191528311Y-144222060D01*
X191524311Y-144217060D01*
X191520311Y-144213060D01*
X191516311Y-144208060D01*
X191512311Y-144202060D01*
X191509311Y-144197060D01*
X191506311Y-144191060D01*
X191503311Y-144186060D01*
X191501311Y-144180060D01*
X191499311Y-144174060D01*
X191497311Y-144168060D01*
X191496311Y-144162060D01*
X191494311Y-144156060D01*
X191494311Y-144150060D01*
X191493311Y-144143060D01*
X191493311Y-144137060D01*
X191493311Y-143637060D01*
X191493311Y-143631060D01*
X191494311Y-143624060D01*
X191494311Y-143618060D01*
X191496311Y-143612060D01*
X191497311Y-143606060D01*
X191499311Y-143600060D01*
X191501311Y-143594060D01*
X191503311Y-143588060D01*
X191506311Y-143583060D01*
X191509311Y-143577060D01*
X191512311Y-143572060D01*
X191516311Y-143566060D01*
X191520311Y-143561060D01*
X191524311Y-143557060D01*
X191528311Y-143552060D01*
X191533311Y-143548060D01*
X191537311Y-143544060D01*
X191542311Y-143540060D01*
X191548311Y-143536060D01*
X191553311Y-143533060D01*
X191559311Y-143530060D01*
X191564311Y-143527060D01*
X191570311Y-143525060D01*
X191576311Y-143523060D01*
X191582311Y-143521060D01*
X191588311Y-143520060D01*
X191594311Y-143518060D01*
X191600311Y-143518060D01*
X191607311Y-143517060D01*
X191613311Y-143517060D01*
X191763311Y-143517060D01*
X191769311Y-143517060D01*
X191776311Y-143518060D01*
G37*
X192276311Y-143518060D02*
X192282311Y-143518060D01*
X192288311Y-143520060D01*
X192294311Y-143521060D01*
X192300311Y-143523060D01*
X192306311Y-143525060D01*
X192312311Y-143527060D01*
X192317311Y-143530060D01*
X192323311Y-143533060D01*
X192328311Y-143536060D01*
X192334311Y-143540060D01*
X192339311Y-143544060D01*
X192343311Y-143548060D01*
X192348311Y-143552060D01*
X192352311Y-143557060D01*
X192356311Y-143561060D01*
X192360311Y-143566060D01*
X192364311Y-143572060D01*
X192367311Y-143577060D01*
X192370311Y-143583060D01*
X192373311Y-143588060D01*
X192375311Y-143594060D01*
X192377311Y-143600060D01*
X192379311Y-143606060D01*
X192380311Y-143612060D01*
X192382311Y-143618060D01*
X192382311Y-143624060D01*
X192383311Y-143631060D01*
X192383311Y-143637060D01*
X192383311Y-144137060D01*
X192383311Y-144143060D01*
X192382311Y-144150060D01*
X192382311Y-144156060D01*
X192380311Y-144162060D01*
X192379311Y-144168060D01*
X192377311Y-144174060D01*
X192375311Y-144180060D01*
X192373311Y-144186060D01*
X192370311Y-144191060D01*
X192367311Y-144197060D01*
X192364311Y-144202060D01*
X192360311Y-144208060D01*
X192356311Y-144213060D01*
X192352311Y-144217060D01*
X192348311Y-144222060D01*
X192343311Y-144226060D01*
X192339311Y-144230060D01*
X192334311Y-144234060D01*
X192328311Y-144238060D01*
X192323311Y-144241060D01*
X192317311Y-144244060D01*
X192312311Y-144247060D01*
X192306311Y-144249060D01*
X192300311Y-144251060D01*
X192294311Y-144253060D01*
X192288311Y-144254060D01*
X192282311Y-144256060D01*
X192276311Y-144256060D01*
X192269311Y-144257060D01*
X192263311Y-144257060D01*
X192113311Y-144257060D01*
X192107311Y-144257060D01*
X192100311Y-144256060D01*
X192094311Y-144256060D01*
X192088311Y-144254060D01*
X192082311Y-144253060D01*
X192076311Y-144251060D01*
X192070311Y-144249060D01*
X192064311Y-144247060D01*
X192059311Y-144244060D01*
X192053311Y-144241060D01*
X192048311Y-144238060D01*
X192042311Y-144234060D01*
X192037311Y-144230060D01*
X192033311Y-144226060D01*
X192028311Y-144222060D01*
X192024311Y-144217060D01*
X192020311Y-144213060D01*
X192016311Y-144208060D01*
X192012311Y-144202060D01*
X192009311Y-144197060D01*
X192006311Y-144191060D01*
X192003311Y-144186060D01*
X192001311Y-144180060D01*
X191999311Y-144174060D01*
X191997311Y-144168060D01*
X191996311Y-144162060D01*
X191994311Y-144156060D01*
X191994311Y-144150060D01*
X191993311Y-144143060D01*
X191993311Y-144137060D01*
X191993311Y-143637060D01*
X191993311Y-143631060D01*
X191994311Y-143624060D01*
X191994311Y-143618060D01*
X191996311Y-143612060D01*
X191997311Y-143606060D01*
X191999311Y-143600060D01*
X192001311Y-143594060D01*
X192003311Y-143588060D01*
X192006311Y-143583060D01*
X192009311Y-143577060D01*
X192012311Y-143572060D01*
X192016311Y-143566060D01*
X192020311Y-143561060D01*
X192024311Y-143557060D01*
X192028311Y-143552060D01*
X192033311Y-143548060D01*
X192037311Y-143544060D01*
X192042311Y-143540060D01*
X192048311Y-143536060D01*
X192053311Y-143533060D01*
X192059311Y-143530060D01*
X192064311Y-143527060D01*
X192070311Y-143525060D01*
X192076311Y-143523060D01*
X192082311Y-143521060D01*
X192088311Y-143520060D01*
X192094311Y-143518060D01*
X192100311Y-143518060D01*
X192107311Y-143517060D01*
X192113311Y-143517060D01*
X192263311Y-143517060D01*
X192269311Y-143517060D01*
X192276311Y-143518060D01*
G36*
X192276311Y-143518060D02*
G01*
X192282311Y-143518060D01*
X192288311Y-143520060D01*
X192294311Y-143521060D01*
X192300311Y-143523060D01*
X192306311Y-143525060D01*
X192312311Y-143527060D01*
X192317311Y-143530060D01*
X192323311Y-143533060D01*
X192328311Y-143536060D01*
X192334311Y-143540060D01*
X192339311Y-143544060D01*
X192343311Y-143548060D01*
X192348311Y-143552060D01*
X192352311Y-143557060D01*
X192356311Y-143561060D01*
X192360311Y-143566060D01*
X192364311Y-143572060D01*
X192367311Y-143577060D01*
X192370311Y-143583060D01*
X192373311Y-143588060D01*
X192375311Y-143594060D01*
X192377311Y-143600060D01*
X192379311Y-143606060D01*
X192380311Y-143612060D01*
X192382311Y-143618060D01*
X192382311Y-143624060D01*
X192383311Y-143631060D01*
X192383311Y-143637060D01*
X192383311Y-144137060D01*
X192383311Y-144143060D01*
X192382311Y-144150060D01*
X192382311Y-144156060D01*
X192380311Y-144162060D01*
X192379311Y-144168060D01*
X192377311Y-144174060D01*
X192375311Y-144180060D01*
X192373311Y-144186060D01*
X192370311Y-144191060D01*
X192367311Y-144197060D01*
X192364311Y-144202060D01*
X192360311Y-144208060D01*
X192356311Y-144213060D01*
X192352311Y-144217060D01*
X192348311Y-144222060D01*
X192343311Y-144226060D01*
X192339311Y-144230060D01*
X192334311Y-144234060D01*
X192328311Y-144238060D01*
X192323311Y-144241060D01*
X192317311Y-144244060D01*
X192312311Y-144247060D01*
X192306311Y-144249060D01*
X192300311Y-144251060D01*
X192294311Y-144253060D01*
X192288311Y-144254060D01*
X192282311Y-144256060D01*
X192276311Y-144256060D01*
X192269311Y-144257060D01*
X192263311Y-144257060D01*
X192113311Y-144257060D01*
X192107311Y-144257060D01*
X192100311Y-144256060D01*
X192094311Y-144256060D01*
X192088311Y-144254060D01*
X192082311Y-144253060D01*
X192076311Y-144251060D01*
X192070311Y-144249060D01*
X192064311Y-144247060D01*
X192059311Y-144244060D01*
X192053311Y-144241060D01*
X192048311Y-144238060D01*
X192042311Y-144234060D01*
X192037311Y-144230060D01*
X192033311Y-144226060D01*
X192028311Y-144222060D01*
X192024311Y-144217060D01*
X192020311Y-144213060D01*
X192016311Y-144208060D01*
X192012311Y-144202060D01*
X192009311Y-144197060D01*
X192006311Y-144191060D01*
X192003311Y-144186060D01*
X192001311Y-144180060D01*
X191999311Y-144174060D01*
X191997311Y-144168060D01*
X191996311Y-144162060D01*
X191994311Y-144156060D01*
X191994311Y-144150060D01*
X191993311Y-144143060D01*
X191993311Y-144137060D01*
X191993311Y-143637060D01*
X191993311Y-143631060D01*
X191994311Y-143624060D01*
X191994311Y-143618060D01*
X191996311Y-143612060D01*
X191997311Y-143606060D01*
X191999311Y-143600060D01*
X192001311Y-143594060D01*
X192003311Y-143588060D01*
X192006311Y-143583060D01*
X192009311Y-143577060D01*
X192012311Y-143572060D01*
X192016311Y-143566060D01*
X192020311Y-143561060D01*
X192024311Y-143557060D01*
X192028311Y-143552060D01*
X192033311Y-143548060D01*
X192037311Y-143544060D01*
X192042311Y-143540060D01*
X192048311Y-143536060D01*
X192053311Y-143533060D01*
X192059311Y-143530060D01*
X192064311Y-143527060D01*
X192070311Y-143525060D01*
X192076311Y-143523060D01*
X192082311Y-143521060D01*
X192088311Y-143520060D01*
X192094311Y-143518060D01*
X192100311Y-143518060D01*
X192107311Y-143517060D01*
X192113311Y-143517060D01*
X192263311Y-143517060D01*
X192269311Y-143517060D01*
X192276311Y-143518060D01*
G37*
X192776311Y-143518060D02*
X192782311Y-143518060D01*
X192788311Y-143520060D01*
X192794311Y-143521060D01*
X192800311Y-143523060D01*
X192806311Y-143525060D01*
X192812311Y-143527060D01*
X192817311Y-143530060D01*
X192823311Y-143533060D01*
X192828311Y-143536060D01*
X192834311Y-143540060D01*
X192839311Y-143544060D01*
X192843311Y-143548060D01*
X192848311Y-143552060D01*
X192852311Y-143557060D01*
X192856311Y-143561060D01*
X192860311Y-143566060D01*
X192864311Y-143572060D01*
X192867311Y-143577060D01*
X192870311Y-143583060D01*
X192873311Y-143588060D01*
X192875311Y-143594060D01*
X192877311Y-143600060D01*
X192879311Y-143606060D01*
X192880311Y-143612060D01*
X192882311Y-143618060D01*
X192882311Y-143624060D01*
X192883311Y-143631060D01*
X192883311Y-143637060D01*
X192883311Y-144137060D01*
X192883311Y-144143060D01*
X192882311Y-144150060D01*
X192882311Y-144156060D01*
X192880311Y-144162060D01*
X192879311Y-144168060D01*
X192877311Y-144174060D01*
X192875311Y-144180060D01*
X192873311Y-144186060D01*
X192870311Y-144191060D01*
X192867311Y-144197060D01*
X192864311Y-144202060D01*
X192860311Y-144208060D01*
X192856311Y-144213060D01*
X192852311Y-144217060D01*
X192848311Y-144222060D01*
X192843311Y-144226060D01*
X192839311Y-144230060D01*
X192834311Y-144234060D01*
X192828311Y-144238060D01*
X192823311Y-144241060D01*
X192817311Y-144244060D01*
X192812311Y-144247060D01*
X192806311Y-144249060D01*
X192800311Y-144251060D01*
X192794311Y-144253060D01*
X192788311Y-144254060D01*
X192782311Y-144256060D01*
X192776311Y-144256060D01*
X192769311Y-144257060D01*
X192763311Y-144257060D01*
X192613311Y-144257060D01*
X192607311Y-144257060D01*
X192600311Y-144256060D01*
X192594311Y-144256060D01*
X192588311Y-144254060D01*
X192582311Y-144253060D01*
X192576311Y-144251060D01*
X192570311Y-144249060D01*
X192564311Y-144247060D01*
X192559311Y-144244060D01*
X192553311Y-144241060D01*
X192548311Y-144238060D01*
X192542311Y-144234060D01*
X192537311Y-144230060D01*
X192533311Y-144226060D01*
X192528311Y-144222060D01*
X192524311Y-144217060D01*
X192520311Y-144213060D01*
X192516311Y-144208060D01*
X192512311Y-144202060D01*
X192509311Y-144197060D01*
X192506311Y-144191060D01*
X192503311Y-144186060D01*
X192501311Y-144180060D01*
X192499311Y-144174060D01*
X192497311Y-144168060D01*
X192496311Y-144162060D01*
X192494311Y-144156060D01*
X192494311Y-144150060D01*
X192493311Y-144143060D01*
X192493311Y-144137060D01*
X192493311Y-143637060D01*
X192493311Y-143631060D01*
X192494311Y-143624060D01*
X192494311Y-143618060D01*
X192496311Y-143612060D01*
X192497311Y-143606060D01*
X192499311Y-143600060D01*
X192501311Y-143594060D01*
X192503311Y-143588060D01*
X192506311Y-143583060D01*
X192509311Y-143577060D01*
X192512311Y-143572060D01*
X192516311Y-143566060D01*
X192520311Y-143561060D01*
X192524311Y-143557060D01*
X192528311Y-143552060D01*
X192533311Y-143548060D01*
X192537311Y-143544060D01*
X192542311Y-143540060D01*
X192548311Y-143536060D01*
X192553311Y-143533060D01*
X192559311Y-143530060D01*
X192564311Y-143527060D01*
X192570311Y-143525060D01*
X192576311Y-143523060D01*
X192582311Y-143521060D01*
X192588311Y-143520060D01*
X192594311Y-143518060D01*
X192600311Y-143518060D01*
X192607311Y-143517060D01*
X192613311Y-143517060D01*
X192763311Y-143517060D01*
X192769311Y-143517060D01*
X192776311Y-143518060D01*
G36*
X192776311Y-143518060D02*
G01*
X192782311Y-143518060D01*
X192788311Y-143520060D01*
X192794311Y-143521060D01*
X192800311Y-143523060D01*
X192806311Y-143525060D01*
X192812311Y-143527060D01*
X192817311Y-143530060D01*
X192823311Y-143533060D01*
X192828311Y-143536060D01*
X192834311Y-143540060D01*
X192839311Y-143544060D01*
X192843311Y-143548060D01*
X192848311Y-143552060D01*
X192852311Y-143557060D01*
X192856311Y-143561060D01*
X192860311Y-143566060D01*
X192864311Y-143572060D01*
X192867311Y-143577060D01*
X192870311Y-143583060D01*
X192873311Y-143588060D01*
X192875311Y-143594060D01*
X192877311Y-143600060D01*
X192879311Y-143606060D01*
X192880311Y-143612060D01*
X192882311Y-143618060D01*
X192882311Y-143624060D01*
X192883311Y-143631060D01*
X192883311Y-143637060D01*
X192883311Y-144137060D01*
X192883311Y-144143060D01*
X192882311Y-144150060D01*
X192882311Y-144156060D01*
X192880311Y-144162060D01*
X192879311Y-144168060D01*
X192877311Y-144174060D01*
X192875311Y-144180060D01*
X192873311Y-144186060D01*
X192870311Y-144191060D01*
X192867311Y-144197060D01*
X192864311Y-144202060D01*
X192860311Y-144208060D01*
X192856311Y-144213060D01*
X192852311Y-144217060D01*
X192848311Y-144222060D01*
X192843311Y-144226060D01*
X192839311Y-144230060D01*
X192834311Y-144234060D01*
X192828311Y-144238060D01*
X192823311Y-144241060D01*
X192817311Y-144244060D01*
X192812311Y-144247060D01*
X192806311Y-144249060D01*
X192800311Y-144251060D01*
X192794311Y-144253060D01*
X192788311Y-144254060D01*
X192782311Y-144256060D01*
X192776311Y-144256060D01*
X192769311Y-144257060D01*
X192763311Y-144257060D01*
X192613311Y-144257060D01*
X192607311Y-144257060D01*
X192600311Y-144256060D01*
X192594311Y-144256060D01*
X192588311Y-144254060D01*
X192582311Y-144253060D01*
X192576311Y-144251060D01*
X192570311Y-144249060D01*
X192564311Y-144247060D01*
X192559311Y-144244060D01*
X192553311Y-144241060D01*
X192548311Y-144238060D01*
X192542311Y-144234060D01*
X192537311Y-144230060D01*
X192533311Y-144226060D01*
X192528311Y-144222060D01*
X192524311Y-144217060D01*
X192520311Y-144213060D01*
X192516311Y-144208060D01*
X192512311Y-144202060D01*
X192509311Y-144197060D01*
X192506311Y-144191060D01*
X192503311Y-144186060D01*
X192501311Y-144180060D01*
X192499311Y-144174060D01*
X192497311Y-144168060D01*
X192496311Y-144162060D01*
X192494311Y-144156060D01*
X192494311Y-144150060D01*
X192493311Y-144143060D01*
X192493311Y-144137060D01*
X192493311Y-143637060D01*
X192493311Y-143631060D01*
X192494311Y-143624060D01*
X192494311Y-143618060D01*
X192496311Y-143612060D01*
X192497311Y-143606060D01*
X192499311Y-143600060D01*
X192501311Y-143594060D01*
X192503311Y-143588060D01*
X192506311Y-143583060D01*
X192509311Y-143577060D01*
X192512311Y-143572060D01*
X192516311Y-143566060D01*
X192520311Y-143561060D01*
X192524311Y-143557060D01*
X192528311Y-143552060D01*
X192533311Y-143548060D01*
X192537311Y-143544060D01*
X192542311Y-143540060D01*
X192548311Y-143536060D01*
X192553311Y-143533060D01*
X192559311Y-143530060D01*
X192564311Y-143527060D01*
X192570311Y-143525060D01*
X192576311Y-143523060D01*
X192582311Y-143521060D01*
X192588311Y-143520060D01*
X192594311Y-143518060D01*
X192600311Y-143518060D01*
X192607311Y-143517060D01*
X192613311Y-143517060D01*
X192763311Y-143517060D01*
X192769311Y-143517060D01*
X192776311Y-143518060D01*
G37*
X193276311Y-143518060D02*
X193282311Y-143518060D01*
X193288311Y-143520060D01*
X193294311Y-143521060D01*
X193300311Y-143523060D01*
X193306311Y-143525060D01*
X193312311Y-143527060D01*
X193317311Y-143530060D01*
X193323311Y-143533060D01*
X193328311Y-143536060D01*
X193334311Y-143540060D01*
X193339311Y-143544060D01*
X193343311Y-143548060D01*
X193348311Y-143552060D01*
X193352311Y-143557060D01*
X193356311Y-143561060D01*
X193360311Y-143566060D01*
X193364311Y-143572060D01*
X193367311Y-143577060D01*
X193370311Y-143583060D01*
X193373311Y-143588060D01*
X193375311Y-143594060D01*
X193377311Y-143600060D01*
X193379311Y-143606060D01*
X193380311Y-143612060D01*
X193382311Y-143618060D01*
X193382311Y-143624060D01*
X193383311Y-143631060D01*
X193383311Y-143637060D01*
X193383311Y-144137060D01*
X193383311Y-144143060D01*
X193382311Y-144150060D01*
X193382311Y-144156060D01*
X193380311Y-144162060D01*
X193379311Y-144168060D01*
X193377311Y-144174060D01*
X193375311Y-144180060D01*
X193373311Y-144186060D01*
X193370311Y-144191060D01*
X193367311Y-144197060D01*
X193364311Y-144202060D01*
X193360311Y-144208060D01*
X193356311Y-144213060D01*
X193352311Y-144217060D01*
X193348311Y-144222060D01*
X193343311Y-144226060D01*
X193339311Y-144230060D01*
X193334311Y-144234060D01*
X193328311Y-144238060D01*
X193323311Y-144241060D01*
X193317311Y-144244060D01*
X193312311Y-144247060D01*
X193306311Y-144249060D01*
X193300311Y-144251060D01*
X193294311Y-144253060D01*
X193288311Y-144254060D01*
X193282311Y-144256060D01*
X193276311Y-144256060D01*
X193269311Y-144257060D01*
X193263311Y-144257060D01*
X193113311Y-144257060D01*
X193107311Y-144257060D01*
X193100311Y-144256060D01*
X193094311Y-144256060D01*
X193088311Y-144254060D01*
X193082311Y-144253060D01*
X193076311Y-144251060D01*
X193070311Y-144249060D01*
X193064311Y-144247060D01*
X193059311Y-144244060D01*
X193053311Y-144241060D01*
X193048311Y-144238060D01*
X193042311Y-144234060D01*
X193037311Y-144230060D01*
X193033311Y-144226060D01*
X193028311Y-144222060D01*
X193024311Y-144217060D01*
X193020311Y-144213060D01*
X193016311Y-144208060D01*
X193012311Y-144202060D01*
X193009311Y-144197060D01*
X193006311Y-144191060D01*
X193003311Y-144186060D01*
X193001311Y-144180060D01*
X192999311Y-144174060D01*
X192997311Y-144168060D01*
X192996311Y-144162060D01*
X192994311Y-144156060D01*
X192994311Y-144150060D01*
X192993311Y-144143060D01*
X192993311Y-144137060D01*
X192993311Y-143637060D01*
X192993311Y-143631060D01*
X192994311Y-143624060D01*
X192994311Y-143618060D01*
X192996311Y-143612060D01*
X192997311Y-143606060D01*
X192999311Y-143600060D01*
X193001311Y-143594060D01*
X193003311Y-143588060D01*
X193006311Y-143583060D01*
X193009311Y-143577060D01*
X193012311Y-143572060D01*
X193016311Y-143566060D01*
X193020311Y-143561060D01*
X193024311Y-143557060D01*
X193028311Y-143552060D01*
X193033311Y-143548060D01*
X193037311Y-143544060D01*
X193042311Y-143540060D01*
X193048311Y-143536060D01*
X193053311Y-143533060D01*
X193059311Y-143530060D01*
X193064311Y-143527060D01*
X193070311Y-143525060D01*
X193076311Y-143523060D01*
X193082311Y-143521060D01*
X193088311Y-143520060D01*
X193094311Y-143518060D01*
X193100311Y-143518060D01*
X193107311Y-143517060D01*
X193113311Y-143517060D01*
X193263311Y-143517060D01*
X193269311Y-143517060D01*
X193276311Y-143518060D01*
G36*
X193276311Y-143518060D02*
G01*
X193282311Y-143518060D01*
X193288311Y-143520060D01*
X193294311Y-143521060D01*
X193300311Y-143523060D01*
X193306311Y-143525060D01*
X193312311Y-143527060D01*
X193317311Y-143530060D01*
X193323311Y-143533060D01*
X193328311Y-143536060D01*
X193334311Y-143540060D01*
X193339311Y-143544060D01*
X193343311Y-143548060D01*
X193348311Y-143552060D01*
X193352311Y-143557060D01*
X193356311Y-143561060D01*
X193360311Y-143566060D01*
X193364311Y-143572060D01*
X193367311Y-143577060D01*
X193370311Y-143583060D01*
X193373311Y-143588060D01*
X193375311Y-143594060D01*
X193377311Y-143600060D01*
X193379311Y-143606060D01*
X193380311Y-143612060D01*
X193382311Y-143618060D01*
X193382311Y-143624060D01*
X193383311Y-143631060D01*
X193383311Y-143637060D01*
X193383311Y-144137060D01*
X193383311Y-144143060D01*
X193382311Y-144150060D01*
X193382311Y-144156060D01*
X193380311Y-144162060D01*
X193379311Y-144168060D01*
X193377311Y-144174060D01*
X193375311Y-144180060D01*
X193373311Y-144186060D01*
X193370311Y-144191060D01*
X193367311Y-144197060D01*
X193364311Y-144202060D01*
X193360311Y-144208060D01*
X193356311Y-144213060D01*
X193352311Y-144217060D01*
X193348311Y-144222060D01*
X193343311Y-144226060D01*
X193339311Y-144230060D01*
X193334311Y-144234060D01*
X193328311Y-144238060D01*
X193323311Y-144241060D01*
X193317311Y-144244060D01*
X193312311Y-144247060D01*
X193306311Y-144249060D01*
X193300311Y-144251060D01*
X193294311Y-144253060D01*
X193288311Y-144254060D01*
X193282311Y-144256060D01*
X193276311Y-144256060D01*
X193269311Y-144257060D01*
X193263311Y-144257060D01*
X193113311Y-144257060D01*
X193107311Y-144257060D01*
X193100311Y-144256060D01*
X193094311Y-144256060D01*
X193088311Y-144254060D01*
X193082311Y-144253060D01*
X193076311Y-144251060D01*
X193070311Y-144249060D01*
X193064311Y-144247060D01*
X193059311Y-144244060D01*
X193053311Y-144241060D01*
X193048311Y-144238060D01*
X193042311Y-144234060D01*
X193037311Y-144230060D01*
X193033311Y-144226060D01*
X193028311Y-144222060D01*
X193024311Y-144217060D01*
X193020311Y-144213060D01*
X193016311Y-144208060D01*
X193012311Y-144202060D01*
X193009311Y-144197060D01*
X193006311Y-144191060D01*
X193003311Y-144186060D01*
X193001311Y-144180060D01*
X192999311Y-144174060D01*
X192997311Y-144168060D01*
X192996311Y-144162060D01*
X192994311Y-144156060D01*
X192994311Y-144150060D01*
X192993311Y-144143060D01*
X192993311Y-144137060D01*
X192993311Y-143637060D01*
X192993311Y-143631060D01*
X192994311Y-143624060D01*
X192994311Y-143618060D01*
X192996311Y-143612060D01*
X192997311Y-143606060D01*
X192999311Y-143600060D01*
X193001311Y-143594060D01*
X193003311Y-143588060D01*
X193006311Y-143583060D01*
X193009311Y-143577060D01*
X193012311Y-143572060D01*
X193016311Y-143566060D01*
X193020311Y-143561060D01*
X193024311Y-143557060D01*
X193028311Y-143552060D01*
X193033311Y-143548060D01*
X193037311Y-143544060D01*
X193042311Y-143540060D01*
X193048311Y-143536060D01*
X193053311Y-143533060D01*
X193059311Y-143530060D01*
X193064311Y-143527060D01*
X193070311Y-143525060D01*
X193076311Y-143523060D01*
X193082311Y-143521060D01*
X193088311Y-143520060D01*
X193094311Y-143518060D01*
X193100311Y-143518060D01*
X193107311Y-143517060D01*
X193113311Y-143517060D01*
X193263311Y-143517060D01*
X193269311Y-143517060D01*
X193276311Y-143518060D01*
G37*
X193776311Y-143518060D02*
X193782311Y-143518060D01*
X193788311Y-143520060D01*
X193794311Y-143521060D01*
X193800311Y-143523060D01*
X193806311Y-143525060D01*
X193812311Y-143527060D01*
X193817311Y-143530060D01*
X193823311Y-143533060D01*
X193828311Y-143536060D01*
X193834311Y-143540060D01*
X193839311Y-143544060D01*
X193843311Y-143548060D01*
X193848311Y-143552060D01*
X193852311Y-143557060D01*
X193856311Y-143561060D01*
X193860311Y-143566060D01*
X193864311Y-143572060D01*
X193867311Y-143577060D01*
X193870311Y-143583060D01*
X193873311Y-143588060D01*
X193875311Y-143594060D01*
X193877311Y-143600060D01*
X193879311Y-143606060D01*
X193880311Y-143612060D01*
X193882311Y-143618060D01*
X193882311Y-143624060D01*
X193883311Y-143631060D01*
X193883311Y-143637060D01*
X193883311Y-144137060D01*
X193883311Y-144143060D01*
X193882311Y-144150060D01*
X193882311Y-144156060D01*
X193880311Y-144162060D01*
X193879311Y-144168060D01*
X193877311Y-144174060D01*
X193875311Y-144180060D01*
X193873311Y-144186060D01*
X193870311Y-144191060D01*
X193867311Y-144197060D01*
X193864311Y-144202060D01*
X193860311Y-144208060D01*
X193856311Y-144213060D01*
X193852311Y-144217060D01*
X193848311Y-144222060D01*
X193843311Y-144226060D01*
X193839311Y-144230060D01*
X193834311Y-144234060D01*
X193828311Y-144238060D01*
X193823311Y-144241060D01*
X193817311Y-144244060D01*
X193812311Y-144247060D01*
X193806311Y-144249060D01*
X193800311Y-144251060D01*
X193794311Y-144253060D01*
X193788311Y-144254060D01*
X193782311Y-144256060D01*
X193776311Y-144256060D01*
X193769311Y-144257060D01*
X193763311Y-144257060D01*
X193613311Y-144257060D01*
X193607311Y-144257060D01*
X193600311Y-144256060D01*
X193594311Y-144256060D01*
X193588311Y-144254060D01*
X193582311Y-144253060D01*
X193576311Y-144251060D01*
X193570311Y-144249060D01*
X193564311Y-144247060D01*
X193559311Y-144244060D01*
X193553311Y-144241060D01*
X193548311Y-144238060D01*
X193542311Y-144234060D01*
X193537311Y-144230060D01*
X193533311Y-144226060D01*
X193528311Y-144222060D01*
X193524311Y-144217060D01*
X193520311Y-144213060D01*
X193516311Y-144208060D01*
X193512311Y-144202060D01*
X193509311Y-144197060D01*
X193506311Y-144191060D01*
X193503311Y-144186060D01*
X193501311Y-144180060D01*
X193499311Y-144174060D01*
X193497311Y-144168060D01*
X193496311Y-144162060D01*
X193494311Y-144156060D01*
X193494311Y-144150060D01*
X193493311Y-144143060D01*
X193493311Y-144137060D01*
X193493311Y-143637060D01*
X193493311Y-143631060D01*
X193494311Y-143624060D01*
X193494311Y-143618060D01*
X193496311Y-143612060D01*
X193497311Y-143606060D01*
X193499311Y-143600060D01*
X193501311Y-143594060D01*
X193503311Y-143588060D01*
X193506311Y-143583060D01*
X193509311Y-143577060D01*
X193512311Y-143572060D01*
X193516311Y-143566060D01*
X193520311Y-143561060D01*
X193524311Y-143557060D01*
X193528311Y-143552060D01*
X193533311Y-143548060D01*
X193537311Y-143544060D01*
X193542311Y-143540060D01*
X193548311Y-143536060D01*
X193553311Y-143533060D01*
X193559311Y-143530060D01*
X193564311Y-143527060D01*
X193570311Y-143525060D01*
X193576311Y-143523060D01*
X193582311Y-143521060D01*
X193588311Y-143520060D01*
X193594311Y-143518060D01*
X193600311Y-143518060D01*
X193607311Y-143517060D01*
X193613311Y-143517060D01*
X193763311Y-143517060D01*
X193769311Y-143517060D01*
X193776311Y-143518060D01*
G36*
X193776311Y-143518060D02*
G01*
X193782311Y-143518060D01*
X193788311Y-143520060D01*
X193794311Y-143521060D01*
X193800311Y-143523060D01*
X193806311Y-143525060D01*
X193812311Y-143527060D01*
X193817311Y-143530060D01*
X193823311Y-143533060D01*
X193828311Y-143536060D01*
X193834311Y-143540060D01*
X193839311Y-143544060D01*
X193843311Y-143548060D01*
X193848311Y-143552060D01*
X193852311Y-143557060D01*
X193856311Y-143561060D01*
X193860311Y-143566060D01*
X193864311Y-143572060D01*
X193867311Y-143577060D01*
X193870311Y-143583060D01*
X193873311Y-143588060D01*
X193875311Y-143594060D01*
X193877311Y-143600060D01*
X193879311Y-143606060D01*
X193880311Y-143612060D01*
X193882311Y-143618060D01*
X193882311Y-143624060D01*
X193883311Y-143631060D01*
X193883311Y-143637060D01*
X193883311Y-144137060D01*
X193883311Y-144143060D01*
X193882311Y-144150060D01*
X193882311Y-144156060D01*
X193880311Y-144162060D01*
X193879311Y-144168060D01*
X193877311Y-144174060D01*
X193875311Y-144180060D01*
X193873311Y-144186060D01*
X193870311Y-144191060D01*
X193867311Y-144197060D01*
X193864311Y-144202060D01*
X193860311Y-144208060D01*
X193856311Y-144213060D01*
X193852311Y-144217060D01*
X193848311Y-144222060D01*
X193843311Y-144226060D01*
X193839311Y-144230060D01*
X193834311Y-144234060D01*
X193828311Y-144238060D01*
X193823311Y-144241060D01*
X193817311Y-144244060D01*
X193812311Y-144247060D01*
X193806311Y-144249060D01*
X193800311Y-144251060D01*
X193794311Y-144253060D01*
X193788311Y-144254060D01*
X193782311Y-144256060D01*
X193776311Y-144256060D01*
X193769311Y-144257060D01*
X193763311Y-144257060D01*
X193613311Y-144257060D01*
X193607311Y-144257060D01*
X193600311Y-144256060D01*
X193594311Y-144256060D01*
X193588311Y-144254060D01*
X193582311Y-144253060D01*
X193576311Y-144251060D01*
X193570311Y-144249060D01*
X193564311Y-144247060D01*
X193559311Y-144244060D01*
X193553311Y-144241060D01*
X193548311Y-144238060D01*
X193542311Y-144234060D01*
X193537311Y-144230060D01*
X193533311Y-144226060D01*
X193528311Y-144222060D01*
X193524311Y-144217060D01*
X193520311Y-144213060D01*
X193516311Y-144208060D01*
X193512311Y-144202060D01*
X193509311Y-144197060D01*
X193506311Y-144191060D01*
X193503311Y-144186060D01*
X193501311Y-144180060D01*
X193499311Y-144174060D01*
X193497311Y-144168060D01*
X193496311Y-144162060D01*
X193494311Y-144156060D01*
X193494311Y-144150060D01*
X193493311Y-144143060D01*
X193493311Y-144137060D01*
X193493311Y-143637060D01*
X193493311Y-143631060D01*
X193494311Y-143624060D01*
X193494311Y-143618060D01*
X193496311Y-143612060D01*
X193497311Y-143606060D01*
X193499311Y-143600060D01*
X193501311Y-143594060D01*
X193503311Y-143588060D01*
X193506311Y-143583060D01*
X193509311Y-143577060D01*
X193512311Y-143572060D01*
X193516311Y-143566060D01*
X193520311Y-143561060D01*
X193524311Y-143557060D01*
X193528311Y-143552060D01*
X193533311Y-143548060D01*
X193537311Y-143544060D01*
X193542311Y-143540060D01*
X193548311Y-143536060D01*
X193553311Y-143533060D01*
X193559311Y-143530060D01*
X193564311Y-143527060D01*
X193570311Y-143525060D01*
X193576311Y-143523060D01*
X193582311Y-143521060D01*
X193588311Y-143520060D01*
X193594311Y-143518060D01*
X193600311Y-143518060D01*
X193607311Y-143517060D01*
X193613311Y-143517060D01*
X193763311Y-143517060D01*
X193769311Y-143517060D01*
X193776311Y-143518060D01*
G37*
X191776311Y-141718060D02*
X191782311Y-141718060D01*
X191788311Y-141720060D01*
X191794311Y-141721060D01*
X191800311Y-141723060D01*
X191806311Y-141725060D01*
X191812311Y-141727060D01*
X191817311Y-141730060D01*
X191823311Y-141733060D01*
X191828311Y-141736060D01*
X191834311Y-141740060D01*
X191839311Y-141744060D01*
X191843311Y-141748060D01*
X191848311Y-141752060D01*
X191852311Y-141757060D01*
X191856311Y-141761060D01*
X191860311Y-141766060D01*
X191864311Y-141772060D01*
X191867311Y-141777060D01*
X191870311Y-141783060D01*
X191873311Y-141788060D01*
X191875311Y-141794060D01*
X191877311Y-141800060D01*
X191879311Y-141806060D01*
X191880311Y-141812060D01*
X191882311Y-141818060D01*
X191882311Y-141824060D01*
X191883311Y-141831060D01*
X191883311Y-141837060D01*
X191883311Y-142637060D01*
X191883311Y-142643060D01*
X191882311Y-142650060D01*
X191882311Y-142656060D01*
X191880311Y-142662060D01*
X191879311Y-142668060D01*
X191877311Y-142674060D01*
X191875311Y-142680060D01*
X191873311Y-142686060D01*
X191870311Y-142691060D01*
X191867311Y-142697060D01*
X191864311Y-142702060D01*
X191860311Y-142708060D01*
X191856311Y-142713060D01*
X191852311Y-142717060D01*
X191848311Y-142722060D01*
X191843311Y-142726060D01*
X191839311Y-142730060D01*
X191834311Y-142734060D01*
X191828311Y-142738060D01*
X191823311Y-142741060D01*
X191817311Y-142744060D01*
X191812311Y-142747060D01*
X191806311Y-142749060D01*
X191800311Y-142751060D01*
X191794311Y-142753060D01*
X191788311Y-142754060D01*
X191782311Y-142756060D01*
X191776311Y-142756060D01*
X191769311Y-142757060D01*
X191763311Y-142757060D01*
X191613311Y-142757060D01*
X191607311Y-142757060D01*
X191600311Y-142756060D01*
X191594311Y-142756060D01*
X191588311Y-142754060D01*
X191582311Y-142753060D01*
X191576311Y-142751060D01*
X191570311Y-142749060D01*
X191564311Y-142747060D01*
X191559311Y-142744060D01*
X191553311Y-142741060D01*
X191548311Y-142738060D01*
X191542311Y-142734060D01*
X191537311Y-142730060D01*
X191533311Y-142726060D01*
X191528311Y-142722060D01*
X191524311Y-142717060D01*
X191520311Y-142713060D01*
X191516311Y-142708060D01*
X191512311Y-142702060D01*
X191509311Y-142697060D01*
X191506311Y-142691060D01*
X191503311Y-142686060D01*
X191501311Y-142680060D01*
X191499311Y-142674060D01*
X191497311Y-142668060D01*
X191496311Y-142662060D01*
X191494311Y-142656060D01*
X191494311Y-142650060D01*
X191493311Y-142643060D01*
X191493311Y-142637060D01*
X191493311Y-141837060D01*
X191493311Y-141831060D01*
X191494311Y-141824060D01*
X191494311Y-141818060D01*
X191496311Y-141812060D01*
X191497311Y-141806060D01*
X191499311Y-141800060D01*
X191501311Y-141794060D01*
X191503311Y-141788060D01*
X191506311Y-141783060D01*
X191509311Y-141777060D01*
X191512311Y-141772060D01*
X191516311Y-141766060D01*
X191520311Y-141761060D01*
X191524311Y-141757060D01*
X191528311Y-141752060D01*
X191533311Y-141748060D01*
X191537311Y-141744060D01*
X191542311Y-141740060D01*
X191548311Y-141736060D01*
X191553311Y-141733060D01*
X191559311Y-141730060D01*
X191564311Y-141727060D01*
X191570311Y-141725060D01*
X191576311Y-141723060D01*
X191582311Y-141721060D01*
X191588311Y-141720060D01*
X191594311Y-141718060D01*
X191600311Y-141718060D01*
X191607311Y-141717060D01*
X191613311Y-141717060D01*
X191763311Y-141717060D01*
X191769311Y-141717060D01*
X191776311Y-141718060D01*
G36*
X191776311Y-141718060D02*
G01*
X191782311Y-141718060D01*
X191788311Y-141720060D01*
X191794311Y-141721060D01*
X191800311Y-141723060D01*
X191806311Y-141725060D01*
X191812311Y-141727060D01*
X191817311Y-141730060D01*
X191823311Y-141733060D01*
X191828311Y-141736060D01*
X191834311Y-141740060D01*
X191839311Y-141744060D01*
X191843311Y-141748060D01*
X191848311Y-141752060D01*
X191852311Y-141757060D01*
X191856311Y-141761060D01*
X191860311Y-141766060D01*
X191864311Y-141772060D01*
X191867311Y-141777060D01*
X191870311Y-141783060D01*
X191873311Y-141788060D01*
X191875311Y-141794060D01*
X191877311Y-141800060D01*
X191879311Y-141806060D01*
X191880311Y-141812060D01*
X191882311Y-141818060D01*
X191882311Y-141824060D01*
X191883311Y-141831060D01*
X191883311Y-141837060D01*
X191883311Y-142637060D01*
X191883311Y-142643060D01*
X191882311Y-142650060D01*
X191882311Y-142656060D01*
X191880311Y-142662060D01*
X191879311Y-142668060D01*
X191877311Y-142674060D01*
X191875311Y-142680060D01*
X191873311Y-142686060D01*
X191870311Y-142691060D01*
X191867311Y-142697060D01*
X191864311Y-142702060D01*
X191860311Y-142708060D01*
X191856311Y-142713060D01*
X191852311Y-142717060D01*
X191848311Y-142722060D01*
X191843311Y-142726060D01*
X191839311Y-142730060D01*
X191834311Y-142734060D01*
X191828311Y-142738060D01*
X191823311Y-142741060D01*
X191817311Y-142744060D01*
X191812311Y-142747060D01*
X191806311Y-142749060D01*
X191800311Y-142751060D01*
X191794311Y-142753060D01*
X191788311Y-142754060D01*
X191782311Y-142756060D01*
X191776311Y-142756060D01*
X191769311Y-142757060D01*
X191763311Y-142757060D01*
X191613311Y-142757060D01*
X191607311Y-142757060D01*
X191600311Y-142756060D01*
X191594311Y-142756060D01*
X191588311Y-142754060D01*
X191582311Y-142753060D01*
X191576311Y-142751060D01*
X191570311Y-142749060D01*
X191564311Y-142747060D01*
X191559311Y-142744060D01*
X191553311Y-142741060D01*
X191548311Y-142738060D01*
X191542311Y-142734060D01*
X191537311Y-142730060D01*
X191533311Y-142726060D01*
X191528311Y-142722060D01*
X191524311Y-142717060D01*
X191520311Y-142713060D01*
X191516311Y-142708060D01*
X191512311Y-142702060D01*
X191509311Y-142697060D01*
X191506311Y-142691060D01*
X191503311Y-142686060D01*
X191501311Y-142680060D01*
X191499311Y-142674060D01*
X191497311Y-142668060D01*
X191496311Y-142662060D01*
X191494311Y-142656060D01*
X191494311Y-142650060D01*
X191493311Y-142643060D01*
X191493311Y-142637060D01*
X191493311Y-141837060D01*
X191493311Y-141831060D01*
X191494311Y-141824060D01*
X191494311Y-141818060D01*
X191496311Y-141812060D01*
X191497311Y-141806060D01*
X191499311Y-141800060D01*
X191501311Y-141794060D01*
X191503311Y-141788060D01*
X191506311Y-141783060D01*
X191509311Y-141777060D01*
X191512311Y-141772060D01*
X191516311Y-141766060D01*
X191520311Y-141761060D01*
X191524311Y-141757060D01*
X191528311Y-141752060D01*
X191533311Y-141748060D01*
X191537311Y-141744060D01*
X191542311Y-141740060D01*
X191548311Y-141736060D01*
X191553311Y-141733060D01*
X191559311Y-141730060D01*
X191564311Y-141727060D01*
X191570311Y-141725060D01*
X191576311Y-141723060D01*
X191582311Y-141721060D01*
X191588311Y-141720060D01*
X191594311Y-141718060D01*
X191600311Y-141718060D01*
X191607311Y-141717060D01*
X191613311Y-141717060D01*
X191763311Y-141717060D01*
X191769311Y-141717060D01*
X191776311Y-141718060D01*
G37*
X192276311Y-141718060D02*
X192282311Y-141718060D01*
X192288311Y-141720060D01*
X192294311Y-141721060D01*
X192300311Y-141723060D01*
X192306311Y-141725060D01*
X192312311Y-141727060D01*
X192317311Y-141730060D01*
X192323311Y-141733060D01*
X192328311Y-141736060D01*
X192334311Y-141740060D01*
X192339311Y-141744060D01*
X192343311Y-141748060D01*
X192348311Y-141752060D01*
X192352311Y-141757060D01*
X192356311Y-141761060D01*
X192360311Y-141766060D01*
X192364311Y-141772060D01*
X192367311Y-141777060D01*
X192370311Y-141783060D01*
X192373311Y-141788060D01*
X192375311Y-141794060D01*
X192377311Y-141800060D01*
X192379311Y-141806060D01*
X192380311Y-141812060D01*
X192382311Y-141818060D01*
X192382311Y-141824060D01*
X192383311Y-141831060D01*
X192383311Y-141837060D01*
X192383311Y-142637060D01*
X192383311Y-142643060D01*
X192382311Y-142650060D01*
X192382311Y-142656060D01*
X192380311Y-142662060D01*
X192379311Y-142668060D01*
X192377311Y-142674060D01*
X192375311Y-142680060D01*
X192373311Y-142686060D01*
X192370311Y-142691060D01*
X192367311Y-142697060D01*
X192364311Y-142702060D01*
X192360311Y-142708060D01*
X192356311Y-142713060D01*
X192352311Y-142717060D01*
X192348311Y-142722060D01*
X192343311Y-142726060D01*
X192339311Y-142730060D01*
X192334311Y-142734060D01*
X192328311Y-142738060D01*
X192323311Y-142741060D01*
X192317311Y-142744060D01*
X192312311Y-142747060D01*
X192306311Y-142749060D01*
X192300311Y-142751060D01*
X192294311Y-142753060D01*
X192288311Y-142754060D01*
X192282311Y-142756060D01*
X192276311Y-142756060D01*
X192269311Y-142757060D01*
X192263311Y-142757060D01*
X192113311Y-142757060D01*
X192107311Y-142757060D01*
X192100311Y-142756060D01*
X192094311Y-142756060D01*
X192088311Y-142754060D01*
X192082311Y-142753060D01*
X192076311Y-142751060D01*
X192070311Y-142749060D01*
X192064311Y-142747060D01*
X192059311Y-142744060D01*
X192053311Y-142741060D01*
X192048311Y-142738060D01*
X192042311Y-142734060D01*
X192037311Y-142730060D01*
X192033311Y-142726060D01*
X192028311Y-142722060D01*
X192024311Y-142717060D01*
X192020311Y-142713060D01*
X192016311Y-142708060D01*
X192012311Y-142702060D01*
X192009311Y-142697060D01*
X192006311Y-142691060D01*
X192003311Y-142686060D01*
X192001311Y-142680060D01*
X191999311Y-142674060D01*
X191997311Y-142668060D01*
X191996311Y-142662060D01*
X191994311Y-142656060D01*
X191994311Y-142650060D01*
X191993311Y-142643060D01*
X191993311Y-142637060D01*
X191993311Y-141837060D01*
X191993311Y-141831060D01*
X191994311Y-141824060D01*
X191994311Y-141818060D01*
X191996311Y-141812060D01*
X191997311Y-141806060D01*
X191999311Y-141800060D01*
X192001311Y-141794060D01*
X192003311Y-141788060D01*
X192006311Y-141783060D01*
X192009311Y-141777060D01*
X192012311Y-141772060D01*
X192016311Y-141766060D01*
X192020311Y-141761060D01*
X192024311Y-141757060D01*
X192028311Y-141752060D01*
X192033311Y-141748060D01*
X192037311Y-141744060D01*
X192042311Y-141740060D01*
X192048311Y-141736060D01*
X192053311Y-141733060D01*
X192059311Y-141730060D01*
X192064311Y-141727060D01*
X192070311Y-141725060D01*
X192076311Y-141723060D01*
X192082311Y-141721060D01*
X192088311Y-141720060D01*
X192094311Y-141718060D01*
X192100311Y-141718060D01*
X192107311Y-141717060D01*
X192113311Y-141717060D01*
X192263311Y-141717060D01*
X192269311Y-141717060D01*
X192276311Y-141718060D01*
G36*
X192276311Y-141718060D02*
G01*
X192282311Y-141718060D01*
X192288311Y-141720060D01*
X192294311Y-141721060D01*
X192300311Y-141723060D01*
X192306311Y-141725060D01*
X192312311Y-141727060D01*
X192317311Y-141730060D01*
X192323311Y-141733060D01*
X192328311Y-141736060D01*
X192334311Y-141740060D01*
X192339311Y-141744060D01*
X192343311Y-141748060D01*
X192348311Y-141752060D01*
X192352311Y-141757060D01*
X192356311Y-141761060D01*
X192360311Y-141766060D01*
X192364311Y-141772060D01*
X192367311Y-141777060D01*
X192370311Y-141783060D01*
X192373311Y-141788060D01*
X192375311Y-141794060D01*
X192377311Y-141800060D01*
X192379311Y-141806060D01*
X192380311Y-141812060D01*
X192382311Y-141818060D01*
X192382311Y-141824060D01*
X192383311Y-141831060D01*
X192383311Y-141837060D01*
X192383311Y-142637060D01*
X192383311Y-142643060D01*
X192382311Y-142650060D01*
X192382311Y-142656060D01*
X192380311Y-142662060D01*
X192379311Y-142668060D01*
X192377311Y-142674060D01*
X192375311Y-142680060D01*
X192373311Y-142686060D01*
X192370311Y-142691060D01*
X192367311Y-142697060D01*
X192364311Y-142702060D01*
X192360311Y-142708060D01*
X192356311Y-142713060D01*
X192352311Y-142717060D01*
X192348311Y-142722060D01*
X192343311Y-142726060D01*
X192339311Y-142730060D01*
X192334311Y-142734060D01*
X192328311Y-142738060D01*
X192323311Y-142741060D01*
X192317311Y-142744060D01*
X192312311Y-142747060D01*
X192306311Y-142749060D01*
X192300311Y-142751060D01*
X192294311Y-142753060D01*
X192288311Y-142754060D01*
X192282311Y-142756060D01*
X192276311Y-142756060D01*
X192269311Y-142757060D01*
X192263311Y-142757060D01*
X192113311Y-142757060D01*
X192107311Y-142757060D01*
X192100311Y-142756060D01*
X192094311Y-142756060D01*
X192088311Y-142754060D01*
X192082311Y-142753060D01*
X192076311Y-142751060D01*
X192070311Y-142749060D01*
X192064311Y-142747060D01*
X192059311Y-142744060D01*
X192053311Y-142741060D01*
X192048311Y-142738060D01*
X192042311Y-142734060D01*
X192037311Y-142730060D01*
X192033311Y-142726060D01*
X192028311Y-142722060D01*
X192024311Y-142717060D01*
X192020311Y-142713060D01*
X192016311Y-142708060D01*
X192012311Y-142702060D01*
X192009311Y-142697060D01*
X192006311Y-142691060D01*
X192003311Y-142686060D01*
X192001311Y-142680060D01*
X191999311Y-142674060D01*
X191997311Y-142668060D01*
X191996311Y-142662060D01*
X191994311Y-142656060D01*
X191994311Y-142650060D01*
X191993311Y-142643060D01*
X191993311Y-142637060D01*
X191993311Y-141837060D01*
X191993311Y-141831060D01*
X191994311Y-141824060D01*
X191994311Y-141818060D01*
X191996311Y-141812060D01*
X191997311Y-141806060D01*
X191999311Y-141800060D01*
X192001311Y-141794060D01*
X192003311Y-141788060D01*
X192006311Y-141783060D01*
X192009311Y-141777060D01*
X192012311Y-141772060D01*
X192016311Y-141766060D01*
X192020311Y-141761060D01*
X192024311Y-141757060D01*
X192028311Y-141752060D01*
X192033311Y-141748060D01*
X192037311Y-141744060D01*
X192042311Y-141740060D01*
X192048311Y-141736060D01*
X192053311Y-141733060D01*
X192059311Y-141730060D01*
X192064311Y-141727060D01*
X192070311Y-141725060D01*
X192076311Y-141723060D01*
X192082311Y-141721060D01*
X192088311Y-141720060D01*
X192094311Y-141718060D01*
X192100311Y-141718060D01*
X192107311Y-141717060D01*
X192113311Y-141717060D01*
X192263311Y-141717060D01*
X192269311Y-141717060D01*
X192276311Y-141718060D01*
G37*
X192776311Y-141718060D02*
X192782311Y-141718060D01*
X192788311Y-141720060D01*
X192794311Y-141721060D01*
X192800311Y-141723060D01*
X192806311Y-141725060D01*
X192812311Y-141727060D01*
X192817311Y-141730060D01*
X192823311Y-141733060D01*
X192828311Y-141736060D01*
X192834311Y-141740060D01*
X192839311Y-141744060D01*
X192843311Y-141748060D01*
X192848311Y-141752060D01*
X192852311Y-141757060D01*
X192856311Y-141761060D01*
X192860311Y-141766060D01*
X192864311Y-141772060D01*
X192867311Y-141777060D01*
X192870311Y-141783060D01*
X192873311Y-141788060D01*
X192875311Y-141794060D01*
X192877311Y-141800060D01*
X192879311Y-141806060D01*
X192880311Y-141812060D01*
X192882311Y-141818060D01*
X192882311Y-141824060D01*
X192883311Y-141831060D01*
X192883311Y-141837060D01*
X192883311Y-143037060D01*
X192883311Y-143043060D01*
X192882311Y-143050060D01*
X192882311Y-143056060D01*
X192880311Y-143062060D01*
X192879311Y-143068060D01*
X192877311Y-143074060D01*
X192875311Y-143080060D01*
X192873311Y-143086060D01*
X192870311Y-143091060D01*
X192867311Y-143097060D01*
X192864311Y-143102060D01*
X192860311Y-143108060D01*
X192856311Y-143113060D01*
X192852311Y-143117060D01*
X192848311Y-143122060D01*
X192843311Y-143126060D01*
X192839311Y-143130060D01*
X192834311Y-143134060D01*
X192828311Y-143138060D01*
X192823311Y-143141060D01*
X192817311Y-143144060D01*
X192812311Y-143147060D01*
X192806311Y-143149060D01*
X192800311Y-143151060D01*
X192794311Y-143153060D01*
X192788311Y-143154060D01*
X192782311Y-143156060D01*
X192776311Y-143156060D01*
X192769311Y-143157060D01*
X192763311Y-143157060D01*
X192613311Y-143157060D01*
X192607311Y-143157060D01*
X192600311Y-143156060D01*
X192594311Y-143156060D01*
X192588311Y-143154060D01*
X192582311Y-143153060D01*
X192576311Y-143151060D01*
X192570311Y-143149060D01*
X192564311Y-143147060D01*
X192559311Y-143144060D01*
X192553311Y-143141060D01*
X192548311Y-143138060D01*
X192542311Y-143134060D01*
X192537311Y-143130060D01*
X192533311Y-143126060D01*
X192528311Y-143122060D01*
X192524311Y-143117060D01*
X192520311Y-143113060D01*
X192516311Y-143108060D01*
X192512311Y-143102060D01*
X192509311Y-143097060D01*
X192506311Y-143091060D01*
X192503311Y-143086060D01*
X192501311Y-143080060D01*
X192499311Y-143074060D01*
X192497311Y-143068060D01*
X192496311Y-143062060D01*
X192494311Y-143056060D01*
X192494311Y-143050060D01*
X192493311Y-143043060D01*
X192493311Y-143037060D01*
X192493311Y-141837060D01*
X192493311Y-141831060D01*
X192494311Y-141824060D01*
X192494311Y-141818060D01*
X192496311Y-141812060D01*
X192497311Y-141806060D01*
X192499311Y-141800060D01*
X192501311Y-141794060D01*
X192503311Y-141788060D01*
X192506311Y-141783060D01*
X192509311Y-141777060D01*
X192512311Y-141772060D01*
X192516311Y-141766060D01*
X192520311Y-141761060D01*
X192524311Y-141757060D01*
X192528311Y-141752060D01*
X192533311Y-141748060D01*
X192537311Y-141744060D01*
X192542311Y-141740060D01*
X192548311Y-141736060D01*
X192553311Y-141733060D01*
X192559311Y-141730060D01*
X192564311Y-141727060D01*
X192570311Y-141725060D01*
X192576311Y-141723060D01*
X192582311Y-141721060D01*
X192588311Y-141720060D01*
X192594311Y-141718060D01*
X192600311Y-141718060D01*
X192607311Y-141717060D01*
X192613311Y-141717060D01*
X192763311Y-141717060D01*
X192769311Y-141717060D01*
X192776311Y-141718060D01*
G36*
X192776311Y-141718060D02*
G01*
X192782311Y-141718060D01*
X192788311Y-141720060D01*
X192794311Y-141721060D01*
X192800311Y-141723060D01*
X192806311Y-141725060D01*
X192812311Y-141727060D01*
X192817311Y-141730060D01*
X192823311Y-141733060D01*
X192828311Y-141736060D01*
X192834311Y-141740060D01*
X192839311Y-141744060D01*
X192843311Y-141748060D01*
X192848311Y-141752060D01*
X192852311Y-141757060D01*
X192856311Y-141761060D01*
X192860311Y-141766060D01*
X192864311Y-141772060D01*
X192867311Y-141777060D01*
X192870311Y-141783060D01*
X192873311Y-141788060D01*
X192875311Y-141794060D01*
X192877311Y-141800060D01*
X192879311Y-141806060D01*
X192880311Y-141812060D01*
X192882311Y-141818060D01*
X192882311Y-141824060D01*
X192883311Y-141831060D01*
X192883311Y-141837060D01*
X192883311Y-143037060D01*
X192883311Y-143043060D01*
X192882311Y-143050060D01*
X192882311Y-143056060D01*
X192880311Y-143062060D01*
X192879311Y-143068060D01*
X192877311Y-143074060D01*
X192875311Y-143080060D01*
X192873311Y-143086060D01*
X192870311Y-143091060D01*
X192867311Y-143097060D01*
X192864311Y-143102060D01*
X192860311Y-143108060D01*
X192856311Y-143113060D01*
X192852311Y-143117060D01*
X192848311Y-143122060D01*
X192843311Y-143126060D01*
X192839311Y-143130060D01*
X192834311Y-143134060D01*
X192828311Y-143138060D01*
X192823311Y-143141060D01*
X192817311Y-143144060D01*
X192812311Y-143147060D01*
X192806311Y-143149060D01*
X192800311Y-143151060D01*
X192794311Y-143153060D01*
X192788311Y-143154060D01*
X192782311Y-143156060D01*
X192776311Y-143156060D01*
X192769311Y-143157060D01*
X192763311Y-143157060D01*
X192613311Y-143157060D01*
X192607311Y-143157060D01*
X192600311Y-143156060D01*
X192594311Y-143156060D01*
X192588311Y-143154060D01*
X192582311Y-143153060D01*
X192576311Y-143151060D01*
X192570311Y-143149060D01*
X192564311Y-143147060D01*
X192559311Y-143144060D01*
X192553311Y-143141060D01*
X192548311Y-143138060D01*
X192542311Y-143134060D01*
X192537311Y-143130060D01*
X192533311Y-143126060D01*
X192528311Y-143122060D01*
X192524311Y-143117060D01*
X192520311Y-143113060D01*
X192516311Y-143108060D01*
X192512311Y-143102060D01*
X192509311Y-143097060D01*
X192506311Y-143091060D01*
X192503311Y-143086060D01*
X192501311Y-143080060D01*
X192499311Y-143074060D01*
X192497311Y-143068060D01*
X192496311Y-143062060D01*
X192494311Y-143056060D01*
X192494311Y-143050060D01*
X192493311Y-143043060D01*
X192493311Y-143037060D01*
X192493311Y-141837060D01*
X192493311Y-141831060D01*
X192494311Y-141824060D01*
X192494311Y-141818060D01*
X192496311Y-141812060D01*
X192497311Y-141806060D01*
X192499311Y-141800060D01*
X192501311Y-141794060D01*
X192503311Y-141788060D01*
X192506311Y-141783060D01*
X192509311Y-141777060D01*
X192512311Y-141772060D01*
X192516311Y-141766060D01*
X192520311Y-141761060D01*
X192524311Y-141757060D01*
X192528311Y-141752060D01*
X192533311Y-141748060D01*
X192537311Y-141744060D01*
X192542311Y-141740060D01*
X192548311Y-141736060D01*
X192553311Y-141733060D01*
X192559311Y-141730060D01*
X192564311Y-141727060D01*
X192570311Y-141725060D01*
X192576311Y-141723060D01*
X192582311Y-141721060D01*
X192588311Y-141720060D01*
X192594311Y-141718060D01*
X192600311Y-141718060D01*
X192607311Y-141717060D01*
X192613311Y-141717060D01*
X192763311Y-141717060D01*
X192769311Y-141717060D01*
X192776311Y-141718060D01*
G37*
X193276311Y-141718060D02*
X193282311Y-141718060D01*
X193288311Y-141720060D01*
X193294311Y-141721060D01*
X193300311Y-141723060D01*
X193306311Y-141725060D01*
X193312311Y-141727060D01*
X193317311Y-141730060D01*
X193323311Y-141733060D01*
X193328311Y-141736060D01*
X193334311Y-141740060D01*
X193339311Y-141744060D01*
X193343311Y-141748060D01*
X193348311Y-141752060D01*
X193352311Y-141757060D01*
X193356311Y-141761060D01*
X193360311Y-141766060D01*
X193364311Y-141772060D01*
X193367311Y-141777060D01*
X193370311Y-141783060D01*
X193373311Y-141788060D01*
X193375311Y-141794060D01*
X193377311Y-141800060D01*
X193379311Y-141806060D01*
X193380311Y-141812060D01*
X193382311Y-141818060D01*
X193382311Y-141824060D01*
X193383311Y-141831060D01*
X193383311Y-141837060D01*
X193383311Y-142637060D01*
X193383311Y-142643060D01*
X193382311Y-142650060D01*
X193382311Y-142656060D01*
X193380311Y-142662060D01*
X193379311Y-142668060D01*
X193377311Y-142674060D01*
X193375311Y-142680060D01*
X193373311Y-142686060D01*
X193370311Y-142691060D01*
X193367311Y-142697060D01*
X193364311Y-142702060D01*
X193360311Y-142708060D01*
X193356311Y-142713060D01*
X193352311Y-142717060D01*
X193348311Y-142722060D01*
X193343311Y-142726060D01*
X193339311Y-142730060D01*
X193334311Y-142734060D01*
X193328311Y-142738060D01*
X193323311Y-142741060D01*
X193317311Y-142744060D01*
X193312311Y-142747060D01*
X193306311Y-142749060D01*
X193300311Y-142751060D01*
X193294311Y-142753060D01*
X193288311Y-142754060D01*
X193282311Y-142756060D01*
X193276311Y-142756060D01*
X193269311Y-142757060D01*
X193263311Y-142757060D01*
X193113311Y-142757060D01*
X193107311Y-142757060D01*
X193100311Y-142756060D01*
X193094311Y-142756060D01*
X193088311Y-142754060D01*
X193082311Y-142753060D01*
X193076311Y-142751060D01*
X193070311Y-142749060D01*
X193064311Y-142747060D01*
X193059311Y-142744060D01*
X193053311Y-142741060D01*
X193048311Y-142738060D01*
X193042311Y-142734060D01*
X193037311Y-142730060D01*
X193033311Y-142726060D01*
X193028311Y-142722060D01*
X193024311Y-142717060D01*
X193020311Y-142713060D01*
X193016311Y-142708060D01*
X193012311Y-142702060D01*
X193009311Y-142697060D01*
X193006311Y-142691060D01*
X193003311Y-142686060D01*
X193001311Y-142680060D01*
X192999311Y-142674060D01*
X192997311Y-142668060D01*
X192996311Y-142662060D01*
X192994311Y-142656060D01*
X192994311Y-142650060D01*
X192993311Y-142643060D01*
X192993311Y-142637060D01*
X192993311Y-141837060D01*
X192993311Y-141831060D01*
X192994311Y-141824060D01*
X192994311Y-141818060D01*
X192996311Y-141812060D01*
X192997311Y-141806060D01*
X192999311Y-141800060D01*
X193001311Y-141794060D01*
X193003311Y-141788060D01*
X193006311Y-141783060D01*
X193009311Y-141777060D01*
X193012311Y-141772060D01*
X193016311Y-141766060D01*
X193020311Y-141761060D01*
X193024311Y-141757060D01*
X193028311Y-141752060D01*
X193033311Y-141748060D01*
X193037311Y-141744060D01*
X193042311Y-141740060D01*
X193048311Y-141736060D01*
X193053311Y-141733060D01*
X193059311Y-141730060D01*
X193064311Y-141727060D01*
X193070311Y-141725060D01*
X193076311Y-141723060D01*
X193082311Y-141721060D01*
X193088311Y-141720060D01*
X193094311Y-141718060D01*
X193100311Y-141718060D01*
X193107311Y-141717060D01*
X193113311Y-141717060D01*
X193263311Y-141717060D01*
X193269311Y-141717060D01*
X193276311Y-141718060D01*
G36*
X193276311Y-141718060D02*
G01*
X193282311Y-141718060D01*
X193288311Y-141720060D01*
X193294311Y-141721060D01*
X193300311Y-141723060D01*
X193306311Y-141725060D01*
X193312311Y-141727060D01*
X193317311Y-141730060D01*
X193323311Y-141733060D01*
X193328311Y-141736060D01*
X193334311Y-141740060D01*
X193339311Y-141744060D01*
X193343311Y-141748060D01*
X193348311Y-141752060D01*
X193352311Y-141757060D01*
X193356311Y-141761060D01*
X193360311Y-141766060D01*
X193364311Y-141772060D01*
X193367311Y-141777060D01*
X193370311Y-141783060D01*
X193373311Y-141788060D01*
X193375311Y-141794060D01*
X193377311Y-141800060D01*
X193379311Y-141806060D01*
X193380311Y-141812060D01*
X193382311Y-141818060D01*
X193382311Y-141824060D01*
X193383311Y-141831060D01*
X193383311Y-141837060D01*
X193383311Y-142637060D01*
X193383311Y-142643060D01*
X193382311Y-142650060D01*
X193382311Y-142656060D01*
X193380311Y-142662060D01*
X193379311Y-142668060D01*
X193377311Y-142674060D01*
X193375311Y-142680060D01*
X193373311Y-142686060D01*
X193370311Y-142691060D01*
X193367311Y-142697060D01*
X193364311Y-142702060D01*
X193360311Y-142708060D01*
X193356311Y-142713060D01*
X193352311Y-142717060D01*
X193348311Y-142722060D01*
X193343311Y-142726060D01*
X193339311Y-142730060D01*
X193334311Y-142734060D01*
X193328311Y-142738060D01*
X193323311Y-142741060D01*
X193317311Y-142744060D01*
X193312311Y-142747060D01*
X193306311Y-142749060D01*
X193300311Y-142751060D01*
X193294311Y-142753060D01*
X193288311Y-142754060D01*
X193282311Y-142756060D01*
X193276311Y-142756060D01*
X193269311Y-142757060D01*
X193263311Y-142757060D01*
X193113311Y-142757060D01*
X193107311Y-142757060D01*
X193100311Y-142756060D01*
X193094311Y-142756060D01*
X193088311Y-142754060D01*
X193082311Y-142753060D01*
X193076311Y-142751060D01*
X193070311Y-142749060D01*
X193064311Y-142747060D01*
X193059311Y-142744060D01*
X193053311Y-142741060D01*
X193048311Y-142738060D01*
X193042311Y-142734060D01*
X193037311Y-142730060D01*
X193033311Y-142726060D01*
X193028311Y-142722060D01*
X193024311Y-142717060D01*
X193020311Y-142713060D01*
X193016311Y-142708060D01*
X193012311Y-142702060D01*
X193009311Y-142697060D01*
X193006311Y-142691060D01*
X193003311Y-142686060D01*
X193001311Y-142680060D01*
X192999311Y-142674060D01*
X192997311Y-142668060D01*
X192996311Y-142662060D01*
X192994311Y-142656060D01*
X192994311Y-142650060D01*
X192993311Y-142643060D01*
X192993311Y-142637060D01*
X192993311Y-141837060D01*
X192993311Y-141831060D01*
X192994311Y-141824060D01*
X192994311Y-141818060D01*
X192996311Y-141812060D01*
X192997311Y-141806060D01*
X192999311Y-141800060D01*
X193001311Y-141794060D01*
X193003311Y-141788060D01*
X193006311Y-141783060D01*
X193009311Y-141777060D01*
X193012311Y-141772060D01*
X193016311Y-141766060D01*
X193020311Y-141761060D01*
X193024311Y-141757060D01*
X193028311Y-141752060D01*
X193033311Y-141748060D01*
X193037311Y-141744060D01*
X193042311Y-141740060D01*
X193048311Y-141736060D01*
X193053311Y-141733060D01*
X193059311Y-141730060D01*
X193064311Y-141727060D01*
X193070311Y-141725060D01*
X193076311Y-141723060D01*
X193082311Y-141721060D01*
X193088311Y-141720060D01*
X193094311Y-141718060D01*
X193100311Y-141718060D01*
X193107311Y-141717060D01*
X193113311Y-141717060D01*
X193263311Y-141717060D01*
X193269311Y-141717060D01*
X193276311Y-141718060D01*
G37*
X193776311Y-141718060D02*
X193782311Y-141718060D01*
X193788311Y-141720060D01*
X193794311Y-141721060D01*
X193800311Y-141723060D01*
X193806311Y-141725060D01*
X193812311Y-141727060D01*
X193817311Y-141730060D01*
X193823311Y-141733060D01*
X193828311Y-141736060D01*
X193834311Y-141740060D01*
X193839311Y-141744060D01*
X193843311Y-141748060D01*
X193848311Y-141752060D01*
X193852311Y-141757060D01*
X193856311Y-141761060D01*
X193860311Y-141766060D01*
X193864311Y-141772060D01*
X193867311Y-141777060D01*
X193870311Y-141783060D01*
X193873311Y-141788060D01*
X193875311Y-141794060D01*
X193877311Y-141800060D01*
X193879311Y-141806060D01*
X193880311Y-141812060D01*
X193882311Y-141818060D01*
X193882311Y-141824060D01*
X193883311Y-141831060D01*
X193883311Y-141837060D01*
X193883311Y-142637060D01*
X193883311Y-142643060D01*
X193882311Y-142650060D01*
X193882311Y-142656060D01*
X193880311Y-142662060D01*
X193879311Y-142668060D01*
X193877311Y-142674060D01*
X193875311Y-142680060D01*
X193873311Y-142686060D01*
X193870311Y-142691060D01*
X193867311Y-142697060D01*
X193864311Y-142702060D01*
X193860311Y-142708060D01*
X193856311Y-142713060D01*
X193852311Y-142717060D01*
X193848311Y-142722060D01*
X193843311Y-142726060D01*
X193839311Y-142730060D01*
X193834311Y-142734060D01*
X193828311Y-142738060D01*
X193823311Y-142741060D01*
X193817311Y-142744060D01*
X193812311Y-142747060D01*
X193806311Y-142749060D01*
X193800311Y-142751060D01*
X193794311Y-142753060D01*
X193788311Y-142754060D01*
X193782311Y-142756060D01*
X193776311Y-142756060D01*
X193769311Y-142757060D01*
X193763311Y-142757060D01*
X193613311Y-142757060D01*
X193607311Y-142757060D01*
X193600311Y-142756060D01*
X193594311Y-142756060D01*
X193588311Y-142754060D01*
X193582311Y-142753060D01*
X193576311Y-142751060D01*
X193570311Y-142749060D01*
X193564311Y-142747060D01*
X193559311Y-142744060D01*
X193553311Y-142741060D01*
X193548311Y-142738060D01*
X193542311Y-142734060D01*
X193537311Y-142730060D01*
X193533311Y-142726060D01*
X193528311Y-142722060D01*
X193524311Y-142717060D01*
X193520311Y-142713060D01*
X193516311Y-142708060D01*
X193512311Y-142702060D01*
X193509311Y-142697060D01*
X193506311Y-142691060D01*
X193503311Y-142686060D01*
X193501311Y-142680060D01*
X193499311Y-142674060D01*
X193497311Y-142668060D01*
X193496311Y-142662060D01*
X193494311Y-142656060D01*
X193494311Y-142650060D01*
X193493311Y-142643060D01*
X193493311Y-142637060D01*
X193493311Y-141837060D01*
X193493311Y-141831060D01*
X193494311Y-141824060D01*
X193494311Y-141818060D01*
X193496311Y-141812060D01*
X193497311Y-141806060D01*
X193499311Y-141800060D01*
X193501311Y-141794060D01*
X193503311Y-141788060D01*
X193506311Y-141783060D01*
X193509311Y-141777060D01*
X193512311Y-141772060D01*
X193516311Y-141766060D01*
X193520311Y-141761060D01*
X193524311Y-141757060D01*
X193528311Y-141752060D01*
X193533311Y-141748060D01*
X193537311Y-141744060D01*
X193542311Y-141740060D01*
X193548311Y-141736060D01*
X193553311Y-141733060D01*
X193559311Y-141730060D01*
X193564311Y-141727060D01*
X193570311Y-141725060D01*
X193576311Y-141723060D01*
X193582311Y-141721060D01*
X193588311Y-141720060D01*
X193594311Y-141718060D01*
X193600311Y-141718060D01*
X193607311Y-141717060D01*
X193613311Y-141717060D01*
X193763311Y-141717060D01*
X193769311Y-141717060D01*
X193776311Y-141718060D01*
G36*
X193776311Y-141718060D02*
G01*
X193782311Y-141718060D01*
X193788311Y-141720060D01*
X193794311Y-141721060D01*
X193800311Y-141723060D01*
X193806311Y-141725060D01*
X193812311Y-141727060D01*
X193817311Y-141730060D01*
X193823311Y-141733060D01*
X193828311Y-141736060D01*
X193834311Y-141740060D01*
X193839311Y-141744060D01*
X193843311Y-141748060D01*
X193848311Y-141752060D01*
X193852311Y-141757060D01*
X193856311Y-141761060D01*
X193860311Y-141766060D01*
X193864311Y-141772060D01*
X193867311Y-141777060D01*
X193870311Y-141783060D01*
X193873311Y-141788060D01*
X193875311Y-141794060D01*
X193877311Y-141800060D01*
X193879311Y-141806060D01*
X193880311Y-141812060D01*
X193882311Y-141818060D01*
X193882311Y-141824060D01*
X193883311Y-141831060D01*
X193883311Y-141837060D01*
X193883311Y-142637060D01*
X193883311Y-142643060D01*
X193882311Y-142650060D01*
X193882311Y-142656060D01*
X193880311Y-142662060D01*
X193879311Y-142668060D01*
X193877311Y-142674060D01*
X193875311Y-142680060D01*
X193873311Y-142686060D01*
X193870311Y-142691060D01*
X193867311Y-142697060D01*
X193864311Y-142702060D01*
X193860311Y-142708060D01*
X193856311Y-142713060D01*
X193852311Y-142717060D01*
X193848311Y-142722060D01*
X193843311Y-142726060D01*
X193839311Y-142730060D01*
X193834311Y-142734060D01*
X193828311Y-142738060D01*
X193823311Y-142741060D01*
X193817311Y-142744060D01*
X193812311Y-142747060D01*
X193806311Y-142749060D01*
X193800311Y-142751060D01*
X193794311Y-142753060D01*
X193788311Y-142754060D01*
X193782311Y-142756060D01*
X193776311Y-142756060D01*
X193769311Y-142757060D01*
X193763311Y-142757060D01*
X193613311Y-142757060D01*
X193607311Y-142757060D01*
X193600311Y-142756060D01*
X193594311Y-142756060D01*
X193588311Y-142754060D01*
X193582311Y-142753060D01*
X193576311Y-142751060D01*
X193570311Y-142749060D01*
X193564311Y-142747060D01*
X193559311Y-142744060D01*
X193553311Y-142741060D01*
X193548311Y-142738060D01*
X193542311Y-142734060D01*
X193537311Y-142730060D01*
X193533311Y-142726060D01*
X193528311Y-142722060D01*
X193524311Y-142717060D01*
X193520311Y-142713060D01*
X193516311Y-142708060D01*
X193512311Y-142702060D01*
X193509311Y-142697060D01*
X193506311Y-142691060D01*
X193503311Y-142686060D01*
X193501311Y-142680060D01*
X193499311Y-142674060D01*
X193497311Y-142668060D01*
X193496311Y-142662060D01*
X193494311Y-142656060D01*
X193494311Y-142650060D01*
X193493311Y-142643060D01*
X193493311Y-142637060D01*
X193493311Y-141837060D01*
X193493311Y-141831060D01*
X193494311Y-141824060D01*
X193494311Y-141818060D01*
X193496311Y-141812060D01*
X193497311Y-141806060D01*
X193499311Y-141800060D01*
X193501311Y-141794060D01*
X193503311Y-141788060D01*
X193506311Y-141783060D01*
X193509311Y-141777060D01*
X193512311Y-141772060D01*
X193516311Y-141766060D01*
X193520311Y-141761060D01*
X193524311Y-141757060D01*
X193528311Y-141752060D01*
X193533311Y-141748060D01*
X193537311Y-141744060D01*
X193542311Y-141740060D01*
X193548311Y-141736060D01*
X193553311Y-141733060D01*
X193559311Y-141730060D01*
X193564311Y-141727060D01*
X193570311Y-141725060D01*
X193576311Y-141723060D01*
X193582311Y-141721060D01*
X193588311Y-141720060D01*
X193594311Y-141718060D01*
X193600311Y-141718060D01*
X193607311Y-141717060D01*
X193613311Y-141717060D01*
X193763311Y-141717060D01*
X193769311Y-141717060D01*
X193776311Y-141718060D01*
G37*
D12*
X284720000Y-128700000D03*
D13*
X284720000Y-126160000D03*
X284720000Y-123620000D03*
X284720000Y-121080000D03*
X284720000Y-118540000D03*
X284720000Y-116000000D03*
X284720000Y-113460000D03*
D14*
X214123084Y-124825000D03*
X214123084Y-122325000D03*
X214123084Y-119825000D03*
X208611284Y-119825000D03*
X208611284Y-122325000D03*
X208611284Y-124825000D03*
D15*
X172710000Y-161900000D03*
X175210000Y-161900000D03*
D16*
X152380000Y-115410000D03*
D17*
X152380000Y-117910000D03*
D18*
X196550000Y-155950000D03*
D19*
X199050000Y-155950000D03*
D20*
X193150000Y-111850000D03*
X193150000Y-109850000D03*
D21*
X162740000Y-107485000D03*
D19*
X160240000Y-107485000D03*
D22*
X222473600Y-115515001D03*
X222473600Y-114134999D03*
X219476400Y-114134999D03*
X219476400Y-115515001D03*
D20*
X236825000Y-150750000D03*
X236825000Y-148750000D03*
D23*
X254674701Y-134390000D03*
X254674701Y-131390000D03*
X249165299Y-131390000D03*
X249165299Y-134390000D03*
D24*
X242650000Y-138857500D03*
X242650000Y-136807500D03*
D12*
X163754701Y-170300000D03*
D13*
X161214701Y-170300000D03*
X158674701Y-170300000D03*
D18*
X259575000Y-164925000D03*
D19*
X262075000Y-164925000D03*
D18*
X223575000Y-155925000D03*
D19*
X226075000Y-155925000D03*
D25*
X191710000Y-148070000D03*
X193710000Y-148070000D03*
D26*
X224825000Y-148750000D03*
X224825000Y-150750000D03*
D27*
X236862500Y-120325000D03*
X236862500Y-119825000D03*
X236862500Y-119325000D03*
X236862500Y-118825000D03*
X236862500Y-118325000D03*
X236862500Y-117825000D03*
X236862500Y-117325000D03*
X236862500Y-116825000D03*
X236862500Y-116325000D03*
X236862500Y-115825000D03*
X236862500Y-115325000D03*
X236862500Y-114825000D03*
D28*
X235450000Y-113412500D03*
X234950000Y-113412500D03*
X234450000Y-113412500D03*
X233950000Y-113412500D03*
X233450000Y-113412500D03*
X232950000Y-113412500D03*
X232450000Y-113412500D03*
X231950000Y-113412500D03*
X231450000Y-113412500D03*
X230950000Y-113412500D03*
X230450000Y-113412500D03*
X229950000Y-113412500D03*
D27*
X228537500Y-114825000D03*
X228537500Y-115325000D03*
X228537500Y-115825000D03*
X228537500Y-116325000D03*
X228537500Y-116825000D03*
X228537500Y-117325000D03*
X228537500Y-117825000D03*
X228537500Y-118325000D03*
X228537500Y-118825000D03*
X228537500Y-119325000D03*
X228537500Y-119825000D03*
X228537500Y-120325000D03*
D28*
X229950000Y-121737500D03*
X230450000Y-121737500D03*
X230950000Y-121737500D03*
X231450000Y-121737500D03*
X231950000Y-121737500D03*
X232450000Y-121737500D03*
X232950000Y-121737500D03*
X233450000Y-121737500D03*
X233950000Y-121737500D03*
X234450000Y-121737500D03*
X234950000Y-121737500D03*
X235450000Y-121737500D03*
D29*
X188250000Y-120812500D03*
X188250000Y-122887500D03*
D24*
X240460000Y-138875000D03*
X240460000Y-136825000D03*
D30*
X193688311Y-145849560D03*
X191688311Y-145849560D03*
D20*
X233450000Y-125775000D03*
X233450000Y-123775000D03*
D31*
X258460000Y-109840000D03*
X258460000Y-107300000D03*
X261000000Y-109840000D03*
X261000000Y-107300000D03*
X263540000Y-109840000D03*
X263540000Y-107300000D03*
X266080000Y-109840000D03*
X266080000Y-107300000D03*
X268620000Y-109840000D03*
X268620000Y-107300000D03*
D20*
X233825000Y-150750000D03*
X233825000Y-148750000D03*
D29*
X226450000Y-120150000D03*
X226450000Y-122225000D03*
D23*
X239395299Y-111325000D03*
X239395299Y-114325000D03*
X244904701Y-114325000D03*
X244904701Y-111325000D03*
D32*
X193150000Y-105543750D03*
X193150000Y-107593750D03*
D18*
X250575000Y-164925000D03*
D19*
X253075000Y-164925000D03*
D18*
X187550000Y-155950000D03*
D19*
X190050000Y-155950000D03*
D12*
X219867184Y-105600000D03*
D13*
X222407184Y-105600000D03*
X224947184Y-105600000D03*
X227487184Y-105600000D03*
D33*
X197225000Y-126600000D03*
D34*
X164967400Y-115479999D03*
X164967400Y-117480001D03*
D12*
X150025000Y-152025000D03*
D13*
X150025000Y-149485000D03*
X150025000Y-146945000D03*
X150025000Y-144405000D03*
D20*
X196710000Y-148010000D03*
X196710000Y-146010000D03*
D12*
X234670000Y-105620000D03*
D13*
X237210000Y-105620000D03*
X239750000Y-105620000D03*
X242290000Y-105620000D03*
X244830000Y-105620000D03*
X247370000Y-105620000D03*
X249910000Y-105620000D03*
D35*
X167280000Y-111541500D03*
X167280000Y-110398500D03*
D36*
X259862500Y-131227500D03*
X259862500Y-133127500D03*
X262137500Y-132177500D03*
D37*
X152375000Y-167950000D03*
D33*
X182975000Y-126750000D03*
D38*
X157080000Y-142307500D03*
X157080000Y-139807500D03*
X165310000Y-142290000D03*
X165310000Y-139790000D03*
D30*
X178140000Y-109630000D03*
X176140000Y-109630000D03*
D26*
X183500000Y-109850000D03*
X183500000Y-111850000D03*
X230825000Y-148750000D03*
X230825000Y-150750000D03*
D30*
X175830000Y-112930000D03*
X173830000Y-112930000D03*
D25*
X222025000Y-125800000D03*
X224025000Y-125800000D03*
D29*
X236200000Y-123712500D03*
X236200000Y-125787500D03*
D23*
X233775000Y-131331250D03*
X233775000Y-134331250D03*
X239284402Y-134331250D03*
X239284402Y-131331250D03*
D21*
X201890000Y-107355000D03*
D19*
X199390000Y-107355000D03*
D36*
X222112500Y-121280000D03*
X222112500Y-123180000D03*
X224387500Y-122230000D03*
D25*
X218025000Y-125825000D03*
X220025000Y-125825000D03*
D18*
X232575000Y-155925000D03*
D19*
X235075000Y-155925000D03*
D18*
X214550000Y-155950000D03*
D19*
X217050000Y-155950000D03*
D18*
X187550000Y-164950000D03*
D19*
X190050000Y-164950000D03*
D30*
X161052500Y-135230000D03*
X159052500Y-135230000D03*
D39*
X273590000Y-160800000D03*
X275640000Y-160800000D03*
D26*
X221825000Y-148750000D03*
X221825000Y-150750000D03*
D12*
X170400000Y-115885000D03*
D13*
X170400000Y-118425000D03*
X170400000Y-120965000D03*
X170400000Y-123505000D03*
X170400000Y-126045000D03*
X170400000Y-128585000D03*
X170400000Y-131125000D03*
X170400000Y-133665000D03*
X200880000Y-118425000D03*
D12*
X200880000Y-115885000D03*
D24*
X183500000Y-107600000D03*
X183500000Y-105550000D03*
D36*
X175787500Y-115500000D03*
X175787500Y-117400000D03*
X178062500Y-116450000D03*
D24*
X189950000Y-107593750D03*
X189950000Y-105543750D03*
D12*
X150025000Y-156255000D03*
D13*
X150025000Y-158795000D03*
X150025000Y-161335000D03*
D18*
X241575000Y-155925000D03*
D19*
X244075000Y-155925000D03*
D26*
X189950000Y-109850000D03*
X189950000Y-111850000D03*
D38*
X159140000Y-142300000D03*
X159140000Y-139800000D03*
D21*
X282790000Y-160945000D03*
D19*
X280290000Y-160945000D03*
D33*
X192675000Y-126625000D03*
D20*
X240460000Y-143190000D03*
X240460000Y-141190000D03*
D29*
X196730000Y-142012500D03*
X196730000Y-144087500D03*
D40*
X222132500Y-128740000D03*
X224207500Y-128740000D03*
D18*
X205550000Y-155950000D03*
D19*
X208050000Y-155950000D03*
D38*
X170170000Y-164910000D03*
X170170000Y-162410000D03*
D41*
X285045000Y-137000000D03*
X283775000Y-137000000D03*
X282505000Y-137000000D03*
X281235000Y-137000000D03*
X279965000Y-137000000D03*
X278695000Y-137000000D03*
X277425000Y-137000000D03*
X276155000Y-137000000D03*
X274885000Y-137000000D03*
X273615000Y-137000000D03*
X272345000Y-137000000D03*
X271075000Y-137000000D03*
X269805000Y-137000000D03*
X268535000Y-137000000D03*
D42*
X267285000Y-140035000D03*
X267285000Y-141305000D03*
X267285000Y-142575000D03*
X267285000Y-143845000D03*
X267285000Y-145115000D03*
X267285000Y-146385000D03*
X267285000Y-147655000D03*
X267285000Y-148925000D03*
X267285000Y-150195000D03*
X267285000Y-151465000D03*
D41*
X268535000Y-154500000D03*
X269805000Y-154500000D03*
X271075000Y-154500000D03*
X272345000Y-154500000D03*
X273615000Y-154500000D03*
X274885000Y-154500000D03*
X276155000Y-154500000D03*
X277425000Y-154500000D03*
X278695000Y-154500000D03*
X279965000Y-154500000D03*
X281235000Y-154500000D03*
X282505000Y-154500000D03*
X283775000Y-154500000D03*
X285045000Y-154500000D03*
D43*
X277325000Y-144250000D03*
D44*
X232860000Y-137200000D03*
X232860000Y-138500000D03*
X234860000Y-137850000D03*
D26*
X186725000Y-109850000D03*
X186725000Y-111850000D03*
D38*
X161190000Y-142280000D03*
X161190000Y-139780000D03*
D45*
X207042184Y-113037500D03*
X207042184Y-111462500D03*
D21*
X254680000Y-124985000D03*
D19*
X252180000Y-124985000D03*
D24*
X186725000Y-107600000D03*
X186725000Y-105550000D03*
D26*
X230950000Y-123800000D03*
X230950000Y-125800000D03*
D46*
X185537500Y-118021500D03*
X185037500Y-118021500D03*
X184537500Y-118021500D03*
X184037500Y-118021500D03*
D47*
X183271500Y-118787500D03*
X183271500Y-119287500D03*
X183271500Y-119787500D03*
X183271500Y-120287500D03*
D46*
X184037500Y-121053500D03*
X184533500Y-121053500D03*
X185037500Y-121053500D03*
X185537500Y-121053500D03*
D47*
X186303500Y-120287500D03*
X186303500Y-119787500D03*
X186303500Y-119287500D03*
X186303500Y-118787500D03*
D48*
X184787500Y-119537500D03*
D49*
X184787500Y-119537500D03*
D20*
X228510000Y-125800000D03*
X228510000Y-123800000D03*
D18*
X250575000Y-155925000D03*
D19*
X253075000Y-155925000D03*
D12*
X232135000Y-143550000D03*
D13*
X234675000Y-143550000D03*
X237215000Y-143550000D03*
D32*
X180275000Y-105525000D03*
X180275000Y-107575000D03*
D50*
X184780000Y-116297500D03*
X184780000Y-114222500D03*
D36*
X259862500Y-135677500D03*
X259862500Y-137577500D03*
X262137500Y-136627500D03*
D23*
X254734701Y-141870000D03*
X254734701Y-138870000D03*
X249225299Y-138870000D03*
X249225299Y-141870000D03*
D51*
X230075000Y-140500000D03*
X230075000Y-140000000D03*
X230075000Y-139500000D03*
X230075000Y-139000000D03*
X230075000Y-138500000D03*
X230075000Y-138000000D03*
X230075000Y-137500000D03*
X230075000Y-137000000D03*
X230075000Y-136500000D03*
X230075000Y-136000000D03*
X230075000Y-135500000D03*
X230075000Y-135000000D03*
X230075000Y-134500000D03*
X230075000Y-134000000D03*
X230075000Y-133500000D03*
X230075000Y-133000000D03*
D52*
X228150000Y-131075000D03*
X227650000Y-131075000D03*
X227150000Y-131075000D03*
X226650000Y-131075000D03*
X226150000Y-131075000D03*
X225650000Y-131075000D03*
X225150000Y-131075000D03*
X224650000Y-131075000D03*
X224150000Y-131075000D03*
X223650000Y-131075000D03*
X223150000Y-131075000D03*
X222650000Y-131075000D03*
X222150000Y-131075000D03*
X221650000Y-131075000D03*
X221150000Y-131075000D03*
X220650000Y-131075000D03*
D51*
X218725000Y-133000000D03*
X218725000Y-133500000D03*
X218725000Y-134000000D03*
X218725000Y-134500000D03*
X218725000Y-135000000D03*
X218725000Y-135500000D03*
X218725000Y-136000000D03*
X218725000Y-136500000D03*
X218725000Y-137000000D03*
X218725000Y-137500000D03*
X218725000Y-138000000D03*
X218725000Y-138500000D03*
X218725000Y-139000000D03*
X218725000Y-139500000D03*
X218725000Y-140000000D03*
X218725000Y-140500000D03*
D52*
X220650000Y-142425000D03*
X221150000Y-142425000D03*
X221650000Y-142425000D03*
X222150000Y-142425000D03*
X222650000Y-142425000D03*
X223150000Y-142425000D03*
X223650000Y-142425000D03*
X224150000Y-142425000D03*
X224650000Y-142425000D03*
X225150000Y-142425000D03*
X225650000Y-142425000D03*
X226150000Y-142425000D03*
X226650000Y-142425000D03*
X227150000Y-142425000D03*
X227650000Y-142425000D03*
X228150000Y-142425000D03*
D25*
X269490000Y-157130000D03*
X271490000Y-157130000D03*
D38*
X167620000Y-164920000D03*
X167620000Y-162420000D03*
D18*
X259575000Y-155925000D03*
D19*
X262075000Y-155925000D03*
D20*
X242650000Y-143190000D03*
X242650000Y-141190000D03*
D37*
X282275000Y-167950000D03*
D53*
X200013311Y-140912060D03*
X201313311Y-140912060D03*
D54*
X149275000Y-130690000D03*
X149275000Y-129590000D03*
X149275000Y-128490000D03*
X149275000Y-127390000D03*
X149275000Y-126290000D03*
X149275000Y-125190000D03*
X149275000Y-124090000D03*
D55*
X149275000Y-123040000D03*
D56*
X155425000Y-133325000D03*
X159125000Y-133325000D03*
D57*
X149400000Y-133150000D03*
D58*
X149625000Y-121830000D03*
D59*
X160100000Y-123855000D03*
X160100000Y-129825000D03*
D25*
X190580000Y-119775000D03*
X192580000Y-119775000D03*
D18*
X205550000Y-164950000D03*
D19*
X208050000Y-164950000D03*
D26*
X218850000Y-148750000D03*
X218850000Y-150750000D03*
D30*
X220020000Y-123350000D03*
X218020000Y-123350000D03*
D53*
X184288311Y-139887060D03*
X185588311Y-139887060D03*
D60*
X175760000Y-129450000D03*
D61*
X175760000Y-120550000D03*
D60*
X178300000Y-129450000D03*
D61*
X178300000Y-120550000D03*
D44*
X239330000Y-118000000D03*
X239330000Y-119300000D03*
X241330000Y-118650000D03*
D26*
X212850000Y-148750000D03*
X212850000Y-150750000D03*
D39*
X273590000Y-157130000D03*
X275640000Y-157130000D03*
D12*
X177775000Y-170300000D03*
D13*
X175235000Y-170300000D03*
X172695000Y-170300000D03*
D18*
X223575000Y-164925000D03*
D19*
X226075000Y-164925000D03*
D37*
X282375000Y-108000000D03*
D12*
X260815000Y-142010000D03*
D13*
X263355000Y-142010000D03*
X260815000Y-144550000D03*
X263355000Y-144550000D03*
X260815000Y-147090000D03*
X263355000Y-147090000D03*
X260815000Y-149630000D03*
X263355000Y-149630000D03*
D18*
X214550000Y-164950000D03*
D19*
X217050000Y-164950000D03*
D29*
X167775000Y-105912500D03*
X167775000Y-107987500D03*
D62*
X190567611Y-137824560D03*
X194809011Y-137824560D03*
D18*
X196550000Y-164950000D03*
D19*
X199050000Y-164950000D03*
D63*
X177725000Y-105530000D03*
X177075000Y-105530000D03*
X176425000Y-105530000D03*
X176425000Y-107450000D03*
X177725000Y-107450000D03*
D64*
X171875000Y-107800000D03*
D65*
X171875000Y-108125000D03*
D64*
X171475000Y-107800000D03*
D65*
X171475000Y-108125000D03*
D64*
X171075000Y-107800000D03*
D65*
X171075000Y-108125000D03*
D64*
X170675000Y-107800000D03*
D65*
X170675000Y-108125000D03*
D64*
X170275000Y-107800000D03*
D65*
X170275000Y-108125000D03*
D64*
X169875000Y-107800000D03*
D65*
X169875000Y-108125000D03*
X169875000Y-112075000D03*
D64*
X169875000Y-112400000D03*
D65*
X170275000Y-112075000D03*
D64*
X170275000Y-112400000D03*
D65*
X170675000Y-112075000D03*
D64*
X170675000Y-112400000D03*
D65*
X171075000Y-112075000D03*
D64*
X171075000Y-112400000D03*
D65*
X171475000Y-112075000D03*
D64*
X171475000Y-112400000D03*
D65*
X171875000Y-112075000D03*
D64*
X171875000Y-112400000D03*
D66*
X172187500Y-109000000D03*
X169562500Y-109000000D03*
D67*
X170875000Y-110100000D03*
D33*
X170875000Y-110100000D03*
D66*
X172187500Y-111200000D03*
X169562500Y-111200000D03*
D25*
X269502500Y-160800000D03*
X271502500Y-160800000D03*
D68*
X212317184Y-107450000D03*
X211667184Y-107450000D03*
X211017184Y-107450000D03*
X210367184Y-107450000D03*
X209717184Y-107450000D03*
D69*
X214817184Y-104775000D03*
D70*
X214117184Y-107325000D03*
D71*
X212217184Y-104775000D03*
X209817184Y-104775000D03*
D70*
X207917184Y-107325000D03*
D69*
X207217184Y-104775000D03*
D12*
X160010000Y-158654299D03*
D13*
X162550000Y-158654299D03*
X165090000Y-158654299D03*
X167630000Y-158654299D03*
X170170000Y-158654299D03*
X172710000Y-158654299D03*
X175250000Y-158654299D03*
X177790000Y-158654299D03*
X180330000Y-158654299D03*
D37*
X152375000Y-107950000D03*
D18*
X241575000Y-164925000D03*
D19*
X244075000Y-164925000D03*
D26*
X227825000Y-148750000D03*
X227825000Y-150750000D03*
D30*
X220020000Y-121060000D03*
X218020000Y-121060000D03*
D72*
X220107500Y-128860000D03*
X218032500Y-128860000D03*
D15*
X177820000Y-161900000D03*
X180320000Y-161900000D03*
D18*
X232575000Y-164925000D03*
D19*
X235075000Y-164925000D03*
D20*
X180275000Y-111850000D03*
X180275000Y-109850000D03*
D33*
X187700000Y-126675000D03*
D38*
X163250000Y-142290000D03*
X163250000Y-139790000D03*
D25*
X225975000Y-112775000D03*
X227975000Y-112775000D03*
D26*
X215850000Y-148750000D03*
X215850000Y-150750000D03*
D12*
X269755000Y-170300000D03*
D13*
X272295000Y-170300000D03*
X274835000Y-170300000D03*
D29*
X188760000Y-142022500D03*
X188760000Y-144097500D03*
D26*
X209850000Y-148750000D03*
X209850000Y-150750000D03*
D73*
X175420000Y-149860000D03*
D74*
X167150000Y-117500000D03*
X161650000Y-117500000D03*
X161400000Y-112500000D03*
X205890000Y-142240000D03*
X208430000Y-142240000D03*
X208430000Y-137160000D03*
X205890000Y-137160000D03*
X205890000Y-139700000D03*
X208430000Y-139700000D03*
X210970000Y-139700000D03*
X170273219Y-113200171D03*
X254150000Y-147320000D03*
X193190000Y-104140000D03*
X274470000Y-127000000D03*
X186500000Y-129450000D03*
X157630000Y-147320000D03*
X172870000Y-165100000D03*
X162710000Y-147320000D03*
X266850000Y-119380000D03*
X212840000Y-162870000D03*
X246530000Y-114300000D03*
X152550000Y-122040000D03*
X205890000Y-119380000D03*
X271930000Y-165100000D03*
X151150000Y-125250000D03*
X165250000Y-152400000D03*
D75*
X234580000Y-135870000D03*
D74*
X254650000Y-162840000D03*
D76*
X192688311Y-143112060D03*
D74*
X282090000Y-132080000D03*
X226210000Y-109220000D03*
X238910000Y-170180000D03*
X284630000Y-142240000D03*
X173680000Y-133900000D03*
X205420000Y-107410000D03*
X274470000Y-139700000D03*
X203350000Y-129540000D03*
X282090000Y-149860000D03*
X271930000Y-142240000D03*
X264310000Y-127000000D03*
X271930000Y-139700000D03*
X177950000Y-104140000D03*
X198270000Y-148590000D03*
X157630000Y-165100000D03*
X229510000Y-170180000D03*
X256810000Y-142250000D03*
X157630000Y-144780000D03*
X227250000Y-136650000D03*
X195730000Y-106680000D03*
X269390000Y-139700000D03*
X220540000Y-170180000D03*
X269390000Y-132080000D03*
X241450000Y-149860000D03*
X271930000Y-149860000D03*
X170330000Y-152400000D03*
X221900000Y-162840000D03*
X178000000Y-139100000D03*
X203350000Y-124460000D03*
X199540000Y-147320000D03*
X197800000Y-162880000D03*
X203180000Y-105090000D03*
X256690000Y-149860000D03*
X254150000Y-106680000D03*
X239560000Y-132750000D03*
X155090000Y-122040000D03*
X165250000Y-124460000D03*
X224450000Y-137350000D03*
X165250000Y-132080000D03*
X242810000Y-162840000D03*
X211310000Y-155240000D03*
X162710000Y-165100000D03*
X152550000Y-154940000D03*
X256690000Y-119380000D03*
X216050000Y-116840000D03*
X216400000Y-129000000D03*
X254150000Y-114300000D03*
X228151500Y-162850000D03*
X277010000Y-149860000D03*
X233830000Y-109220000D03*
X162710000Y-129540000D03*
X238910000Y-149860000D03*
X246530000Y-111760000D03*
X221600000Y-138250000D03*
X282090000Y-147320000D03*
X230870000Y-162840000D03*
X264310000Y-124460000D03*
X279550000Y-134620000D03*
X167790000Y-149860000D03*
X254150000Y-116840000D03*
X180490000Y-149860000D03*
X181800000Y-108430000D03*
X200620000Y-162870000D03*
X254150000Y-119380000D03*
X235380000Y-118010000D03*
X224509750Y-119429500D03*
X238910000Y-142240000D03*
X156930000Y-104030000D03*
X185880000Y-162870000D03*
X208430000Y-116840000D03*
X211510000Y-170180000D03*
X162710000Y-162560000D03*
X195730000Y-104140000D03*
X221130000Y-111760000D03*
X262400000Y-129000000D03*
X226800000Y-138900000D03*
X248850000Y-162840000D03*
X274470000Y-134620000D03*
X242650000Y-112830000D03*
X229310000Y-165050000D03*
X238350000Y-115250000D03*
X155090000Y-162560000D03*
X284630000Y-144780000D03*
X209640000Y-162870000D03*
X162710000Y-124460000D03*
X239810000Y-162850000D03*
X189310000Y-104140000D03*
X170330000Y-167640000D03*
D76*
X193440000Y-143120000D03*
D74*
X284120000Y-163020000D03*
X277010000Y-127000000D03*
X160170000Y-144780000D03*
X208430000Y-129540000D03*
X271930000Y-134620000D03*
X284010000Y-156550000D03*
X177950000Y-165100000D03*
X264310000Y-137160000D03*
X227250000Y-135100000D03*
X248620000Y-104750000D03*
X224820000Y-162850000D03*
X277010000Y-119380000D03*
X269390000Y-116840000D03*
X167790000Y-127000000D03*
X264310000Y-132080000D03*
X274470000Y-104140000D03*
X274470000Y-106680000D03*
X243990000Y-149860000D03*
X188820000Y-162880000D03*
X259230000Y-121920000D03*
X213510000Y-116840000D03*
X271930000Y-104580000D03*
X175410000Y-144780000D03*
X251610000Y-147320000D03*
X256690000Y-116840000D03*
X167790000Y-147320000D03*
X284630000Y-152400000D03*
X242450000Y-121400000D03*
X167790000Y-167640000D03*
X256690000Y-114300000D03*
X232330000Y-127830000D03*
X251610000Y-119380000D03*
X251610000Y-116840000D03*
X188110000Y-146830000D03*
X282090000Y-142240000D03*
X263610000Y-153840000D03*
X271930000Y-114300000D03*
X238910000Y-144780000D03*
X179270000Y-117179000D03*
X165250000Y-121920000D03*
X277010000Y-114300000D03*
X246530000Y-116840000D03*
X251610000Y-111760000D03*
X183030000Y-165100000D03*
X191060000Y-135510000D03*
X237800000Y-139430000D03*
X217070000Y-107670000D03*
X205890000Y-129540000D03*
X228752000Y-135350000D03*
X165250000Y-149860000D03*
X162710000Y-149860000D03*
X243990000Y-124460000D03*
X236670000Y-162840000D03*
X228910000Y-127830000D03*
X203350000Y-170180000D03*
X271930000Y-124460000D03*
X266850000Y-170180000D03*
X244090000Y-128630000D03*
X246530000Y-147320000D03*
X189380000Y-148910000D03*
X177160000Y-123940000D03*
D75*
X242680000Y-118630000D03*
D74*
X277010000Y-165100000D03*
X251800000Y-153850000D03*
X183030000Y-170180000D03*
X231290000Y-109220000D03*
X247520000Y-170180000D03*
X269390000Y-124460000D03*
X274470000Y-116840000D03*
X261770000Y-170180000D03*
X157630000Y-111760000D03*
X246530000Y-149860000D03*
X157630000Y-162560000D03*
X249070000Y-149860000D03*
X195730000Y-109220000D03*
X254610000Y-153840000D03*
X282090000Y-152400000D03*
X230830000Y-153850000D03*
X254150000Y-149860000D03*
X261770000Y-104580000D03*
X203350000Y-116840000D03*
X213510000Y-111760000D03*
X203350000Y-121920000D03*
X241450000Y-144780000D03*
X224100000Y-124200000D03*
X188110000Y-114300000D03*
X284070000Y-159170000D03*
X152550000Y-157480000D03*
X249070000Y-119380000D03*
X256690000Y-137160000D03*
X183030000Y-144780000D03*
X266850000Y-104580000D03*
X165840000Y-104140000D03*
X170330000Y-149860000D03*
X190650000Y-104140000D03*
X249070000Y-111760000D03*
X277010000Y-132080000D03*
X266850000Y-167640000D03*
X161000000Y-121920000D03*
X152550000Y-160020000D03*
X258426500Y-153850000D03*
X180490000Y-147320000D03*
X266850000Y-158060000D03*
X266850000Y-127000000D03*
X269390000Y-104580000D03*
X177950000Y-127000000D03*
X271930000Y-144780000D03*
X217050000Y-153930000D03*
X279550000Y-132080000D03*
X162710000Y-134620000D03*
X271930000Y-132080000D03*
X167790000Y-104140000D03*
X193190000Y-121920000D03*
X199850000Y-122750000D03*
X277010000Y-116840000D03*
X157630000Y-157480000D03*
X199540000Y-144780000D03*
X246920000Y-137140000D03*
X193680000Y-170170000D03*
X195150000Y-128250000D03*
X259230000Y-116840000D03*
X269390000Y-165100000D03*
X235970000Y-127830000D03*
X264310000Y-104580000D03*
X205890000Y-121920000D03*
X249070000Y-116840000D03*
X251610000Y-114300000D03*
X242420000Y-116060000D03*
X282090000Y-134620000D03*
X274470000Y-165100000D03*
X256690000Y-147320000D03*
X227550000Y-129410000D03*
X190830000Y-121920000D03*
X233860000Y-162850000D03*
X195730000Y-114300000D03*
X246920000Y-134600000D03*
D76*
X194163311Y-143112060D03*
D74*
X215830000Y-162880000D03*
X216050000Y-114300000D03*
X224450000Y-135150000D03*
X259230000Y-124460000D03*
X183030000Y-162560000D03*
X228750000Y-109220000D03*
X245580000Y-153840000D03*
X277010000Y-124460000D03*
X218640000Y-162870000D03*
X157630000Y-154750000D03*
X203350000Y-114300000D03*
X259230000Y-119380000D03*
X277010000Y-104140000D03*
X193190000Y-114300000D03*
X203350000Y-119380000D03*
D75*
X241080000Y-116690000D03*
D74*
X188110000Y-148910000D03*
X206830000Y-162880000D03*
X241430000Y-133450000D03*
X160170000Y-165100000D03*
X190650000Y-114300000D03*
X180490000Y-152400000D03*
X259230000Y-170180000D03*
X246530000Y-121920000D03*
X218590000Y-111760000D03*
X165250000Y-144780000D03*
X187000000Y-135200000D03*
X224830000Y-153850000D03*
X160170000Y-104360000D03*
X180490000Y-104140000D03*
X232400000Y-119300000D03*
X284630000Y-149860000D03*
X249170000Y-128630000D03*
X190650000Y-124460000D03*
X203840000Y-162880000D03*
X189366640Y-146830000D03*
X266850000Y-165100000D03*
X264310000Y-170180000D03*
X205410000Y-105100000D03*
X279550000Y-149860000D03*
X238910000Y-147320000D03*
X202310000Y-155030000D03*
X216650000Y-141500000D03*
X264310000Y-119380000D03*
X205890000Y-124460000D03*
X256690000Y-139700000D03*
X188800000Y-153870000D03*
X194400000Y-135490000D03*
X271930000Y-116840000D03*
X266850000Y-159620000D03*
X277010000Y-111760000D03*
X282090000Y-139700000D03*
X266850000Y-116840000D03*
X200640000Y-105090000D03*
X155090000Y-124460000D03*
D76*
X191213311Y-143112060D03*
D74*
X157630000Y-152400000D03*
X231290000Y-104140000D03*
X181920000Y-115080000D03*
X198270000Y-144780000D03*
X259230000Y-104580000D03*
X260800000Y-153850000D03*
X165250000Y-134620000D03*
X155090000Y-160020000D03*
X277010000Y-167640000D03*
X277010000Y-106680000D03*
X183030000Y-147320000D03*
X157630000Y-134620000D03*
X246530000Y-124460000D03*
X266850000Y-162560000D03*
X241450000Y-124460000D03*
X181970000Y-117510000D03*
X175300000Y-139050000D03*
X152550000Y-162560000D03*
X246530000Y-144780000D03*
X246530000Y-119380000D03*
X264310000Y-116840000D03*
X216340000Y-104740000D03*
X205890000Y-144780000D03*
X183030000Y-104140000D03*
X175410000Y-127000000D03*
X162710000Y-104360000D03*
X216770000Y-123350000D03*
X241450000Y-147320000D03*
X269800000Y-122100000D03*
X194820000Y-162870000D03*
X256690000Y-104580000D03*
X282090000Y-144780000D03*
X279550000Y-139700000D03*
X243540000Y-104750000D03*
X249070000Y-121920000D03*
X157620000Y-119770000D03*
X157630000Y-122040000D03*
X167790000Y-152400000D03*
X246920000Y-139680000D03*
X181900000Y-121000000D03*
X251610000Y-104140000D03*
X227248500Y-153840000D03*
X199200000Y-135250000D03*
X233830000Y-104140000D03*
X175410000Y-142240000D03*
X175410000Y-104140000D03*
X277010000Y-170180000D03*
X263650000Y-162840000D03*
X239780000Y-153840000D03*
X238460000Y-104750000D03*
X198100000Y-105090000D03*
X277010000Y-134620000D03*
X222850000Y-120200000D03*
X236370000Y-134620000D03*
X284630000Y-147320000D03*
X236630000Y-153850000D03*
X183030000Y-167640000D03*
X233820000Y-153860000D03*
D75*
X236350000Y-137850000D03*
D74*
X242770000Y-153850000D03*
X251840000Y-162840000D03*
X246630000Y-128630000D03*
X167790000Y-170180000D03*
X271930000Y-147320000D03*
X216050000Y-111760000D03*
X157630000Y-124460000D03*
X241000000Y-104750000D03*
X251610000Y-149860000D03*
X221073500Y-129728500D03*
X237800000Y-112950000D03*
X193280000Y-155140000D03*
X245620000Y-162850000D03*
X246080000Y-104750000D03*
X191680000Y-162880000D03*
X238910000Y-124460000D03*
X177950000Y-136430000D03*
X256690000Y-132080000D03*
X172870000Y-104140000D03*
X185570000Y-160020000D03*
X173660000Y-132250000D03*
X185570000Y-170180000D03*
X190650000Y-127000000D03*
X210970000Y-142240000D03*
X274470000Y-114300000D03*
X238970000Y-127830000D03*
X254150000Y-104580000D03*
X248810000Y-153840000D03*
X274470000Y-132080000D03*
X228050000Y-121700000D03*
X256690000Y-170180000D03*
X186060000Y-104140000D03*
X249070000Y-114300000D03*
X165250000Y-129540000D03*
X216650000Y-143500000D03*
X160170000Y-162560000D03*
X249070000Y-147320000D03*
D76*
X191913311Y-143112060D03*
D77*
X190413311Y-142087060D03*
D74*
X190413311Y-144712060D03*
X170275000Y-107075000D03*
X195440000Y-148010000D03*
X195438311Y-141960000D03*
D77*
X204410000Y-111960000D03*
X261490000Y-111726500D03*
X230950000Y-127000000D03*
X200880000Y-125030000D03*
X194450000Y-111900000D03*
X261500000Y-127000000D03*
X223125000Y-127000000D03*
X212390000Y-110034771D03*
X244445000Y-107350000D03*
D74*
X233260000Y-115046997D03*
X228900000Y-137500000D03*
X237767500Y-131212500D03*
D75*
X234325000Y-120325000D03*
X227150000Y-132250000D03*
X283770000Y-135360000D03*
X184050000Y-149540000D03*
X201313311Y-143787060D03*
X238233818Y-117858248D03*
X228150000Y-140525000D03*
X244025000Y-140690000D03*
X232730000Y-133290000D03*
X217440000Y-140500000D03*
X238250000Y-116213500D03*
X188170000Y-113300000D03*
X155425000Y-127425000D03*
X215590000Y-127807000D03*
D74*
X224375000Y-121400000D03*
D75*
X222473600Y-112200000D03*
X244025000Y-148925000D03*
D74*
X215600000Y-126243000D03*
X236600000Y-121700000D03*
D75*
X228150000Y-134500000D03*
X229400000Y-112200000D03*
X232731500Y-135840000D03*
X215550000Y-140500000D03*
X230750000Y-120300000D03*
X215590000Y-135290000D03*
D74*
X242450000Y-111312500D03*
X256090000Y-131360000D03*
X254674701Y-132830000D03*
X266729000Y-131360000D03*
X262137500Y-131360000D03*
X167620299Y-160982000D03*
X211017184Y-108610000D03*
X210734593Y-106300674D03*
X211624000Y-109214500D03*
X211975254Y-106292438D03*
D77*
X168850000Y-140175000D03*
X182863311Y-140212060D03*
X178140000Y-111110000D03*
X180275000Y-122350000D03*
X180275000Y-116475000D03*
D74*
X268810000Y-144550000D03*
X216975000Y-118846628D03*
X208617184Y-118825000D03*
X217675000Y-118220500D03*
X214123084Y-118220500D03*
X254734701Y-140370000D03*
X262137500Y-138700000D03*
X221825000Y-151775000D03*
X224825000Y-151800000D03*
X227825000Y-152454500D03*
X230825000Y-151850000D03*
X213725000Y-143368000D03*
X213725000Y-137275000D03*
X214475000Y-143972500D03*
X214475000Y-137895500D03*
X268880000Y-142010000D03*
X265526500Y-142010000D03*
X234450000Y-112175000D03*
X220639880Y-139804500D03*
X227220000Y-115220500D03*
X226049720Y-115840000D03*
X221175000Y-139200000D03*
X229145612Y-121726672D03*
X229950000Y-119340000D03*
X235450000Y-108107000D03*
X235450000Y-112200000D03*
X236860000Y-113160000D03*
X236860000Y-108783500D03*
X282505000Y-156865000D03*
X268810000Y-147090000D03*
X268810000Y-149630000D03*
X259857500Y-132050000D03*
X263370000Y-133490000D03*
X266124500Y-135310000D03*
X263370000Y-135310000D03*
X259857500Y-136760000D03*
D76*
X175250946Y-155470500D03*
D74*
X183050946Y-156645500D03*
X150300000Y-126300000D03*
X163250000Y-136775000D03*
X219900000Y-133500000D03*
X153967500Y-136775000D03*
X161190000Y-137387000D03*
X153363000Y-137325000D03*
X150325000Y-128500000D03*
X217425000Y-134500000D03*
X150300000Y-124100000D03*
X154638532Y-136170500D03*
X165300000Y-136170500D03*
X220583500Y-134274424D03*
X157080000Y-138596000D03*
X150300000Y-129600000D03*
X217400000Y-133350000D03*
X152745500Y-138550000D03*
X224150000Y-133100000D03*
X173834000Y-127275000D03*
X173862500Y-115500000D03*
X168093000Y-139270500D03*
X217425000Y-135525000D03*
X174500000Y-128585000D03*
X174500000Y-117400000D03*
X178325000Y-119275000D03*
X181500000Y-119274118D03*
X182100000Y-118675000D03*
X175775000Y-119250000D03*
X175690000Y-107450000D03*
X179100000Y-108525000D03*
X194833811Y-147050000D03*
X194833811Y-144790000D03*
X171200000Y-113190000D03*
X172003003Y-113250000D03*
X220644157Y-135344157D03*
X172000000Y-126050000D03*
X185250000Y-111900000D03*
X183280000Y-121100000D03*
X182100000Y-111900000D03*
X182075000Y-119950000D03*
X186055000Y-117221000D03*
X187150000Y-118683000D03*
X186180000Y-120980000D03*
X226254500Y-144830000D03*
X235500000Y-119120000D03*
X233260000Y-115850000D03*
X218350000Y-117325000D03*
X223700000Y-117325000D03*
X223901768Y-141172395D03*
X223545500Y-145950000D03*
X222861834Y-146450000D03*
X222907478Y-141170726D03*
X221925000Y-146814500D03*
X221910980Y-141169739D03*
X173120000Y-107314947D03*
X220325000Y-136500000D03*
X172625000Y-120967497D03*
X220800000Y-137350000D03*
X173229500Y-123505000D03*
X174502947Y-106722947D03*
X216505838Y-133345500D03*
X159140000Y-137991500D03*
D76*
X170170000Y-156000000D03*
D74*
X237975000Y-121575000D03*
X223700000Y-115525000D03*
X218350000Y-115525000D03*
X209129684Y-113037500D03*
M02*
