M48
; DRILL file {KiCad 7.0.10} date Thu Mar  7 14:58:05 2024
; FORMAT={-:-/ absolute / metric / decimal}
; #@! TF.CreationDate,2024-03-07T14:58:05-05:00
; #@! TF.GenerationSoftware,Kicad,Pcbnew,7.0.10
; #@! TF.FileFunction,Plated,1,2,PTH
FMAT,2
METRIC
; #@! TA.AperFunction,Plated,PTH,ViaDrill
T1C0.300
; #@! TA.AperFunction,Plated,PTH,ViaDrill
T2C0.400
; #@! TA.AperFunction,Plated,PTH,ViaDrill
T3C0.500
; #@! TA.AperFunction,Plated,PTH,ComponentDrill
T4C0.813
; #@! TA.AperFunction,Plated,PTH,ComponentDrill
T5C1.000
; #@! TA.AperFunction,Plated,PTH,ComponentDrill
T6C1.100
; #@! TA.AperFunction,Plated,PTH,ComponentDrill
T7C1.200
; #@! TA.AperFunction,Plated,PTH,ComponentDrill
T8C1.400
; #@! TA.AperFunction,Plated,PTH,ComponentDrill
T9C3.000
; #@! TA.AperFunction,Plated,PTH,ComponentDrill
T10C3.300
%
G90
G05
T1
X170.17Y-156.0
X175.251Y-155.47
X191.213Y-143.112
X191.913Y-143.112
X192.688Y-143.112
X193.44Y-143.12
X194.163Y-143.112
T2
X150.3Y-124.1
X150.3Y-126.3
X150.3Y-129.6
X150.325Y-128.5
X151.15Y-125.25
X152.55Y-122.04
X152.55Y-154.94
X152.55Y-157.48
X152.55Y-160.02
X152.55Y-162.56
X152.745Y-138.55
X153.363Y-137.325
X153.968Y-136.775
X154.639Y-136.171
X155.09Y-122.04
X155.09Y-124.46
X155.09Y-160.02
X155.09Y-162.56
X155.425Y-127.425
X156.93Y-104.03
X157.08Y-138.596
X157.62Y-119.77
X157.63Y-111.76
X157.63Y-122.04
X157.63Y-124.46
X157.63Y-134.62
X157.63Y-144.78
X157.63Y-147.32
X157.63Y-152.4
X157.63Y-154.75
X157.63Y-157.48
X157.63Y-162.56
X157.63Y-165.1
X159.14Y-137.992
X160.17Y-104.36
X160.17Y-144.78
X160.17Y-162.56
X160.17Y-165.1
X161.0Y-121.92
X161.19Y-137.387
X161.4Y-112.5
X161.65Y-117.5
X162.71Y-104.36
X162.71Y-124.46
X162.71Y-129.54
X162.71Y-134.62
X162.71Y-147.32
X162.71Y-149.86
X162.71Y-162.56
X162.71Y-165.1
X163.25Y-136.775
X165.25Y-121.92
X165.25Y-124.46
X165.25Y-129.54
X165.25Y-132.08
X165.25Y-134.62
X165.25Y-144.78
X165.25Y-149.86
X165.25Y-152.4
X165.3Y-136.171
X165.84Y-104.14
X167.15Y-117.5
X167.62Y-160.982
X167.79Y-104.14
X167.79Y-127.0
X167.79Y-147.32
X167.79Y-149.86
X167.79Y-152.4
X167.79Y-167.64
X167.79Y-170.18
X168.093Y-139.27
X170.273Y-113.2
X170.275Y-107.075
X170.33Y-149.86
X170.33Y-152.4
X170.33Y-167.64
X171.2Y-113.19
X172.0Y-126.05
X172.003Y-113.25
X172.625Y-120.967
X172.87Y-104.14
X172.87Y-165.1
X173.12Y-107.315
X173.23Y-123.505
X173.66Y-132.25
X173.68Y-133.9
X173.834Y-127.275
X173.862Y-115.5
X174.5Y-117.4
X174.5Y-128.585
X174.503Y-106.723
X175.3Y-139.05
X175.41Y-104.14
X175.41Y-127.0
X175.41Y-142.24
X175.41Y-144.78
X175.69Y-107.45
X175.775Y-119.25
X177.16Y-123.94
X177.95Y-104.14
X177.95Y-127.0
X177.95Y-136.43
X177.95Y-165.1
X178.0Y-139.1
X178.325Y-119.275
X179.1Y-108.525
X179.27Y-117.179
X180.49Y-104.14
X180.49Y-147.32
X180.49Y-149.86
X180.49Y-152.4
X181.5Y-119.274
X181.8Y-108.43
X181.9Y-121.0
X181.92Y-115.08
X181.97Y-117.51
X182.075Y-119.95
X182.1Y-111.9
X182.1Y-118.675
X183.03Y-104.14
X183.03Y-144.78
X183.03Y-147.32
X183.03Y-162.56
X183.03Y-165.1
X183.03Y-167.64
X183.03Y-170.18
X183.051Y-156.645
X183.28Y-121.1
X184.05Y-149.54
X185.25Y-111.9
X185.57Y-160.02
X185.57Y-170.18
X185.88Y-162.87
X186.055Y-117.221
X186.06Y-104.14
X186.18Y-120.98
X186.5Y-129.45
X187.0Y-135.2
X187.15Y-118.683
X188.11Y-114.3
X188.11Y-146.83
X188.11Y-148.91
X188.17Y-113.3
X188.8Y-153.87
X188.82Y-162.88
X189.31Y-104.14
X189.367Y-146.83
X189.38Y-148.91
X190.413Y-144.712
X190.65Y-104.14
X190.65Y-114.3
X190.65Y-124.46
X190.65Y-127.0
X190.83Y-121.92
X191.06Y-135.51
X191.68Y-162.88
X193.19Y-104.14
X193.19Y-114.3
X193.19Y-121.92
X193.28Y-155.14
X193.68Y-170.17
X194.4Y-135.49
X194.82Y-162.87
X194.834Y-144.79
X194.834Y-147.05
X195.15Y-128.25
X195.438Y-141.96
X195.44Y-148.01
X195.73Y-104.14
X195.73Y-106.68
X195.73Y-109.22
X195.73Y-114.3
X197.8Y-162.88
X198.1Y-105.09
X198.27Y-144.78
X198.27Y-148.59
X199.2Y-135.25
X199.54Y-144.78
X199.54Y-147.32
X199.85Y-122.75
X200.62Y-162.87
X200.64Y-105.09
X201.313Y-143.787
X202.31Y-155.03
X203.18Y-105.09
X203.35Y-114.3
X203.35Y-116.84
X203.35Y-119.38
X203.35Y-121.92
X203.35Y-124.46
X203.35Y-129.54
X203.35Y-170.18
X203.84Y-162.88
X205.41Y-105.1
X205.42Y-107.41
X205.89Y-119.38
X205.89Y-121.92
X205.89Y-124.46
X205.89Y-129.54
X205.89Y-137.16
X205.89Y-139.7
X205.89Y-142.24
X205.89Y-144.78
X206.83Y-162.88
X208.43Y-116.84
X208.43Y-129.54
X208.43Y-137.16
X208.43Y-139.7
X208.43Y-142.24
X208.617Y-118.825
X209.13Y-113.037
X209.64Y-162.87
X210.735Y-106.301
X210.97Y-139.7
X210.97Y-142.24
X211.017Y-108.61
X211.31Y-155.24
X211.51Y-170.18
X211.624Y-109.215
X211.975Y-106.292
X212.84Y-162.87
X213.51Y-111.76
X213.51Y-116.84
X213.725Y-137.275
X213.725Y-143.368
X214.123Y-118.221
X214.475Y-137.895
X214.475Y-143.972
X215.55Y-140.5
X215.59Y-127.807
X215.59Y-135.29
X215.6Y-126.243
X215.83Y-162.88
X216.05Y-111.76
X216.05Y-114.3
X216.05Y-116.84
X216.34Y-104.74
X216.4Y-129.0
X216.506Y-133.345
X216.65Y-141.5
X216.65Y-143.5
X216.77Y-123.35
X216.975Y-118.847
X217.05Y-153.93
X217.07Y-107.67
X217.4Y-133.35
X217.425Y-134.5
X217.425Y-135.525
X217.44Y-140.5
X217.675Y-118.221
X218.35Y-115.525
X218.35Y-117.325
X218.59Y-111.76
X218.64Y-162.87
X219.9Y-133.5
X220.325Y-136.5
X220.54Y-170.18
X220.583Y-134.274
X220.64Y-139.804
X220.644Y-135.344
X220.8Y-137.35
X221.073Y-129.728
X221.13Y-111.76
X221.175Y-139.2
X221.6Y-138.25
X221.825Y-151.775
X221.9Y-162.84
X221.911Y-141.17
X221.925Y-146.814
X222.474Y-112.2
X222.85Y-120.2
X222.862Y-146.45
X222.907Y-141.171
X223.546Y-145.95
X223.7Y-115.525
X223.7Y-117.325
X223.902Y-141.172
X224.1Y-124.2
X224.15Y-133.1
X224.375Y-121.4
X224.45Y-135.15
X224.45Y-137.35
X224.51Y-119.429
X224.82Y-162.85
X224.825Y-151.8
X224.83Y-153.85
X226.05Y-115.84
X226.21Y-109.22
X226.254Y-144.83
X226.8Y-138.9
X227.15Y-132.25
X227.22Y-115.221
X227.248Y-153.84
X227.25Y-135.1
X227.25Y-136.65
X227.55Y-129.41
X227.825Y-152.454
X228.05Y-121.7
X228.15Y-134.5
X228.15Y-140.525
X228.151Y-162.85
X228.75Y-109.22
X228.752Y-135.35
X228.9Y-137.5
X228.91Y-127.83
X229.146Y-121.727
X229.31Y-165.05
X229.4Y-112.2
X229.51Y-170.18
X229.95Y-119.34
X230.75Y-120.3
X230.825Y-151.85
X230.83Y-153.85
X230.87Y-162.84
X231.29Y-104.14
X231.29Y-109.22
X232.33Y-127.83
X232.4Y-119.3
X232.73Y-133.29
X232.731Y-135.84
X233.26Y-115.047
X233.26Y-115.85
X233.82Y-153.86
X233.83Y-104.14
X233.83Y-109.22
X233.86Y-162.85
X234.325Y-120.325
X234.45Y-112.175
X234.58Y-135.87
X235.38Y-118.01
X235.45Y-108.107
X235.45Y-112.2
X235.5Y-119.12
X235.97Y-127.83
X236.35Y-137.85
X236.37Y-134.62
X236.6Y-121.7
X236.63Y-153.85
X236.67Y-162.84
X236.86Y-108.783
X236.86Y-113.16
X237.767Y-131.213
X237.8Y-112.95
X237.8Y-139.43
X237.975Y-121.575
X238.234Y-117.858
X238.25Y-116.213
X238.35Y-115.25
X238.46Y-104.75
X238.91Y-124.46
X238.91Y-142.24
X238.91Y-144.78
X238.91Y-147.32
X238.91Y-149.86
X238.91Y-170.18
X238.97Y-127.83
X239.56Y-132.75
X239.78Y-153.84
X239.81Y-162.85
X241.0Y-104.75
X241.08Y-116.69
X241.43Y-133.45
X241.45Y-124.46
X241.45Y-144.78
X241.45Y-147.32
X241.45Y-149.86
X242.42Y-116.06
X242.45Y-111.312
X242.45Y-121.4
X242.65Y-112.83
X242.68Y-118.63
X242.77Y-153.85
X242.81Y-162.84
X243.54Y-104.75
X243.99Y-124.46
X243.99Y-149.86
X244.025Y-140.69
X244.025Y-148.925
X244.09Y-128.63
X245.58Y-153.84
X245.62Y-162.85
X246.08Y-104.75
X246.53Y-111.76
X246.53Y-114.3
X246.53Y-116.84
X246.53Y-119.38
X246.53Y-121.92
X246.53Y-124.46
X246.53Y-144.78
X246.53Y-147.32
X246.53Y-149.86
X246.63Y-128.63
X246.92Y-134.6
X246.92Y-137.14
X246.92Y-139.68
X247.52Y-170.18
X248.62Y-104.75
X248.81Y-153.84
X248.85Y-162.84
X249.07Y-111.76
X249.07Y-114.3
X249.07Y-116.84
X249.07Y-119.38
X249.07Y-121.92
X249.07Y-147.32
X249.07Y-149.86
X249.17Y-128.63
X251.61Y-104.14
X251.61Y-111.76
X251.61Y-114.3
X251.61Y-116.84
X251.61Y-119.38
X251.61Y-147.32
X251.61Y-149.86
X251.8Y-153.85
X251.84Y-162.84
X254.15Y-104.58
X254.15Y-106.68
X254.15Y-114.3
X254.15Y-116.84
X254.15Y-119.38
X254.15Y-147.32
X254.15Y-149.86
X254.61Y-153.84
X254.65Y-162.84
X254.675Y-132.83
X254.735Y-140.37
X256.09Y-131.36
X256.69Y-104.58
X256.69Y-114.3
X256.69Y-116.84
X256.69Y-119.38
X256.69Y-132.08
X256.69Y-137.16
X256.69Y-139.7
X256.69Y-147.32
X256.69Y-149.86
X256.69Y-170.18
X256.81Y-142.25
X258.426Y-153.85
X259.23Y-104.58
X259.23Y-116.84
X259.23Y-119.38
X259.23Y-121.92
X259.23Y-124.46
X259.23Y-170.18
X259.858Y-132.05
X259.858Y-136.76
X260.8Y-153.85
X261.77Y-104.58
X261.77Y-170.18
X262.137Y-131.36
X262.137Y-138.7
X262.4Y-129.0
X263.37Y-133.49
X263.37Y-135.31
X263.61Y-153.84
X263.65Y-162.84
X264.31Y-104.58
X264.31Y-116.84
X264.31Y-119.38
X264.31Y-124.46
X264.31Y-127.0
X264.31Y-132.08
X264.31Y-137.16
X264.31Y-170.18
X265.526Y-142.01
X266.125Y-135.31
X266.729Y-131.36
X266.85Y-104.58
X266.85Y-116.84
X266.85Y-119.38
X266.85Y-127.0
X266.85Y-158.06
X266.85Y-159.62
X266.85Y-162.56
X266.85Y-165.1
X266.85Y-167.64
X266.85Y-170.18
X268.81Y-144.55
X268.81Y-147.09
X268.81Y-149.63
X268.88Y-142.01
X269.39Y-104.58
X269.39Y-116.84
X269.39Y-124.46
X269.39Y-132.08
X269.39Y-139.7
X269.39Y-165.1
X269.8Y-122.1
X271.93Y-104.58
X271.93Y-114.3
X271.93Y-116.84
X271.93Y-124.46
X271.93Y-132.08
X271.93Y-134.62
X271.93Y-139.7
X271.93Y-142.24
X271.93Y-144.78
X271.93Y-147.32
X271.93Y-149.86
X271.93Y-165.1
X274.47Y-104.14
X274.47Y-106.68
X274.47Y-114.3
X274.47Y-116.84
X274.47Y-127.0
X274.47Y-132.08
X274.47Y-134.62
X274.47Y-139.7
X274.47Y-165.1
X277.01Y-104.14
X277.01Y-106.68
X277.01Y-111.76
X277.01Y-114.3
X277.01Y-116.84
X277.01Y-119.38
X277.01Y-124.46
X277.01Y-127.0
X277.01Y-132.08
X277.01Y-134.62
X277.01Y-149.86
X277.01Y-165.1
X277.01Y-167.64
X277.01Y-170.18
X279.55Y-132.08
X279.55Y-134.62
X279.55Y-139.7
X279.55Y-149.86
X282.09Y-132.08
X282.09Y-134.62
X282.09Y-139.7
X282.09Y-142.24
X282.09Y-144.78
X282.09Y-147.32
X282.09Y-149.86
X282.09Y-152.4
X282.505Y-156.865
X283.77Y-135.36
X284.01Y-156.55
X284.07Y-159.17
X284.12Y-163.02
X284.63Y-142.24
X284.63Y-144.78
X284.63Y-147.32
X284.63Y-149.86
X284.63Y-152.4
T3
X168.85Y-140.175
X178.14Y-111.11
X180.275Y-116.475
X180.275Y-122.35
X182.863Y-140.212
X190.413Y-142.087
X194.45Y-111.9
X200.88Y-125.03
X204.41Y-111.96
X212.39Y-110.035
X223.125Y-127.0
X230.95Y-127.0
X244.445Y-107.35
X261.49Y-111.727
X261.5Y-127.0
T4
X164.967Y-115.48
X164.967Y-117.48
T5
X150.025Y-144.405
X150.025Y-146.945
X150.025Y-149.485
X150.025Y-152.025
X150.025Y-156.255
X150.025Y-158.795
X150.025Y-161.335
X152.38Y-115.41
X152.38Y-117.91
X158.675Y-170.3
X160.01Y-158.654
X160.24Y-107.485
X161.215Y-170.3
X162.55Y-158.654
X162.74Y-107.485
X163.755Y-170.3
X165.09Y-158.654
X167.63Y-158.654
X170.17Y-158.654
X170.4Y-115.885
X170.4Y-118.425
X170.4Y-120.965
X170.4Y-123.505
X170.4Y-126.045
X170.4Y-128.585
X170.4Y-131.125
X170.4Y-133.665
X172.695Y-170.3
X172.71Y-158.654
X175.235Y-170.3
X175.25Y-158.654
X177.775Y-170.3
X177.79Y-158.654
X180.33Y-158.654
X187.55Y-155.95
X187.55Y-164.95
X190.05Y-155.95
X190.05Y-164.95
X196.55Y-155.95
X196.55Y-164.95
X199.05Y-155.95
X199.05Y-164.95
X199.39Y-107.355
X200.88Y-115.885
X200.88Y-118.425
X201.89Y-107.355
X205.55Y-155.95
X205.55Y-164.95
X208.05Y-155.95
X208.05Y-164.95
X214.55Y-155.95
X214.55Y-164.95
X217.05Y-155.95
X217.05Y-164.95
X219.867Y-105.6
X222.407Y-105.6
X223.575Y-155.925
X223.575Y-164.925
X224.947Y-105.6
X226.075Y-155.925
X226.075Y-164.925
X227.487Y-105.6
X232.135Y-143.55
X232.575Y-155.925
X232.575Y-164.925
X234.67Y-105.62
X234.675Y-143.55
X235.075Y-155.925
X235.075Y-164.925
X237.21Y-105.62
X237.215Y-143.55
X239.75Y-105.62
X241.575Y-155.925
X241.575Y-164.925
X242.29Y-105.62
X244.075Y-155.925
X244.075Y-164.925
X244.83Y-105.62
X247.37Y-105.62
X249.91Y-105.62
X250.575Y-155.925
X250.575Y-164.925
X252.18Y-124.985
X253.075Y-155.925
X253.075Y-164.925
X254.68Y-124.985
X259.575Y-155.925
X259.575Y-164.925
X260.815Y-142.01
X260.815Y-144.55
X260.815Y-147.09
X260.815Y-149.63
X262.075Y-155.925
X262.075Y-164.925
X263.355Y-142.01
X263.355Y-144.55
X263.355Y-147.09
X263.355Y-149.63
X269.755Y-170.3
X272.295Y-170.3
X274.835Y-170.3
X280.29Y-160.945
X282.79Y-160.945
X284.72Y-113.46
X284.72Y-116.0
X284.72Y-118.54
X284.72Y-121.08
X284.72Y-123.62
X284.72Y-126.16
X284.72Y-128.7
T6
X258.46Y-107.3
X258.46Y-109.84
X261.0Y-107.3
X261.0Y-109.84
X263.54Y-107.3
X263.54Y-109.84
X266.08Y-107.3
X266.08Y-109.84
X268.62Y-107.3
X268.62Y-109.84
T7
X184.787Y-119.537
T8
X170.875Y-110.1
T9
X175.42Y-149.86
T10
X277.325Y-144.25
M30
